<svg width="61" height="61" viewBox="0 0 61 61" fill="none" xmlns="http://www.w3.org/2000/svg">
<path d="M30.7168 60.1733C47.2853 60.1733 60.7168 46.7419 60.7168 30.1733C60.7168 13.6048 47.2853 0.17334 30.7168 0.17334C14.1483 0.17334 0.716797 13.6048 0.716797 30.1733C0.716797 46.7419 14.1483 60.1733 30.7168 60.1733Z" fill="#D4EDFF"/>
<path d="M46.1588 28.6709C45.8507 28.6709 45.601 28.9207 45.601 29.2288V29.5189C45.601 29.827 45.8507 30.0767 46.1588 30.0767C46.4669 30.0767 46.7167 29.827 46.7167 29.5189V29.2288C46.7167 28.9207 46.4669 28.6709 46.1588 28.6709Z" fill="#0077CA"/>
<path d="M16.7252 39.765L28.7127 46.6875C29.3311 47.0468 30.0241 47.2263 30.7171 47.2263C31.4098 47.2263 32.1022 47.0468 32.7195 46.6883L44.7067 39.7658C45.9467 39.0554 46.7168 37.7263 46.7168 36.2971V32.0683C46.7168 31.7602 46.467 31.5105 46.1589 31.5105C45.8508 31.5105 45.6011 31.7602 45.6011 32.0683V36.2971C45.6011 37.3273 45.0459 38.2856 44.1505 38.7985L32.1603 45.7227C31.2701 46.2403 30.1638 46.2405 29.2721 45.7219L17.2815 38.7977C16.3877 38.2856 15.8325 37.3273 15.8325 36.2971V22.4507C15.8325 21.4205 16.3877 20.4622 17.2831 19.9492L29.2733 13.0251C30.1635 12.5075 31.2697 12.5073 32.1615 13.0259L44.1521 19.9501C45.0458 20.4622 45.601 21.4205 45.601 22.4507V26.6794C45.601 26.9875 45.8508 27.2373 46.1589 27.2373C46.4669 27.2373 46.7167 26.9875 46.7167 26.6794V22.4507C46.7167 21.0214 45.9466 19.6923 44.7083 18.9827L32.7208 12.0602C31.4844 11.3419 29.9488 11.3422 28.714 12.0594L16.7269 18.9819C15.4869 19.6924 14.7168 21.0214 14.7168 22.4507V36.2971C14.7168 37.7263 15.4869 39.0554 16.7252 39.765Z" fill="#0077CA"/>
<path d="M30.9957 17.0396C30.823 16.9399 30.6105 16.9399 30.4378 17.0396L20.1741 22.9654C20.0014 23.0651 19.8951 23.2492 19.8951 23.4487V35.3C19.8951 35.4994 20.0014 35.6835 20.1741 35.7832L30.4378 41.709C30.5242 41.7588 30.6204 41.7837 30.7168 41.7837C30.8132 41.7837 30.9094 41.7588 30.9958 41.709L41.2596 35.7832C41.4323 35.6835 41.5385 35.4994 41.5385 35.3V23.4487C41.5385 23.2492 41.4323 23.0651 41.2596 22.9654L30.9957 17.0396ZM40.4226 34.978L30.7167 40.5815L21.0109 34.978V23.7706L30.7167 18.1671L40.4226 23.7706V34.978Z" fill="#0077CA"/>
<path d="M27.2551 26.0606C26.947 26.0606 26.6972 26.3104 26.6972 26.6185V30.2586L24.1146 26.3128C23.9792 26.1066 23.7236 26.0135 23.4883 26.0837C23.2518 26.1542 23.0897 26.3716 23.0897 26.6184V32.1293C23.0897 32.4374 23.3395 32.6872 23.6476 32.6872C23.9557 32.6872 24.2055 32.4374 24.2055 32.1293V28.4893L26.7881 32.435C27.0905 32.8957 27.8128 32.6851 27.8128 32.1294V26.6185C27.8129 26.3104 27.5631 26.0606 27.2551 26.0606Z" fill="#0077CA"/>
<path d="M33.8684 27.1763H35.2691V32.1293C35.2691 32.4374 35.5189 32.6872 35.827 32.6872C36.135 32.6872 36.3848 32.4374 36.3848 32.1293V27.1763H37.7858C38.0939 27.1763 38.3436 26.9265 38.3436 26.6184C38.3436 26.3103 38.0939 26.0605 37.7858 26.0605H33.8684C33.5603 26.0605 33.3105 26.3103 33.3105 26.6184C33.3105 26.9265 33.5603 27.1763 33.8684 27.1763Z" fill="#0077CA"/>
<path d="M28.9102 26.6184V32.1293C28.9102 32.4374 29.1599 32.6872 29.468 32.6872C29.7761 32.6872 30.0259 32.4374 30.0259 32.1293V29.9318H32.2269C32.5349 29.9318 32.7847 29.6821 32.7847 29.374C32.7847 29.0659 32.5349 28.8161 32.2269 28.8161H30.0259V27.1763H32.2269C32.5349 27.1763 32.7847 26.9265 32.7847 26.6184C32.7847 26.3103 32.5349 26.0605 32.2269 26.0605H29.468C29.1599 26.0605 28.9102 26.3103 28.9102 26.6184Z" fill="#0077CA"/>
</svg>
