<svg width="60" height="61" viewBox="0 0 60 61" fill="none" xmlns="http://www.w3.org/2000/svg">
<path d="M30 60.9561C46.5685 60.9561 60 47.5246 60 30.9561C60 14.3875 46.5685 0.956055 30 0.956055C13.4315 0.956055 0 14.3875 0 30.9561C0 47.5246 13.4315 60.9561 30 60.9561Z" fill="#D4EDFF"/>
<path d="M29.1081 25.6602C27.1719 25.6602 25.5968 27.2354 25.5968 29.1716V32.7403C25.5968 34.6764 27.1719 36.2516 29.1081 36.2516C31.0443 36.2516 32.6194 34.6763 32.6194 32.7403V29.1716C32.6194 27.2354 31.0443 25.6602 29.1081 25.6602ZM30.95 32.7403C30.95 33.7559 30.1238 34.5821 29.1082 34.5821C28.0926 34.5821 27.2664 33.7559 27.2664 32.7403V29.1716C27.2664 28.1559 28.0926 27.3297 29.1082 27.3297C30.1238 27.3297 30.95 28.1559 30.95 29.1716V32.7403Z" fill="#0077CA"/>
<path d="M23.7552 25.6602C23.2942 25.6602 22.9203 26.034 22.9203 26.495V32.7404C22.9203 33.756 22.0941 34.5822 21.0785 34.5822C20.6235 34.5822 20.1867 34.415 19.8485 34.1113C19.5055 33.8033 18.9777 33.8316 18.6698 34.1746C18.3617 34.5176 18.3901 35.0454 18.7331 35.3534C19.3781 35.9326 20.2112 36.2516 21.0786 36.2516C23.0148 36.2516 24.5899 34.6763 24.5899 32.7403V26.4949C24.5899 26.0339 24.2162 25.6602 23.7552 25.6602Z" fill="#0077CA"/>
<path d="M39.1953 29.8973C39.5466 29.4515 39.7571 28.8896 39.7571 28.2793C39.7571 26.835 38.5822 25.6602 37.138 25.6602H34.4613C34.0003 25.6602 33.6266 26.0339 33.6266 26.4949V30.0636V35.4168C33.6266 35.8778 34.0003 36.2516 34.4613 36.2516H37.138C39.0742 36.2516 40.6493 34.6763 40.6493 32.7403C40.6493 31.5721 40.0754 30.536 39.1953 29.8973ZM35.2961 27.3297H37.138C37.6617 27.3297 38.0876 27.7557 38.0876 28.2793C38.0876 28.8029 37.6615 29.2289 37.138 29.2289H35.2961V27.3297ZM37.138 34.5821H35.2961V30.8984H37.138C38.1536 30.8984 38.9798 31.7247 38.9798 32.7403C38.9798 33.7559 38.1536 34.5821 37.138 34.5821Z" fill="#0077CA"/>
<path d="M42.5616 21.0562C42.2758 20.6943 41.7508 20.6328 41.389 20.9185C41.0273 21.2042 40.9657 21.7292 41.2514 22.0909C45.7506 27.787 45.2705 35.9552 40.135 41.0907C34.9994 46.2262 26.8314 46.7062 21.1352 42.207C20.7734 41.9213 20.2486 41.983 19.9627 42.3447C19.677 42.7064 19.7385 43.2314 20.1004 43.5171C23.0177 45.8215 26.5154 46.956 30.001 46.956C34.1147 46.956 38.2115 45.3752 41.3156 42.2711C47.0497 36.5371 47.5853 27.4166 42.5616 21.0562Z" fill="#0077CA"/>
<path d="M39.7627 18.395C33.4021 13.371 24.2816 13.9068 18.5476 19.6409C12.8134 25.3752 12.2777 34.4956 17.3016 40.856C17.4663 41.0646 17.7106 41.1734 17.9572 41.1734C18.1384 41.1734 18.321 41.1148 18.4741 40.9937C18.8358 40.708 18.8975 40.183 18.6117 39.8212C14.1125 34.1252 14.5924 25.9571 19.728 20.8215C24.8636 15.686 33.0317 15.206 38.7278 19.7051C39.0897 19.9909 39.6144 19.9292 39.9004 19.5674C40.1861 19.2057 40.1245 18.6807 39.7627 18.395Z" fill="#0077CA"/>
</svg>
