<svg width="61" height="61" viewBox="0 0 61 61" fill="none" xmlns="http://www.w3.org/2000/svg">
<path d="M30.4335 60.0605C47.002 60.0605 60.4335 46.6291 60.4335 30.0605C60.4335 13.492 47.002 0.0605469 30.4335 0.0605469C13.8649 0.0605469 0.433472 13.492 0.433472 30.0605C0.433472 46.6291 13.8649 60.0605 30.4335 60.0605Z" fill="#D4EDFF"/>
<path d="M28.2939 22.8287C28.1316 22.8287 27.9719 22.7586 27.8605 22.6251C27.6871 22.4159 27.4339 22.2962 27.1628 22.2962C26.8917 22.2962 26.6371 22.4159 26.465 22.6251C26.2668 22.8646 25.9132 22.899 25.6737 22.7008C25.4342 22.5026 25.4012 22.149 25.598 21.9095C25.9847 21.4416 26.5558 21.1719 27.1628 21.1719C27.7697 21.1719 28.3408 21.4402 28.7275 21.9095C28.9257 22.149 28.8913 22.5026 28.6518 22.7008C28.5457 22.7862 28.4191 22.8287 28.2939 22.8287Z" fill="#0077CA"/>
<path d="M33.2577 22.8287C33.0953 22.8287 32.9357 22.7586 32.8243 22.6251C32.6509 22.4159 32.3977 22.2962 32.1265 22.2962C31.8554 22.2962 31.6008 22.4159 31.4287 22.6251C31.2305 22.8646 30.8769 22.899 30.6375 22.7008C30.398 22.5026 30.365 22.149 30.5618 21.9095C30.9485 21.4416 31.5196 21.1719 32.1265 21.1719C32.7334 21.1719 33.3045 21.4402 33.6912 21.9095C33.8895 22.149 33.855 22.5026 33.6156 22.7008C33.5109 22.7862 33.3842 22.8287 33.2577 22.8287Z" fill="#0077CA"/>
<path d="M39.0883 44.0036H20.1992C19.8882 44.0036 19.6377 43.7519 19.6377 43.4421V30.6261C19.6377 29.6944 20.396 28.9375 21.3263 28.9375H37.9612C38.8928 28.9375 39.6497 29.6958 39.6497 30.6261V43.4421C39.6498 43.7519 39.3994 44.0036 39.0883 44.0036ZM20.7607 42.8793H38.5255V30.6261C38.5255 30.315 38.2723 30.0604 37.9599 30.0604H21.3264C21.0153 30.0604 20.7607 30.3136 20.7607 30.6261V42.8793Z" fill="#0077CA"/>
<path d="M13.7589 43.9983C13.4479 43.9983 13.1974 43.7465 13.1974 43.4368V41.6478C13.1974 41.3134 13.2469 40.9832 13.3432 40.6653C13.6997 38.9946 15.0565 34.9569 19.9845 32.923C20.2707 32.8047 20.5996 32.9409 20.718 33.2285C20.8364 33.5147 20.7001 33.8436 20.4125 33.962C15.9537 35.8019 14.7483 39.4433 14.4358 40.9226C14.4317 40.9405 14.4276 40.9584 14.4221 40.9749C14.3533 41.1924 14.3189 41.4194 14.3189 41.6478V43.4368C14.3204 43.7478 14.0685 43.9983 13.7589 43.9983Z" fill="#0077CA"/>
<path d="M35.2929 30.0608C35.1828 30.0608 35.07 30.0278 34.9723 29.9604C34.7177 29.7829 34.6544 29.4333 34.8305 29.1788C35.5117 28.1963 35.8723 27.043 35.8723 25.843V19.807C35.8723 16.5786 33.2452 13.9502 30.0154 13.9502H29.2668C26.037 13.9502 23.41 16.5773 23.41 19.807V25.8428C23.41 27.0167 23.7554 28.1493 24.4105 29.1167C24.5839 29.3741 24.5164 29.7237 24.2591 29.897C24.0018 30.0704 23.6522 30.003 23.4788 29.7457C22.6985 28.5911 22.2856 27.2411 22.2856 25.8428V19.807C22.2856 15.9579 25.4164 12.8271 29.2655 12.8271H30.0141C33.8633 12.8271 36.994 15.9579 36.994 19.807V25.8428C36.994 27.2741 36.5646 28.6489 35.7513 29.8199C35.6467 29.9769 35.4719 30.0608 35.2929 30.0608Z" fill="#0077CA"/>
<path d="M45.5287 43.9981C45.2177 43.9981 44.9672 43.7463 44.9672 43.4366V41.6476C44.9672 41.4178 44.9328 41.1921 44.864 40.9747C44.8584 40.9568 44.8544 40.9403 44.8503 40.9224C44.5392 39.4431 43.3324 35.8017 38.8736 33.9618C38.5874 33.8434 38.4497 33.5145 38.5681 33.2283C38.6865 32.9421 39.0154 32.8045 39.3016 32.9229C44.2296 34.9569 45.5865 38.9945 45.9429 40.6651C46.0406 40.983 46.0887 41.3146 46.0887 41.6476V43.4366C46.0917 43.7476 45.8398 43.9981 45.5287 43.9981Z" fill="#0077CA"/>
<path d="M38.948 20.6118C38.6369 20.6118 38.3864 20.36 38.3864 20.0503V19.8066C38.3864 15.1924 34.6323 11.4382 30.018 11.4382H29.2694C24.6551 11.4382 20.901 15.1924 20.901 19.8066V20.0503C20.901 20.3613 20.6492 20.6118 20.3395 20.6118C20.0297 20.6118 19.778 20.36 19.778 20.0503V19.8066C19.7782 14.5733 24.036 10.3154 29.2695 10.3154H30.0181C35.2516 10.3154 39.5095 14.5733 39.5095 19.8068V20.0504C39.5095 20.36 39.259 20.6118 38.948 20.6118Z" fill="#0077CA"/>
<path d="M21.0719 27.0617H19.6035C18.3099 27.0617 17.2557 26.0089 17.2557 24.7139V21.8351C17.2557 20.5415 18.3085 19.4873 19.6035 19.4873H21.0719C22.3654 19.4873 23.4196 20.5401 23.4196 21.8351V24.7139C23.4182 26.0089 22.3654 27.0617 21.0719 27.0617ZM19.6035 20.6116C18.9292 20.6116 18.3801 21.1607 18.3801 21.8351V24.7139C18.3801 25.3883 18.9292 25.9374 19.6035 25.9374H21.0719C21.7462 25.9374 22.2953 25.3883 22.2953 24.7139V21.8351C22.2953 21.1607 21.7462 20.6116 21.0719 20.6116H19.6035Z" fill="#0077CA"/>
<path d="M39.6815 27.0617H38.2131C36.9196 27.0617 35.8654 26.0089 35.8654 24.7139V21.8351C35.8654 20.5415 36.9181 19.4873 38.2131 19.4873H39.6815C40.975 19.4873 42.0292 20.5401 42.0292 21.8351V24.7139C42.0292 26.0089 40.9765 27.0617 39.6815 27.0617ZM38.2145 20.6116C37.5402 20.6116 36.9911 21.1607 36.9911 21.8351V24.7139C36.9911 25.3883 37.5402 25.9374 38.2145 25.9374H39.6829C40.3572 25.9374 40.9063 25.3883 40.9063 24.7139V21.8351C40.9063 21.1607 40.3572 20.6116 39.6829 20.6116H38.2145Z" fill="#0077CA"/>
<path d="M29.6439 38.1577C28.1453 38.1577 26.9247 36.9384 26.9247 35.4385C26.9247 33.9398 28.144 32.7192 29.6439 32.7192C31.1425 32.7192 32.3631 33.9385 32.3631 35.4385C32.3631 36.9384 31.1425 38.1577 29.6439 38.1577ZM29.6439 33.8435C28.7645 33.8435 28.0489 34.5591 28.0489 35.4385C28.0489 36.3179 28.7645 37.0335 29.6439 37.0335C30.5233 37.0335 31.2389 36.3179 31.2389 35.4385C31.2388 34.5591 30.5232 33.8435 29.6439 33.8435Z" fill="#0077CA"/>
</svg>
