<svg width="51" height="51" viewBox="0 0 51 51" fill="none" xmlns="http://www.w3.org/2000/svg">
<path d="M25.5503 50.604C39.3574 50.604 50.5503 39.4111 50.5503 25.604C50.5503 11.7969 39.3574 0.604004 25.5503 0.604004C11.7432 0.604004 0.550293 11.7969 0.550293 25.604C0.550293 39.4111 11.7432 50.604 25.5503 50.604Z" fill="#F2EFFF"/>
<g clip-path="url(#clip0_1609_28769)">
<path d="M28.739 22.8395L26.8307 22.5624L25.9772 20.8327C25.931 20.7393 25.8554 20.6637 25.7619 20.6175C25.5271 20.5015 25.2428 20.5979 25.1268 20.8327L24.2733 22.5624L22.3645 22.8395C22.2612 22.8545 22.1657 22.903 22.0928 22.9777C21.9099 23.1652 21.9136 23.4654 22.1011 23.6483L23.482 24.9944L23.1558 26.8953C23.1513 26.9217 23.149 26.9485 23.149 26.9753C23.149 27.2372 23.3613 27.4495 23.6232 27.4495C23.7002 27.4489 23.776 27.4296 23.8439 27.3931L25.551 26.4975L27.258 27.3931C27.3503 27.442 27.4561 27.4591 27.559 27.4418C27.8173 27.3982 27.9912 27.1535 27.9477 26.8953L27.6215 24.9944L29.0024 23.6483C29.0771 23.5754 29.1257 23.4799 29.1407 23.3765C29.1779 23.1173 28.9982 22.8769 28.739 22.8395ZM26.7801 24.4854C26.6678 24.5947 26.6167 24.7525 26.6437 24.9069L26.8491 26.1066L25.7718 25.5402C25.7035 25.505 25.6278 25.4869 25.551 25.4875C25.4739 25.4881 25.3982 25.5074 25.3302 25.5439L24.2528 26.1103L24.4588 24.9106C24.4858 24.7562 24.4347 24.5984 24.3224 24.4891L23.4509 23.6393L24.6553 23.4644C24.8098 23.442 24.9433 23.3451 25.0125 23.2052L25.551 22.1135L26.0894 23.2052C26.1586 23.3451 26.2922 23.442 26.4467 23.4644L27.6516 23.6361L26.7801 24.4854Z" fill="#0077CA"/>
<path d="M25.5511 17.9434C22.1433 17.9434 19.3806 20.706 19.3806 24.1139C19.3806 27.5217 22.1433 30.2844 25.5511 30.2844C28.9574 30.2806 31.7179 27.5202 31.7216 24.1139C31.7216 20.706 28.959 17.9434 25.5511 17.9434ZM25.5511 29.3361C22.667 29.3361 20.3289 26.998 20.3289 24.1139C20.3289 21.2298 22.667 18.8917 25.5511 18.8917C28.4339 18.8949 30.7701 21.2311 30.7733 24.1139C30.7733 26.9981 28.4352 29.3361 25.5511 29.3361Z" fill="#0077CA"/>
<path d="M34.2357 25.3926L33.3484 25.7282C33.4865 26.0933 33.6583 26.5475 33.5992 26.7293C33.5328 26.9337 33.1309 27.1956 32.7757 27.4268C32.3543 27.7019 31.8748 28.0138 31.5455 28.4668C31.2162 28.9199 31.0608 29.481 30.9275 29.971C30.8221 30.3562 30.6925 30.8356 30.5245 30.9578C30.3564 31.08 29.8696 31.0532 29.4708 31.0342C28.9613 31.01 28.3839 30.9815 27.8407 31.1596C27.3139 31.3303 26.876 31.6864 26.4883 31.9989C26.1558 32.2676 25.7786 32.5721 25.5515 32.5721C25.3245 32.5721 24.9472 32.2676 24.6143 31.9979C24.2265 31.6843 23.7872 31.3293 23.2624 31.1591C22.9621 31.0616 22.6254 31.0163 22.2024 31.0163C22.0069 31.0163 21.8157 31.0253 21.6313 31.0343C21.2356 31.0532 20.7435 31.0764 20.5808 30.9579C20.418 30.8393 20.2826 30.3551 20.1772 29.97C20.0439 29.4795 19.8932 28.9242 19.5597 28.4658C19.2262 28.0074 18.7515 27.7013 18.329 27.4258C17.9744 27.1945 17.5724 26.9327 17.506 26.7283C17.447 26.5476 17.6193 26.0929 17.7573 25.7272C17.9402 25.2441 18.1466 24.6967 18.1466 24.114C18.1466 23.5313 17.9396 22.9839 17.7568 22.5008C17.6187 22.1357 17.447 21.6809 17.5055 21.4997C17.5719 21.2953 17.9738 21.0334 18.329 20.8016C18.7504 20.5266 19.2293 20.2147 19.5592 19.7622C19.889 19.3096 20.0439 18.748 20.1772 18.258C20.2826 17.8728 20.4122 17.3934 20.5802 17.2712C20.7483 17.149 21.2351 17.1758 21.6313 17.1948C22.1407 17.219 22.7187 17.2475 23.2645 17.0694C23.7914 16.8987 24.2287 16.5426 24.617 16.2301C24.9468 15.9604 25.324 15.6563 25.5511 15.6563C25.7781 15.6563 26.1554 15.9603 26.4878 16.2301C26.8756 16.5435 27.3149 16.8987 27.8402 17.0693C28.3839 17.2458 28.9619 17.2184 29.4735 17.1947C29.8691 17.1763 30.3612 17.1531 30.524 17.2711C30.6868 17.3892 30.8196 17.8722 30.9249 18.2579C31.0582 18.7485 31.2089 19.3038 31.5424 19.7621C31.8759 20.2205 32.3506 20.5271 32.7732 20.8021C33.1278 21.0334 33.5297 21.2953 33.5967 21.4997C33.6557 21.6809 33.4834 22.1356 33.3453 22.5007C33.1625 22.9838 32.9555 23.5318 32.9555 24.1139C32.9555 24.6961 33.1626 25.244 33.3453 25.7272L33.7889 25.5596L34.2325 25.3921C34.0634 24.9454 33.9038 24.5233 33.9038 24.1139C33.9038 23.7045 34.0618 23.2826 34.232 22.8358C34.4517 22.2562 34.6598 21.7046 34.498 21.2068C34.3279 20.6836 33.8005 20.3401 33.2905 20.0076C32.9217 19.7658 32.536 19.5161 32.309 19.2042C32.0819 18.8923 31.9571 18.4408 31.8396 18.0093C31.6736 17.3992 31.5171 16.8228 31.0793 16.5046C30.6415 16.1863 30.054 16.218 29.426 16.2475C28.9766 16.2685 28.5114 16.2906 28.1326 16.1674C27.7744 16.0509 27.423 15.7669 27.0837 15.4924C26.6047 15.1069 26.1137 14.708 25.551 14.708C24.9884 14.708 24.4973 15.1069 24.0179 15.493C23.6786 15.7675 23.3272 16.051 22.9689 16.1674C22.5901 16.2902 22.1454 16.2696 21.6755 16.2475C21.0475 16.218 20.4543 16.1901 20.0217 16.5046C19.5891 16.8191 19.4274 17.4002 19.2614 18.0098C19.1439 18.4413 19.0228 18.8876 18.792 19.2047C18.5612 19.5219 18.1819 19.7663 17.8105 20.0082C17.3005 20.3406 16.7731 20.6841 16.603 21.2073C16.4412 21.7052 16.6493 22.2547 16.869 22.8368C17.0376 23.2836 17.1972 23.7056 17.1972 24.1145C17.1972 24.5233 17.0392 24.9453 16.869 25.3926C16.6493 25.9722 16.4412 26.5243 16.603 27.0217C16.7731 27.5453 17.3005 27.8889 17.8105 28.2213C18.1793 28.4631 18.565 28.7128 18.7915 29.0248C19.018 29.3367 19.1434 29.7882 19.2609 30.2197C19.362 30.5927 19.4606 30.953 19.6218 31.2496L17.7009 36.1621C17.6057 36.406 17.7262 36.681 17.9702 36.7762C18.0428 36.8046 18.1214 36.8146 18.1988 36.8053L20.8858 36.484L22.6407 38.5419C22.8108 38.741 23.1102 38.7645 23.3093 38.5943C23.3691 38.5432 23.4153 38.4779 23.4437 38.4044L25.3588 33.5046C25.4863 33.5259 25.6164 33.5259 25.744 33.5046L27.6586 38.4044C27.754 38.6482 28.029 38.7686 28.2729 38.6732C28.3457 38.6447 28.4102 38.5987 28.461 38.5392L30.2159 36.4814L32.9029 36.8027C33.1629 36.8335 33.3987 36.6476 33.4295 36.3875C33.4385 36.3112 33.4288 36.2338 33.4013 36.1621L31.4797 31.2486C31.6409 30.952 31.7389 30.5916 31.8406 30.2186C31.9575 29.7871 32.0787 29.3409 32.31 29.0237C32.5413 28.7066 32.9201 28.4621 33.2915 28.2203C33.8015 27.8879 34.3294 27.5443 34.499 27.0212C34.6608 26.5233 34.4532 25.9743 34.2357 25.3926ZM22.8466 37.3238L21.4415 35.6752C21.3384 35.5546 21.1818 35.4935 21.0242 35.5125L18.8725 35.7701L20.3841 31.9041C20.7608 32.0242 21.2081 32.0031 21.6749 31.981C21.8487 31.9725 22.0284 31.9641 22.2017 31.9641C22.522 31.9641 22.766 31.9947 22.9688 32.0606C23.3271 32.177 23.678 32.4604 24.0178 32.7355C24.1759 32.8625 24.334 32.9905 24.4962 33.1043L22.8466 37.3238ZM32.2294 35.7701L30.0782 35.5125C29.9206 35.4936 29.7639 35.5549 29.661 35.6758L28.2553 37.3243L26.6046 33.1053C26.7669 32.9904 26.926 32.8624 27.083 32.7365C27.4223 32.462 27.7737 32.1786 28.132 32.0621C28.5103 31.9394 28.9544 31.9599 29.4259 31.982C29.8975 32.0042 30.34 32.0247 30.7167 31.9051L32.2294 35.7701Z" fill="#0077CA"/>
</g>
<defs>
<clipPath id="clip0_1609_28769">
<rect width="23.9999" height="24" fill="white" transform="translate(13.5503 14.708)"/>
</clipPath>
</defs>
</svg>
