<svg width="51" height="51" viewBox="0 0 51 51" fill="none" xmlns="http://www.w3.org/2000/svg">
<path d="M25.5002 50.2136C39.3074 50.2136 50.5002 39.0207 50.5002 25.2136C50.5002 11.4065 39.3074 0.213623 25.5002 0.213623C11.6931 0.213623 0.500244 11.4065 0.500244 25.2136C0.500244 39.0207 11.6931 50.2136 25.5002 50.2136Z" fill="#D1F5EA"/>
<g clip-path="url(#clip0_1609_28778)">
<path d="M29.0635 18.6027V16.7343C29.0635 13.1475 16.8772 13.1475 16.8772 16.7343V27.6625C16.8772 29.0725 18.7738 29.9515 21.0555 30.264C20.2209 30.6996 19.6894 31.288 19.6894 32.0337V35.3122C19.6894 37.1056 22.7548 38.0442 25.7826 38.0442C28.8104 38.0442 31.8758 37.1056 31.8758 35.3122V33.6639C34.7431 33.5722 37.5002 32.6418 37.5002 30.9409V21.1056C37.5002 18.8412 32.6449 18.008 29.0635 18.6027ZM22.9704 15.1351C26.3062 15.1351 28.1261 16.2159 28.1261 16.7715C28.1261 17.3271 26.3062 18.4078 22.9704 18.4078C19.6345 18.4078 17.8146 17.3271 17.8146 16.7715C17.8146 16.2159 19.6345 15.1351 22.9704 15.1351ZM17.8146 18.2893C18.9519 19.0859 20.9665 19.4988 22.9703 19.4988C24.9742 19.4988 26.9888 19.0859 28.1261 18.2893V18.8314C26.4973 19.2518 25.3139 20.0195 25.3139 21.1351V21.4579C24.5793 21.595 23.7864 21.6806 22.9704 21.6806C19.6345 21.6806 17.8146 20.5998 17.8146 20.0442L17.8146 18.2893ZM26.2513 29.1984C26.3405 29.2609 26.4333 29.3216 26.5329 29.3792C26.4391 29.3747 26.3454 29.3702 26.2513 29.3674V29.1984ZM17.8146 21.5621C18.9519 22.3587 20.9665 22.7715 22.9703 22.7715C23.7817 22.7715 24.5703 22.6867 25.3138 22.5574V25.2761C24.5793 25.4132 23.7864 25.4988 22.9703 25.4988C19.6345 25.4988 17.8146 24.418 17.8146 23.8624V21.5621ZM17.8146 27.6806V25.3803C18.9519 26.1769 20.9665 26.5897 22.9703 26.5897C23.7817 26.5897 24.5703 26.5049 25.3138 26.3756V29.0943C24.5793 29.2314 23.7864 29.317 22.9703 29.317C19.6345 29.317 17.8146 28.2361 17.8146 27.6806ZM30.9383 35.3169C30.9383 35.8725 29.1184 36.9533 25.7826 36.9533C22.4468 36.9533 20.6268 35.8725 20.6268 35.3169V33.562C21.7641 34.3586 23.7787 34.7715 25.7826 34.7715C27.7007 34.7715 29.6312 34.3942 30.7906 33.6634C30.8392 33.6655 30.8894 33.6658 30.9383 33.6675V35.3169H30.9383ZM25.7826 33.6806C22.4467 33.6806 20.6269 32.5998 20.6269 32.0442C20.6269 31.4886 22.4468 30.4078 25.7826 30.4078C29.1184 30.4078 30.9383 31.4886 30.9383 32.0442C30.9383 32.5998 29.1184 33.6806 25.7826 33.6806ZM36.5628 30.9533C36.5628 31.4812 34.902 32.4725 31.8757 32.5708V32.0442C31.8757 31.3627 31.4326 30.8119 30.7177 30.3898C30.9469 30.4006 31.1768 30.4078 31.407 30.4078C33.4108 30.4078 35.4255 29.995 36.5627 29.1984V30.9533H36.5628ZM36.5628 27.6806C36.5628 28.2362 34.7429 29.317 31.407 29.317C28.0712 29.317 26.2513 28.2362 26.2513 27.6806V25.9257C27.3886 26.7223 29.4032 27.1351 31.407 27.1351C33.4109 27.1351 35.4255 26.7223 36.5628 25.9257V27.6806ZM36.5628 24.4079C36.5628 24.9635 34.7429 26.0442 31.407 26.0442C28.0712 26.0442 26.2513 24.9635 26.2513 24.4079V22.653C27.3886 23.4496 29.4032 23.8624 31.407 23.8624C33.4109 23.8624 35.4255 23.4496 36.5628 22.653V24.4079ZM31.407 22.7715C28.0712 22.7715 26.2513 21.6907 26.2513 21.1351C26.2513 20.5795 28.0712 19.4988 31.407 19.4988C34.7429 19.4988 36.5628 20.5795 36.5628 21.1351C36.5628 21.6907 34.7429 22.7715 31.407 22.7715Z" fill="#139A74"/>
</g>
<defs>
<clipPath id="clip0_1609_28778">
<rect width="20.623" height="24" fill="white" transform="translate(16.8772 14.0449)"/>
</clipPath>
</defs>
</svg>
