<svg width="192" height="25" viewBox="0 0 192 25" fill="none" xmlns="http://www.w3.org/2000/svg">
<path d="M40 0C46.6271 0 52 5.37288 52 12C52 18.6271 46.6269 24 40 24C33.3731 24 28 18.6286 28 12C28 5.37144 33.3722 0 40 0Z" fill="#53AE94"/>
<path d="M41.4811 10.401V8.61592H45.5633V5.896H34.4474V8.61592H38.5301V10.3996C35.2121 10.552 32.7173 11.2091 32.7173 11.9963C32.7173 12.7835 35.2133 13.4406 38.5301 13.594V19.312H41.4821V13.5935C44.7941 13.4406 47.2838 12.784 47.2838 11.9975C47.2838 11.211 44.7941 10.5544 41.4821 10.4015M41.4821 13.1092V13.1078C41.3988 13.113 40.9709 13.1387 40.0181 13.1387C39.2563 13.1387 38.7204 13.1171 38.5315 13.1073V13.1097C35.6002 12.9798 33.4121 12.4694 33.4121 11.8586C33.4121 11.2478 35.6004 10.738 38.5315 10.6079V12.6011C38.7235 12.6143 39.2726 12.6467 40.0306 12.6467C40.9409 12.6467 41.3986 12.6088 41.4826 12.6011V10.6079C44.4082 10.7382 46.5912 11.2492 46.5912 11.8578C46.5912 12.4665 44.4067 12.9774 41.4821 13.1078" fill="white"/>
<path d="M68 24C74.65 24 80 18.65 80 12C80 5.34996 74.65 0 68 0C61.35 0 56 5.34996 56 12C56 18.65 61.35 24 68 24Z" fill="#2775CA"/>
<path d="M71.0601 14.1879C71.0601 12.438 70.0101 11.838 67.9101 11.588C66.4101 11.388 66.1101 10.988 66.1101 10.2879C66.1101 9.58786 66.6101 9.13798 67.6101 9.13798C68.5101 9.13798 69.0101 9.43798 69.2601 10.188C69.3101 10.338 69.4601 10.4379 69.6101 10.4379H70.41C70.6101 10.4379 70.7601 10.2879 70.7601 10.088V10.038C70.56 8.93794 69.66 8.08798 68.5101 7.98802V6.78802C68.5101 6.58798 68.3601 6.43798 68.1101 6.38794H67.3601C67.1601 6.38794 67.0101 6.53794 66.96 6.78802V7.93798C65.46 8.13802 64.5101 9.13798 64.5101 10.388C64.5101 12.038 65.5101 12.6879 67.6101 12.938C69.0101 13.188 69.4601 13.488 69.4601 14.288C69.4601 15.0881 68.76 15.638 67.8101 15.638C66.51 15.638 66.06 15.0879 65.91 14.3379C65.8601 14.138 65.7101 14.0379 65.5601 14.0379H64.71C64.5101 14.0379 64.3601 14.1879 64.3601 14.388V14.438C64.56 15.6879 65.3601 16.5879 67.0101 16.838V18.038C67.0101 18.2379 67.1601 18.3879 67.41 18.438H68.16C68.3601 18.438 68.5101 18.288 68.5601 18.038V16.838C70.0601 16.5879 71.0601 15.5379 71.0601 14.1879V14.1879Z" fill="white"/>
<path d="M65.21 19.438C61.31 18.0381 59.31 13.6881 60.76 9.83801C61.51 7.73801 63.16 6.13805 65.21 5.38805C65.41 5.28809 65.51 5.13809 65.51 4.88801V4.18805C65.51 3.98801 65.41 3.83801 65.21 3.78809C65.16 3.78809 65.06 3.78809 65.01 3.83801C60.26 5.33801 57.66 10.3881 59.16 15.138C60.06 17.938 62.21 20.088 65.01 20.988C65.21 21.088 65.41 20.988 65.46 20.788C65.51 20.7381 65.51 20.688 65.51 20.5881V19.888C65.51 19.738 65.36 19.5381 65.21 19.438ZM70.51 3.83801C70.31 3.73805 70.11 3.83801 70.06 4.03805C70.01 4.08809 70.01 4.13801 70.01 4.23809V4.93805C70.01 5.13809 70.16 5.33801 70.31 5.43809C74.21 6.83801 76.21 11.188 74.76 15.0381C74.01 17.1381 72.36 18.738 70.31 19.488C70.11 19.588 70.01 19.738 70.01 19.9881V20.688C70.01 20.8881 70.11 21.0381 70.31 21.088C70.36 21.088 70.46 21.088 70.51 21.0381C75.26 19.5381 77.86 14.488 76.36 9.73805C75.46 6.88805 73.26 4.73801 70.51 3.83801V3.83801Z" fill="white"/>
<path d="M12.0001 23.6001C18.4066 23.6001 23.6001 18.4066 23.6001 12.0001C23.6001 5.59364 18.4066 0.400146 12.0001 0.400146C5.59364 0.400146 0.400146 5.59364 0.400146 12.0001C0.400146 18.4066 5.59364 23.6001 12.0001 23.6001Z" fill="#6498F6"/>
<path d="M12 22C17.5228 22 22 17.5228 22 12C22 6.47715 17.5228 2 12 2C6.47715 2 2 6.47715 2 12C2 17.5228 6.47715 22 12 22Z" fill="#90B6F9"/>
<path d="M11.1366 15.1863L12.3186 10.6559L14.3566 10.2739L14.8714 8.3015L12.833 8.6835L13.9506 4.3999H11.1366L9.79819 9.2527L7.7458 9.6375L7.2002 11.6155L9.25219 11.2307L7.385 17.9999H16.2954L17.2334 15.1863H11.1366Z" fill="#206DF3"/>
<path d="M12 0C9.62663 0 7.30655 0.703788 5.33316 2.02236C3.35977 3.34094 1.8217 5.21508 0.913451 7.4078C0.00519953 9.60051 -0.232441 12.0133 0.230582 14.3411C0.693604 16.6689 1.83649 18.807 3.51472 20.4853C5.19295 22.1635 7.33115 23.3064 9.65892 23.7694C11.9867 24.2324 14.3995 23.9948 16.5922 23.0865C18.7849 22.1783 20.6591 20.6402 21.9776 18.6668C23.2962 16.6934 24 14.3734 24 12C23.9964 8.8185 22.731 5.76835 20.4813 3.51869C18.2317 1.26904 15.1815 0.00359958 12 0V0ZM12 21.6C10.1013 21.6 8.24524 21.037 6.66653 19.9821C5.08782 18.9272 3.85736 17.4279 3.13076 15.6738C2.40416 13.9196 2.21405 11.9893 2.58447 10.1271C2.95488 8.26491 3.86919 6.55436 5.21178 5.21177C6.55436 3.86919 8.26492 2.95488 10.1271 2.58446C11.9894 2.21404 13.9196 2.40415 15.6738 3.13076C17.4279 3.85736 18.9272 5.08781 19.9821 6.66652C21.037 8.24524 21.6 10.1013 21.6 12C21.597 14.5452 20.5847 16.9852 18.785 18.7849C16.9852 20.5847 14.5452 21.597 12 21.6ZM21.1968 7.152L21.8904 6.752C22.2251 7.37943 22.4989 8.03751 22.708 8.7172L21.9352 8.924C21.7447 8.31166 21.4975 7.71843 21.1968 7.152V7.152ZM20.7968 6.46C20.4547 5.91855 20.0634 5.40974 19.628 4.94L20.1936 4.3744C20.678 4.89438 21.112 5.45903 21.49 6.0608L20.7968 6.46ZM19.0624 4.3736C18.5927 3.9382 18.0838 3.54695 17.5424 3.2048L17.9424 2.5116C18.5442 2.88956 19.1088 3.32363 19.6288 3.808L19.0624 4.3736ZM16.848 2.8032C16.2817 2.50254 15.6886 2.25534 15.0764 2.0648L15.2832 1.292C15.9629 1.50111 16.621 1.7749 17.2484 2.1096L16.848 2.8032ZM14.3032 1.86C13.6779 1.71812 13.0408 1.63443 12.4 1.61V0.81C13.1106 0.835063 13.8171 0.927884 14.51 1.0872L14.3032 1.86ZM11.6 1.61C10.9592 1.63443 10.3221 1.71812 9.6968 1.86L9.49 1.0872C10.1829 0.927884 10.8895 0.835063 11.6 0.81V1.61ZM8.9236 2.0648C8.31141 2.25534 7.71831 2.50254 7.152 2.8032L6.752 2.1096C7.37931 1.77492 8.03725 1.50114 8.7168 1.292L8.9236 2.0648ZM6.46 3.2048C5.91856 3.54695 5.40975 3.9382 4.94 4.3736L4.3736 3.808C4.89358 3.32363 5.45823 2.88956 6.06 2.5116L6.46 3.2048ZM4.3736 4.9392C3.9382 5.40894 3.54695 5.91775 3.2048 6.4592L2.5116 6.0592C2.88957 5.45743 3.32364 4.89278 3.808 4.3728L4.3736 4.9392ZM2.8032 7.152C2.50255 7.7183 2.25535 8.3114 2.0648 8.9236L1.29201 8.7168C1.50112 8.03711 1.7749 7.37903 2.1096 6.7516L2.8032 7.152ZM1.86 9.6968C1.71812 10.3221 1.63443 10.9592 1.61 11.6H0.810005C0.835068 10.8894 0.927889 10.1829 1.08721 9.49L1.86 9.6968ZM1.61 12.4C1.63443 13.0408 1.71812 13.6779 1.86 14.3032L1.08721 14.51C0.927889 13.8171 0.835068 13.1105 0.810005 12.4H1.61ZM2.0648 15.0764C2.25535 15.6886 2.50255 16.2817 2.8032 16.848L2.1096 17.248C1.77493 16.6207 1.50114 15.9627 1.29201 15.2832L2.0648 15.0764ZM3.2048 17.54C3.54695 18.0814 3.9382 18.5903 4.3736 19.06L3.808 19.6264C3.32364 19.1064 2.88957 18.5418 2.5116 17.94L3.2048 17.54ZM4.9392 19.6264C5.40894 20.0618 5.91776 20.453 6.4592 20.7952L6.0592 21.4884C5.45743 21.1104 4.89278 20.6764 4.3728 20.192L4.9392 19.6264ZM7.152 21.1968C7.71831 21.4974 8.31141 21.7447 8.9236 21.9352L8.7168 22.708C8.03712 22.4989 7.37904 22.2251 6.7516 21.8904L7.152 21.1968ZM9.6968 22.14C10.3221 22.2819 10.9592 22.3656 11.6 22.39V23.19C10.8895 23.1649 10.1829 23.0721 9.49 22.9128L9.6968 22.14ZM12.4 22.39C13.0408 22.3656 13.6779 22.2819 14.3032 22.14L14.51 22.9128C13.8171 23.0721 13.1106 23.1649 12.4 23.19V22.39ZM15.0764 21.9352C15.6886 21.7447 16.2817 21.4974 16.848 21.1968L17.248 21.8904C16.6206 22.2251 15.9625 22.4989 15.2828 22.708L15.0764 21.9352ZM17.54 20.7952C18.0814 20.453 18.5903 20.0618 19.06 19.6264L19.6256 20.192C19.1056 20.6764 18.541 21.1104 17.9392 21.4884L17.54 20.7952ZM19.6264 19.0608C20.0618 18.5911 20.4531 18.0822 20.7952 17.5408L21.4884 17.9408C21.1104 18.5426 20.6764 19.1072 20.192 19.6272L19.6264 19.0608ZM21.1968 16.848C21.4975 16.2817 21.7447 15.6886 21.9352 15.0764L22.708 15.2832C22.4989 15.9629 22.2251 16.621 21.8904 17.2484L21.1968 16.848ZM22.14 14.3032C22.2819 13.6779 22.3656 13.0408 22.39 12.4H23.19C23.1649 13.1105 23.0721 13.8171 22.9128 14.51L22.14 14.3032ZM22.39 11.6C22.3656 10.9592 22.2819 10.3221 22.14 9.6968L22.9128 9.49C23.0721 10.1829 23.1649 10.8894 23.19 11.6H22.39Z" fill="#0444B7"/>
<path d="M17.233 14.786H11.6542L12.6398 11.0024L14.4286 10.6668C14.5032 10.6528 14.5722 10.6179 14.6276 10.5662C14.6831 10.5145 14.7227 10.4481 14.7418 10.3748L15.2566 8.4024C15.2736 8.33719 15.2739 8.26874 15.2573 8.20341C15.2408 8.13808 15.208 8.07798 15.1621 8.0287C15.1161 7.97942 15.0584 7.94256 14.9944 7.92153C14.9304 7.90049 14.8621 7.89598 14.7958 7.9084L13.3774 8.1744L14.3374 4.5008C14.3529 4.44161 14.3545 4.37968 14.3422 4.31977C14.33 4.25985 14.3041 4.20354 14.2667 4.15518C14.2292 4.10681 14.1812 4.06767 14.1263 4.04077C14.0714 4.01387 14.011 3.99992 13.9498 4H11.1362C11.0487 4 10.9636 4.02872 10.8939 4.08175C10.8243 4.13479 10.7739 4.20921 10.7506 4.2936L9.47985 8.9056L7.67305 9.2444C7.5994 9.25818 7.5311 9.29238 7.47594 9.34308C7.42078 9.39379 7.38097 9.45897 7.36105 9.5312L6.81545 11.5092C6.79739 11.5746 6.79627 11.6436 6.8122 11.7095C6.82814 11.7755 6.8606 11.8363 6.90653 11.8863C6.95246 11.9363 7.01034 11.9737 7.07474 11.9952C7.13914 12.0166 7.20793 12.0213 7.27465 12.0088L8.69704 11.742L6.99985 17.8936C6.98348 17.9529 6.98101 18.0152 6.99265 18.0756C7.00429 18.1361 7.02972 18.193 7.06695 18.242C7.10418 18.291 7.15222 18.3308 7.20732 18.3582C7.26242 18.3856 7.32311 18.3999 7.38465 18.4H16.295C16.379 18.4 16.4609 18.3736 16.529 18.3245C16.5972 18.2754 16.6481 18.2061 16.6746 18.1264L17.6122 15.3128C17.6323 15.2527 17.6379 15.1886 17.6283 15.126C17.6188 15.0633 17.5946 15.0038 17.5575 14.9523C17.5205 14.9009 17.4717 14.859 17.4153 14.83C17.3589 14.8011 17.2964 14.786 17.233 14.786ZM16.0066 17.6H7.90984L9.63744 11.3372C9.6555 11.2718 9.65662 11.2028 9.64069 11.1369C9.62475 11.0709 9.59229 11.01 9.54636 10.9601C9.50044 10.9101 9.44255 10.8726 9.37815 10.8512C9.31375 10.8298 9.24496 10.8251 9.17824 10.8376L7.75584 11.1044L8.06465 9.9844L9.87145 9.646C9.94502 9.63214 10.0132 9.59792 10.0683 9.54722C10.1234 9.49652 10.1632 9.43137 10.183 9.3592L11.4398 4.8H13.431L12.4442 8.5828C12.4273 8.64801 12.427 8.71646 12.4435 8.78179C12.4601 8.84712 12.4929 8.90722 12.5388 8.95649C12.5848 9.00577 12.6425 9.04264 12.7065 9.06367C12.7705 9.0847 12.8388 9.08922 12.905 9.0768L14.3234 8.8108L14.0322 9.9272L12.2434 10.2628C12.1688 10.2767 12.0997 10.3117 12.0442 10.3634C11.9886 10.4152 11.949 10.4817 11.9298 10.5552L10.7494 15.0852C10.734 15.1443 10.7324 15.2062 10.7446 15.266C10.7568 15.3259 10.7826 15.3822 10.82 15.4305C10.8573 15.4789 10.9052 15.518 10.9601 15.545C11.0149 15.5719 11.0752 15.586 11.1362 15.586H16.6798L16.0066 17.6Z" fill="#0444B7"/>
<path d="M96 24.2791C102.627 24.2791 108 18.844 108 12.1395C108 5.43505 102.627 0 96 0C89.3726 0 84 5.43505 84 12.1395C84 18.844 89.3726 24.2791 96 24.2791Z" fill="#0388E5"/>
<path fill-rule="evenodd" clip-rule="evenodd" d="M91.7719 7.87183L91.1029 9.90254H99.2986C99.2986 9.90254 100.302 9.72235 99.9676 10.7486C99.6335 11.7749 98.87 13.9004 98.7967 14.1332C98.7235 14.3659 98.5459 14.4716 98.1277 14.4716H89.5969L88.761 16.5023H99.4656C99.8001 16.5023 100.981 16.4811 101.64 14.6408C102.298 12.8004 103.385 9.7764 103.312 9.05638C103.26 8.53817 103.177 7.87183 101.64 7.87183H91.7719ZM94.4481 11.2563L93.7791 13.1178H88.5938L89.2627 11.2563H94.4478H94.4481Z" fill="white"/>
<path d="M124 0C130.628 0 136 5.37305 136 12C136 18.628 130.628 24 124 24C117.373 24 112 18.6275 112 12C112 5.37305 117.373 0 124 0Z" fill="#F5AC37"/>
<path d="M124.442 12.8471H129.002C129.099 12.8471 129.145 12.8471 129.152 12.7197C129.189 12.2558 129.189 11.7893 129.152 11.3248C129.152 11.2347 129.107 11.1974 129.01 11.1974H119.935C119.822 11.1974 119.792 11.2347 119.792 11.34V12.6749C119.792 12.8471 119.792 12.8471 119.972 12.8471H124.442V12.8471ZM128.643 9.63733C128.656 9.60331 128.656 9.56605 128.643 9.53257C128.567 9.36679 128.477 9.20857 128.372 9.06007C128.214 8.80626 128.028 8.57244 127.817 8.36238C127.717 8.23548 127.601 8.12154 127.472 8.02488C126.823 7.47245 126.051 7.08149 125.221 6.88492C124.803 6.79096 124.375 6.74614 123.946 6.74992H119.919C119.807 6.74992 119.792 6.79474 119.792 6.89248V9.55471C119.792 9.66703 119.792 9.69727 119.934 9.69727H128.589C128.589 9.69727 128.664 9.68215 128.679 9.63733H128.642H128.643ZM128.643 14.4072C128.515 14.3932 128.387 14.3932 128.259 14.4072H119.942C119.83 14.4072 119.792 14.4072 119.792 14.5573V17.1601C119.792 17.28 119.792 17.3103 119.942 17.3103H123.782C123.966 17.3243 124.15 17.3113 124.329 17.273C124.887 17.233 125.435 17.1121 125.957 16.9128C126.148 16.8469 126.331 16.7611 126.504 16.6579H126.557C127.457 16.1898 128.188 15.4543 128.649 14.5514C128.649 14.5514 128.702 14.438 128.643 14.4083V14.4072ZM118.285 18.6597V18.6149V16.8675V16.2751V14.5125C118.285 14.4148 118.285 14.4002 118.165 14.4002H116.538C116.447 14.4002 116.41 14.4002 116.41 14.2803V12.8552H118.15C118.247 12.8552 118.285 12.8552 118.285 12.7278V11.3178C118.285 11.2276 118.285 11.2055 118.165 11.2055H116.538C116.447 11.2055 116.41 11.2055 116.41 11.0856V9.76585C116.41 9.68323 116.41 9.66109 116.53 9.66109H118.142C118.255 9.66109 118.285 9.66109 118.285 9.51853V5.47605C118.285 5.35617 118.285 5.32593 118.435 5.32593H124.06C124.468 5.34213 124.874 5.38695 125.275 5.46093C126.102 5.61375 126.896 5.90913 127.622 6.33088C128.104 6.61438 128.547 6.95674 128.942 7.35095C129.239 7.65929 129.507 7.99302 129.745 8.34834C129.98 8.70852 130.177 9.09355 130.33 9.49585C130.349 9.60061 130.45 9.67135 130.555 9.65353H131.897C132.069 9.65353 132.069 9.65353 132.077 9.81877V11.0489C132.077 11.1688 132.032 11.199 131.912 11.199H130.876C130.772 11.199 130.741 11.199 130.749 11.334C130.79 11.7909 130.79 12.2493 130.749 12.7062C130.749 12.8336 130.749 12.8487 130.892 12.8487H132.076C132.129 12.9162 132.076 12.9837 132.076 13.0518C132.084 13.1387 132.084 13.2267 132.076 13.3137V14.2214C132.076 14.3489 132.039 14.3867 131.926 14.3867H130.509C130.41 14.3678 130.314 14.431 130.291 14.5292C129.953 15.4067 129.413 16.1935 128.716 16.8243C128.461 17.0538 128.193 17.2698 127.913 17.469C127.613 17.6418 127.321 17.8217 127.013 17.9642C126.447 18.2191 125.853 18.407 125.243 18.5264C124.664 18.63 124.077 18.677 123.488 18.6689H118.283V18.6614L118.285 18.6597Z" fill="#FEFEFD"/>
<path d="M180 24C186.627 24 192 18.6274 192 12C192 5.37258 186.627 0 180 0C173.373 0 168 5.37258 168 12C168 18.6274 173.373 24 180 24Z" fill="#0AC18E"/>
<path d="M183.743 7.97058C183.14 6.60307 181.754 6.31068 180.058 6.59393L179.513 4.48022L178.228 4.8122L178.764 6.91982C178.425 7.0051 178.078 7.07819 177.734 7.17566L177.198 5.08022L175.913 5.4122L176.458 7.52591C176.181 7.6051 173.863 8.19901 173.863 8.19901L174.216 9.57566C174.216 9.57566 175.16 9.31068 175.151 9.332C175.675 9.19494 175.922 9.45687 176.038 9.70357L177.536 15.4965C177.554 15.664 177.524 15.9503 177.165 16.0477C177.186 16.0599 176.23 16.2883 176.23 16.2883L176.37 17.8934C176.37 17.8934 178.666 17.3056 178.968 17.2295L179.519 19.3675L180.804 19.0356L180.253 16.8823C180.606 16.8 180.95 16.7147 181.285 16.6264L181.834 18.7675L183.119 18.4356L182.568 16.3005C184.547 15.8193 185.945 14.5706 185.659 12.6609C185.476 11.5097 184.218 10.5655 183.174 10.4589C183.816 9.88936 184.142 9.05789 183.743 7.97058ZM183.125 13.0112C183.381 14.9026 180.752 15.134 179.884 15.3625L179.129 12.533C180 12.3046 182.692 11.3452 183.125 13.0112ZM181.541 9.1584C181.812 10.8396 179.565 11.0345 178.84 11.2203L178.151 8.65281C178.879 8.47312 180.99 7.60205 181.541 9.1584Z" fill="white"/>
<path d="M152 24C158.627 24 164 18.6274 164 12C164 5.37258 158.627 0 152 0C145.373 0 140 5.37258 140 12C140 18.6274 145.373 24 152 24Z" fill="#ACB7DD"/>
<path fill-rule="evenodd" clip-rule="evenodd" d="M152.019 2.15625L146 12.1538L152.019 15.7298L158 12.1538L152.019 2.15625ZM146 13.3458L152.019 16.8834L158 13.3458L152.019 21.8438L146 13.3458Z" fill="#828384"/>
<path fill-rule="evenodd" clip-rule="evenodd" d="M152.019 15.7068V2.15625L157.983 12.1255L152.019 15.7068ZM157.963 13.3589L152.019 21.8438V16.899L157.963 13.3589Z" fill="#2F3030"/>
<path opacity="0.8" fill-rule="evenodd" clip-rule="evenodd" d="M152.019 9.46216L146 12.1538L152.019 15.7298L158 12.1538L152.019 9.46216Z" fill="#131313"/>
</svg>
