<svg width="48" height="49" viewBox="0 0 48 49" fill="none" xmlns="http://www.w3.org/2000/svg">
<path d="M47.5 24.5C47.5 37.4787 36.9787 48 24 48C11.0213 48 0.5 37.4787 0.5 24.5C0.5 11.5213 11.0213 1 24 1C36.9787 1 47.5 11.5213 47.5 24.5Z" stroke="black"/>
<g clip-path="url(#clip0_1579_5988)">
<path d="M34.8625 20.0542L30.4167 15.6083C30.2333 15.425 29.9583 15.425 29.775 15.6083L28.2167 17.1667C27.9875 17.3958 27.7583 17.5333 27.4833 17.6708L26.475 17.3958C25.5583 17.1667 24.5958 17.2125 23.725 17.5333C23.1292 17.7625 22.5792 18.0833 22.1208 18.5417C21.8917 18.45 21.6625 18.4042 21.4792 18.3583C20.8375 18.2667 20.2417 17.9458 19.7833 17.4875L18.225 15.9292C18.1333 15.8375 18.0417 15.7917 17.9042 15.7917C17.7667 15.7917 17.675 15.8375 17.5833 15.9292L13.1375 20.375C12.9542 20.5583 12.9542 20.8333 13.1375 21.0167L14.6958 22.575C15.1542 23.0333 15.475 23.6292 15.5667 24.2708C15.6583 24.775 15.8417 25.2792 16.0708 25.6917L15.5208 26.3333C14.9708 27.0208 15.0625 28.0292 15.75 28.5792C16.025 28.8083 16.3917 28.9458 16.7583 28.9458C16.8042 28.9458 16.85 28.9458 16.9417 28.9458C16.9875 29.3583 17.1708 29.7708 17.5375 30.0458C17.8125 30.275 18.1792 30.4125 18.5458 30.4125C18.5917 30.4125 18.6375 30.4125 18.7292 30.4125C18.775 30.825 18.9583 31.2375 19.325 31.5125C19.6 31.7417 19.9667 31.8792 20.3333 31.8792C20.3792 31.8792 20.425 31.8792 20.5167 31.8792C20.5625 32.2917 20.7458 32.6583 21.1125 32.9333C21.3875 33.1625 21.7542 33.3 22.1208 33.3C22.4875 33.3 22.8542 33.1625 23.1292 32.9333L23.3125 33.1167C23.6333 33.4375 24.0917 33.6208 24.5042 33.6208C24.8708 33.6208 25.2375 33.4833 25.5583 33.2083C25.8333 32.9333 26.0167 32.6125 26.0625 32.2458C26.1542 32.2458 26.2458 32.2917 26.3375 32.2917C26.75 32.2917 27.1625 32.1083 27.4375 31.8333C27.6208 31.65 27.7583 31.4667 27.8042 31.2375C28.0792 31.4208 28.4 31.5125 28.7208 31.5125C29.1333 31.5125 29.5458 31.375 29.8208 31.0542C30.1417 30.7333 30.2792 30.3208 30.2792 29.9083C30.2792 29.9083 30.2792 29.9083 30.325 29.9083C30.6917 29.9083 31.0583 29.7708 31.3792 29.4958C31.7 29.2208 31.8833 28.8083 31.8833 28.35C31.8833 27.9375 31.7458 27.4792 31.425 27.2042L30.9667 26.7458L31.4708 26.2417C32.0667 25.6458 32.4792 24.8667 32.6167 24.0417C32.7083 23.4 33.0292 22.8042 33.4875 22.3458L35.0458 20.7875C35.0458 20.5125 35.0458 20.2375 34.8625 20.0542ZM16.3458 27.8917C16.0708 27.6625 16.025 27.25 16.2542 26.975L17.6292 25.325C17.7667 25.1875 17.95 25.0958 18.1333 25.0958C18.2708 25.0958 18.4542 25.1417 18.5458 25.2333C18.8208 25.4625 18.8667 25.875 18.6375 26.15L17.2625 27.8C17.0792 28.075 16.6208 28.1208 16.3458 27.8917ZM18.0875 29.3125C17.8125 29.0833 17.7667 28.6708 17.9958 28.3958L19.3708 26.7458L20.1042 25.875C20.2417 25.7375 20.425 25.6458 20.6083 25.6458C20.7458 25.6458 20.9292 25.6917 21.0208 25.7833C21.1583 25.875 21.25 26.0583 21.25 26.2417C21.25 26.425 21.2042 26.6083 21.1125 26.7458L20.8833 27.0208L19.05 29.2667C18.8208 29.4958 18.3625 29.5417 18.0875 29.3125ZM19.8292 30.7792C19.6917 30.6875 19.6 30.5042 19.6 30.3208C19.6 30.1375 19.6458 29.9542 19.7375 29.8167L21.5708 27.5708C21.7083 27.4333 21.8917 27.3417 22.075 27.3417C22.2125 27.3417 22.3958 27.3875 22.4875 27.4792C22.625 27.5708 22.7167 27.7542 22.7167 27.9375C22.7167 28.1208 22.6708 28.3042 22.5792 28.4417L20.7458 30.6875C20.5625 30.9167 20.1042 30.9625 19.8292 30.7792ZM21.5708 32.2C21.4333 32.1083 21.3417 31.925 21.3417 31.7417C21.3417 31.5583 21.3875 31.375 21.4792 31.2375L22.8542 29.5875C22.9917 29.45 23.175 29.3583 23.3583 29.3583C23.4958 29.3583 23.6792 29.4042 23.7708 29.4958C23.9083 29.5875 24 29.7708 24 29.9542C24 30.1375 23.9542 30.3208 23.8625 30.4583L22.4875 32.1083C22.3042 32.3833 21.8458 32.4292 21.5708 32.2ZM24.7792 32.475C24.5042 32.7042 24.0917 32.6583 23.8167 32.3833L23.6333 32.2L24.4583 31.1458L24.825 31.5125C24.9625 31.65 25.0083 31.8333 25.0083 32.0167C25.0083 32.1542 24.9167 32.3375 24.7792 32.475ZM30.6458 28.7167C30.3708 28.9458 29.9583 28.9 29.6833 28.625L24.9625 23.95C24.7792 23.7667 24.5042 23.7667 24.3208 23.95C24.1375 24.1333 24.1375 24.4083 24.3208 24.5917L29.0417 29.3125L29.0875 29.3583C29.3625 29.6333 29.3625 30.0458 29.0875 30.3208C28.8125 30.5958 28.4 30.5958 28.125 30.3208L26.3375 28.5333L23.3583 25.5542C23.175 25.3708 22.9 25.3708 22.7167 25.5542C22.5333 25.7375 22.5333 26.0125 22.7167 26.1958L25.6958 29.175L26.7042 30.1833C26.8417 30.3208 26.8875 30.4583 26.8875 30.6417C26.8875 30.825 26.7958 31.0083 26.7042 31.1C26.4292 31.375 26.0167 31.375 25.7417 31.1L24.9167 30.275C24.9625 30.1375 24.9625 30 24.9625 29.8167C24.9167 29.4042 24.7333 29.0375 24.3667 28.7625C24.1375 28.5792 23.9083 28.4875 23.6333 28.4417C23.6792 28.2583 23.725 28.0292 23.6792 27.8458C23.6333 27.4333 23.45 27.0667 23.0833 26.7917C22.8083 26.5625 22.4875 26.4708 22.1667 26.425C22.1667 26.3333 22.1667 26.2417 22.1667 26.15C22.1208 25.7375 21.9375 25.3708 21.5708 25.0958C21.2958 24.8667 20.9292 24.7292 20.5625 24.7292C20.1958 24.7292 19.8292 24.8667 19.5542 25.0958C19.4625 24.8667 19.325 24.6833 19.1417 24.5C18.8667 24.2708 18.5 24.1333 18.1333 24.1333C17.675 24.1333 17.2167 24.3625 16.8958 24.7292L16.7125 24.9583C16.575 24.6833 16.5292 24.4083 16.4833 24.1333C16.3458 23.3083 15.9333 22.5292 15.3375 21.9333L14.1 20.6958L17.9042 16.8917L19.1417 18.1292C19.7375 18.725 20.5167 19.1375 21.3417 19.275L19.5083 20.9708C19.2333 21.2 19.0958 21.5667 19.0958 21.8875C19.0958 22.2542 19.2333 22.575 19.4625 22.85C19.875 23.3083 20.5167 23.4 21.0667 23.125L23.2208 22.025C23.5417 21.8875 23.8625 21.7958 24.2292 21.8875C24.55 21.9333 24.825 22.0708 25.0542 22.3L30.7375 27.8C30.875 27.9375 30.9208 28.1208 30.9208 28.3042C30.875 28.4417 30.7833 28.625 30.6458 28.7167ZM32.6625 21.5667C32.0667 22.1625 31.6542 22.9417 31.5167 23.7667C31.425 24.4083 31.1042 25.0042 30.6458 25.4625L30.1417 25.9667L25.6042 21.5667C25.2375 21.2 24.825 21.0167 24.3208 20.925C23.7708 20.8333 23.2208 20.925 22.7167 21.1542L20.5625 22.2542C20.3792 22.3458 20.1958 22.3 20.0583 22.1625C19.9667 22.0708 19.9208 21.9792 19.9667 21.8417C19.9667 21.7042 20.0125 21.6125 20.1042 21.5667L22.7625 19.1375C23.1292 18.7708 23.5875 18.4958 24.0917 18.3125C24.825 18.0375 25.5583 18.0375 26.2917 18.2208L27.3 18.4958C27.3458 18.4958 27.3458 18.4958 27.3917 18.4958C27.5292 18.5875 27.6667 18.5875 27.8042 18.4958C28.2167 18.3125 28.5833 18.0375 28.9042 17.7167L30.1417 16.4792L33.9458 20.2833L32.6625 21.5667Z" fill="black"/>
</g>
<defs>
<clipPath id="clip0_1579_5988">
<rect width="22" height="22" fill="white" transform="translate(13 13.5)"/>
</clipPath>
</defs>
</svg>
