<svg width="48" height="48" viewBox="0 0 48 48" fill="none" xmlns="http://www.w3.org/2000/svg">
<circle cx="24" cy="24" r="23.5" stroke="black"/>
<path fill-rule="evenodd" clip-rule="evenodd" d="M25.9877 13.3372C26.1346 13.4186 26.4182 13.6187 26.4182 13.988V18.3772C26.4182 18.7465 26.1346 18.9466 25.9877 19.028C25.8148 19.1238 25.6023 19.1872 25.3947 19.232C24.9709 19.3233 24.4297 19.3652 23.906 19.3652C23.3823 19.3652 22.8411 19.3233 22.4173 19.232C22.2097 19.1872 21.9972 19.1238 21.8243 19.028C21.6774 18.9466 21.3938 18.7465 21.3938 18.3772V13.988C21.3938 13.6187 21.6774 13.4186 21.8243 13.3372C21.9972 13.2413 22.2097 13.1779 22.4173 13.1332C22.8411 13.0418 23.3823 13 23.906 13C24.4297 13 24.9709 13.0418 25.3947 13.1332C25.6023 13.1779 25.8148 13.2413 25.9877 13.3372ZM22.2898 14.2239C22.2895 14.2239 22.2918 14.222 22.2976 14.2185C22.2929 14.2222 22.2901 14.224 22.2898 14.2239ZM22.3938 14.1751C22.4496 14.155 22.5267 14.1326 22.628 14.1108C22.9587 14.0395 23.4236 14 23.906 14C24.3884 14 24.8533 14.0395 25.184 14.1108C25.2853 14.1326 25.3624 14.155 25.4182 14.1751V18.19C25.3624 18.2101 25.2853 18.2326 25.184 18.2544C24.8533 18.3257 24.3884 18.3652 23.906 18.3652C23.4236 18.3652 22.9587 18.3257 22.628 18.2544C22.5267 18.2326 22.4496 18.2101 22.3938 18.19V14.1751ZM22.2898 18.1413C22.2901 18.1412 22.2929 18.143 22.2976 18.1467C22.2918 18.1431 22.2895 18.1413 22.2898 18.1413ZM25.5222 18.1413C25.5225 18.1413 25.5202 18.1431 25.5144 18.1467C25.519 18.143 25.5219 18.1412 25.5222 18.1413ZM25.5222 14.2239C25.5219 14.224 25.519 14.2222 25.5144 14.2185C25.5202 14.222 25.5225 14.2239 25.5222 14.2239ZM14.8752 16.3541C14.8846 16.3536 14.8941 16.3533 14.9036 16.3533H20.3057C20.5818 16.3533 20.8057 16.5772 20.8057 16.8533C20.8057 17.1295 20.5818 17.3533 20.3057 17.3533H14.9187C14.3822 17.3875 13.8804 17.6311 13.5218 18.032C13.1601 18.4363 12.9736 18.9675 13.003 19.5091C13.0035 19.5182 13.0038 19.5272 13.0038 19.5362V31.6094C13.0038 31.6184 13.0035 31.6275 13.003 31.6365C12.9736 32.1781 13.1601 32.7093 13.5218 33.1136C13.8804 33.5145 14.3822 33.7582 14.9186 33.7923H32.8937C33.4302 33.7582 33.9319 33.5145 34.2906 33.1136C34.6522 32.7093 34.8387 32.1781 34.8093 31.6365C34.8088 31.6275 34.8086 31.6184 34.8086 31.6094V19.5362C34.8086 19.5272 34.8088 19.5182 34.8093 19.5091C34.8387 18.9675 34.6522 18.4363 34.2906 18.032C33.9319 17.6311 33.4302 17.3875 32.8937 17.3533H27.5067C27.2305 17.3533 27.0067 17.1295 27.0067 16.8533C27.0067 16.5772 27.2305 16.3533 27.5067 16.3533H32.9087C32.9182 16.3533 32.9277 16.3536 32.9372 16.3541C33.743 16.4001 34.4978 16.7638 35.0359 17.3654C35.5709 17.9634 35.8484 18.7481 35.8086 19.5492V31.5964C35.8484 32.3975 35.5709 33.1822 35.0359 33.7803C34.4978 34.3819 33.743 34.7455 32.9372 34.7915C32.9277 34.792 32.9182 34.7923 32.9087 34.7923H14.9036C14.8941 34.7923 14.8846 34.792 14.8752 34.7915C14.0693 34.7455 13.3146 34.3819 12.7764 33.7803C12.2415 33.1822 11.964 32.3975 12.0038 31.5964V19.5492C11.964 18.7481 12.2415 17.9634 12.7764 17.3654C13.3146 16.7638 14.0693 16.4001 14.8752 16.3541ZM22.3235 23.4564C22.7754 23.0923 23.3383 22.8937 23.9187 22.8937C24.4991 22.8937 25.062 23.0923 25.5139 23.4564C25.9659 23.8206 26.2796 24.3284 26.403 24.8955C26.5264 25.4626 26.4521 26.0549 26.1924 26.5739C25.9326 27.0929 25.5032 27.5075 24.9753 27.7487C24.7715 27.8418 24.6545 28.0591 24.689 28.2804C24.7235 28.5018 24.9011 28.6732 25.1235 28.6999C25.7134 28.7706 26.2963 28.891 26.8659 29.0597C27.0687 29.1245 27.256 29.2302 27.4164 29.3701C27.578 29.511 27.7087 29.6836 27.8006 29.8772L27.8005 29.8773L27.8045 29.8853C28.0484 30.3766 28.1915 30.9118 28.2255 31.4593C28.2426 31.7349 28.4798 31.9444 28.7554 31.9274C29.0311 31.9103 29.2406 31.673 29.2235 31.3974C29.1814 30.7182 29.0041 30.0542 28.7021 29.4445C28.5515 29.1285 28.3376 28.8467 28.0738 28.6165C27.8088 28.3853 27.499 28.2112 27.1638 28.1051L27.1638 28.105L27.155 28.1024C26.9212 28.033 26.6853 27.9711 26.4477 27.9167C26.7042 27.6552 26.9204 27.3537 27.0867 27.0214C27.4485 26.2983 27.5521 25.473 27.3801 24.6829C27.2082 23.8927 26.7711 23.1852 26.1414 22.6778C25.5117 22.1704 24.7274 21.8937 23.9187 21.8937C23.1101 21.8937 22.3257 22.1704 21.6961 22.6778C21.0664 23.1852 20.6293 23.8927 20.4573 24.6829C20.2854 25.473 20.3889 26.2983 20.7508 27.0214C20.9166 27.3527 21.1319 27.6534 21.3874 27.9143C21.1427 27.9699 20.8999 28.0336 20.6592 28.1052L20.6592 28.1051L20.6519 28.1074C20.3159 28.213 20.0053 28.3869 19.7396 28.6182C19.4751 28.8485 19.2607 29.1307 19.1098 29.4472C18.808 30.057 18.6307 30.7208 18.5884 31.3999C18.5713 31.6755 18.7808 31.9129 19.0564 31.93C19.332 31.9472 19.5693 31.7377 19.5865 31.4621C19.6206 30.9145 19.7637 30.3793 20.0076 29.8879L20.0076 29.8879L20.0114 29.8799C20.1033 29.6861 20.2343 29.5133 20.3961 29.3725C20.557 29.2324 20.745 29.1269 20.9483 29.0625C21.5248 28.8912 22.1151 28.7699 22.7125 28.7001C22.9353 28.674 23.1134 28.5028 23.1483 28.2812C23.1832 28.0596 23.0662 27.8419 22.8622 27.7487C22.3343 27.5075 21.9048 27.0929 21.6451 26.5739C21.3854 26.0549 21.311 25.4626 21.4344 24.8955C21.5579 24.3284 21.8716 23.8206 22.3235 23.4564Z" fill="black"/>
</svg>
