<svg width="49" height="49" viewBox="0 0 49 49" fill="none" xmlns="http://www.w3.org/2000/svg">
<circle cx="24.5" cy="24.5" r="23.5" stroke="black"/>
<path d="M35.4956 35.2052L35.3108 33.8053C35.3101 33.7999 35.3093 33.7945 35.3084 33.789C35.1095 32.5828 34.2639 31.5074 32.795 30.5927C31.322 29.6753 29.6382 29.1864 28.7655 28.9766C28.0484 28.8042 27.5581 28.4809 27.3083 28.0157C26.886 27.2293 27.2375 26.2399 27.2416 26.2284C27.2542 26.1943 27.2628 26.1597 27.2678 26.125C27.9156 25.4823 28.4885 24.5001 28.8399 23.0282C29.7654 23.025 30.5298 22.1965 30.5298 21.1785V19.2626C30.5298 18.3813 29.9539 17.6374 29.2022 17.4525C28.9946 15.2425 27.0563 13.5 24.7182 13.5H24.1723C21.8343 13.5 19.8996 15.2425 19.692 17.4525C18.9403 17.6375 18.368 18.3814 18.368 19.2626V21.1785C18.368 22.1965 19.1287 23.025 20.0543 23.0282C20.4083 24.51 20.9785 25.4951 21.6318 26.1377C21.6365 26.1542 21.6442 26.1707 21.6506 26.1871C21.6542 26.1964 22.0032 27.1334 21.6008 27.9158C21.341 28.4211 20.8085 28.7784 20.017 28.9779C18.5286 29.353 17.1343 29.9319 16.0903 30.6078C14.6926 31.5128 13.8831 32.5832 13.6843 33.7891C13.6833 33.7954 13.6824 33.8017 13.6816 33.8079L13.5041 35.2078C13.4686 35.4878 13.6668 35.7436 13.9467 35.7791C13.9686 35.7818 13.9902 35.7832 14.0117 35.7832C14.2653 35.7832 14.4852 35.5946 14.518 35.3365L14.6943 33.9464C15.0286 31.9655 17.7909 30.5931 20.2673 29.969C21.356 29.6946 22.1108 29.1611 22.5108 28.3833C22.7665 27.886 22.83 27.3699 22.8153 26.9315C23.3684 27.1663 23.9312 27.2478 24.4453 27.2478C24.9618 27.2478 25.5279 27.1655 26.0839 26.9279C26.061 27.3956 26.1204 27.9589 26.403 28.4901C26.7953 29.2278 27.5098 29.7259 28.5266 29.9703C30.9811 30.5605 33.9633 31.9559 34.2987 33.9477L34.4823 35.339C34.5163 35.5961 34.7358 35.7832 34.9883 35.7832C35.0106 35.7832 35.0331 35.7818 35.0558 35.7788C35.3356 35.7417 35.5325 35.485 35.4956 35.2052ZM24.1723 14.522H24.7182C26.4745 14.522 27.9292 15.7995 28.1553 17.4347H20.7353C20.9615 15.7995 22.4161 14.522 24.1723 14.522ZM19.39 21.1785V19.2626C19.39 18.806 19.7039 18.4567 20.0684 18.4567H28.8221C29.1867 18.4567 29.5077 18.806 29.5077 19.2626V21.1785C29.5077 21.635 29.1866 21.9826 28.8221 21.9826H25.9564C25.8702 21.9826 25.7842 21.9368 25.7264 21.8401L25.5487 21.5489C25.3067 21.1446 24.8973 20.9095 24.4526 20.9095C24.4506 20.9095 24.4486 20.9095 24.4467 20.9095C23.9991 20.9095 23.5889 21.1575 23.3492 21.5666L23.1843 21.8365C23.1264 21.9353 23.0396 21.9826 22.9522 21.9826H20.0684C19.7039 21.9826 19.39 21.635 19.39 21.1785ZM22.1253 25.1494C21.6938 24.6277 21.356 23.9244 21.1174 23.0046H22.9522C23.4065 23.0046 23.823 22.7685 24.0663 22.3531L24.2312 22.0775C24.2881 21.9803 24.3664 21.9295 24.4516 21.9291C24.5357 21.9289 24.6145 21.9827 24.6718 22.0785L24.8496 22.3643C25.0938 22.7723 25.5076 23.0047 25.9565 23.0047H27.7735C27.5336 23.9245 27.1934 24.6359 26.7586 25.1583C26.1673 25.8686 25.4106 26.2139 24.4454 26.2139C23.4766 26.2139 22.7177 25.8657 22.1253 25.1494Z" fill="black"/>
</svg>
