<svg width="49" height="49" viewBox="0 0 49 49" fill="none" xmlns="http://www.w3.org/2000/svg">
<circle cx="24.2457" cy="24.5" r="23.5" stroke="black"/>
<path d="M30.4184 18.1495H24.9129C24.6407 18.1495 24.42 18.3702 24.42 18.6418C24.42 18.914 24.64 19.1347 24.9129 19.1347H30.4184C30.6907 19.1347 30.9114 18.9147 30.9114 18.6418C30.9114 18.3702 30.69 18.1495 30.4184 18.1495Z" fill="black"/>
<path d="M30.4183 21.387H19.848C19.5764 21.387 19.3557 21.6077 19.3557 21.8792C19.3557 22.1515 19.5764 22.3722 19.848 22.3722H30.4183C30.6905 22.3722 30.9112 22.1522 30.9112 21.8792C30.9112 21.6077 30.6898 21.387 30.4183 21.387Z" fill="black"/>
<path d="M30.4183 24.623H19.848C19.5764 24.623 19.3557 24.8437 19.3557 25.1153C19.3557 25.3875 19.5764 25.6082 19.848 25.6082H30.4183C30.6905 25.6082 30.9112 25.3882 30.9112 25.1153C30.9112 24.8437 30.6898 24.623 30.4183 24.623Z" fill="black"/>
<path d="M31.5568 13.5H18.7109C17.6446 13.5 16.7769 14.3669 16.7769 15.4326V29.5875C16.0681 26.6072 15.1132 22.6066 14.3624 19.4929C14.1734 18.7051 14.1906 18.1166 14.4133 17.834C14.5549 17.6552 14.8155 17.5638 15.1881 17.5638H15.5181C15.7904 17.5638 16.0111 17.3431 16.0111 17.0709C16.0111 16.7986 15.7911 16.5793 15.5188 16.5793H15.1888C14.4986 16.5793 13.9774 16.7966 13.6406 17.2249C13.2095 17.7728 13.1318 18.5902 13.4054 19.7246C14.7729 25.3972 16.8189 34.0274 16.8189 34.0274C16.8189 34.0274 16.8725 34.3333 17.1076 34.6399C17.4534 35.1576 18.0419 35.5 18.7109 35.5H31.5575C32.6238 35.5 33.4914 34.6324 33.4914 33.5654V15.4326C33.4908 14.3669 32.6231 13.5 31.5568 13.5ZM32.5049 33.5654C32.5049 34.0893 32.0793 34.5148 31.5568 34.5148H18.7109C18.1877 34.5148 17.7628 34.0893 17.7628 33.5654V15.4326C17.7628 14.9101 18.1877 14.4852 18.7109 14.4852H31.5575C32.08 14.4852 32.5056 14.9101 32.5056 15.4326V33.5654H32.5049Z" fill="black"/>
<path d="M19.848 20.3083H23.2181C23.4903 20.3083 23.711 20.0877 23.711 19.8161V16.437C23.711 16.1648 23.491 15.9441 23.2181 15.9441H19.848C19.5764 15.9441 19.3557 16.1648 19.3557 16.437V19.8161C19.3557 20.0877 19.5764 20.3083 19.848 20.3083ZM20.3409 19.3238V16.9293H22.7265V19.3232H20.3409V19.3238Z" fill="black"/>
<path d="M30.4183 27.8599H19.848C19.5764 27.8599 19.3557 28.0799 19.3557 28.3528V31.5889C19.3557 31.8611 19.5764 32.0818 19.848 32.0818H30.4183C30.6905 32.0818 30.9112 31.8618 30.9112 31.5889V28.3528C30.9112 28.0799 30.6898 27.8599 30.4183 27.8599ZM29.9253 28.8444V31.0959H20.3409V28.8444H29.9253Z" fill="black"/>
</svg>
