<svg width="48" height="49" viewBox="0 0 48 49" fill="none" xmlns="http://www.w3.org/2000/svg">
<circle cx="24" cy="24.5" r="23.5" stroke="black"/>
<path fill-rule="evenodd" clip-rule="evenodd" d="M24.0765 17.5905L23.8672 17.5L23.6578 17.5905L14.1194 21.7146L13 22.1986L14.1193 22.6829L18.2991 24.4916H18.1372V28.477V28.7777L18.396 28.9309C19.9992 29.88 21.8199 30.3999 23.6826 30.4403L23.6826 30.4405L23.6951 30.4404C25.5699 30.4366 27.4068 29.9121 29.001 28.9255L29.2509 28.7708V28.477V25.879H28.1959V28.1776C26.8291 28.9639 25.2793 29.3811 23.6992 29.3854C22.1195 29.3501 20.5733 28.9327 19.1922 28.1709V24.8781L23.6577 26.8104L23.8672 26.9011L24.0767 26.8104L31.4909 23.6021V26.2265H32.5459V23.1456L33.6151 22.6829L34.7343 22.1986L33.6149 21.7146L24.0765 17.5905ZM23.8672 25.7515L15.6575 22.199L23.8672 18.6494L32.0768 22.199L23.8672 25.7515ZM31.8744 27.8443C31.945 27.8134 32.0212 27.7974 32.0983 27.7974C32.1754 27.7974 32.2517 27.8134 32.3223 27.8443C32.3929 27.8752 32.4564 27.9204 32.5087 27.9771C32.561 28.0337 32.6009 28.1006 32.6261 28.1734C32.6513 28.2463 32.6611 28.3236 32.655 28.4004L33.1808 28.4426H32.6533C32.6533 28.6776 32.4882 28.9973 32.2287 29.3195C32.1849 29.3739 32.1409 29.4253 32.0983 29.473C32.0557 29.4253 32.0118 29.3739 31.968 29.3195C31.7085 28.9973 31.5434 28.6776 31.5434 28.4426V28.4215L31.5417 28.4004C31.5355 28.3236 31.5454 28.2463 31.5705 28.1734C31.5957 28.1006 31.6357 28.0337 31.688 27.9771C31.7403 27.9204 31.8038 27.8752 31.8744 27.8443ZM33.6233 27.8288C33.6938 28.0328 33.7226 28.2487 33.7082 28.4638C33.6998 29.0774 33.329 29.6352 33.0505 29.9812C32.8987 30.1696 32.7484 30.3265 32.6363 30.4361C32.58 30.4912 32.5325 30.5351 32.4983 30.566C32.4812 30.5815 32.4674 30.5937 32.4573 30.6024L32.4452 30.613L32.4413 30.6163L32.44 30.6174L32.4395 30.6178L32.4393 30.618C32.4392 30.6181 32.4391 30.6182 32.0983 30.2155C31.7576 30.6182 31.7575 30.6181 31.7574 30.618L31.7572 30.6178L31.7567 30.6174L31.7553 30.6163L31.7515 30.613L31.7394 30.6024C31.7293 30.5937 31.7155 30.5815 31.6983 30.566C31.6642 30.5351 31.6167 30.4912 31.5603 30.4361C31.4483 30.3265 31.2979 30.1696 31.1462 29.9812C30.8677 29.6352 30.4969 29.0774 30.4885 28.4638C30.4741 28.2487 30.5029 28.0328 30.5734 27.8288C30.6461 27.6183 30.7617 27.4251 30.9128 27.2615C31.0638 27.0978 31.2472 26.9672 31.4512 26.8778C31.6553 26.7885 31.8756 26.7424 32.0983 26.7424C32.3211 26.7424 32.5414 26.7885 32.7455 26.8778C32.9495 26.9672 33.1328 27.0978 33.2839 27.2615C33.435 27.4251 33.5506 27.6183 33.6233 27.8288ZM32.0983 30.2155L32.4391 30.6182L32.0983 30.9065L31.7576 30.6182L32.0983 30.2155Z" fill="black"/>
</svg>
