<svg width="49" height="49" viewBox="0 0 49 49" fill="none" xmlns="http://www.w3.org/2000/svg">
<circle cx="24.5" cy="24.5" r="23.5" stroke="black"/>
<path fill-rule="evenodd" clip-rule="evenodd" d="M35.0217 30.8478H13.9783C13.7138 30.8478 13.5 30.634 13.5 30.3696V16.9783C13.5 16.7143 13.7138 16.5 13.9783 16.5H35.0217C35.2862 16.5 35.5 16.7143 35.5 16.9783V30.3696C35.5 30.634 35.2862 30.8478 35.0217 30.8478ZM34.5435 17.4565H14.4565V29.8913H34.5435V17.4565ZM23.0652 20.8043C23.1676 20.8043 23.2565 20.8436 23.3345 20.8981L27.051 23.2282C27.2357 23.2937 27.3696 23.4663 27.3696 23.6739C27.3696 23.8293 27.2907 23.9613 27.1759 24.0484L23.3622 26.4306C23.28 26.4976 23.179 26.5435 23.0652 26.5435C22.8007 26.5435 22.587 26.3297 22.587 26.0652V21.2826C22.587 21.0186 22.8007 20.8043 23.0652 20.8043ZM20.1957 31.8043H28.8043C29.0688 31.8043 29.2826 32.0181 29.2826 32.2826C29.2826 32.5471 29.0688 32.7609 28.8043 32.7609H20.1957C19.9312 32.7609 19.7174 32.5471 19.7174 32.2826C19.7174 32.0181 19.9312 31.8043 20.1957 31.8043Z" fill="black"/>
</svg>
