<svg width="28" height="28" viewBox="0 0 28 28" fill="none" xmlns="http://www.w3.org/2000/svg">
<path d="M14 2.625C7.71805 2.625 2.625 7.71805 2.625 14C2.625 20.282 7.71805 25.375 14 25.375C20.282 25.375 25.375 20.282 25.375 14C25.375 7.71805 20.282 2.625 14 2.625ZM19.25 15.75H14C13.7679 15.75 13.5454 15.6578 13.3813 15.4937C13.2172 15.3296 13.125 15.1071 13.125 14.875V7C13.125 6.76794 13.2172 6.54538 13.3813 6.38128C13.5454 6.21719 13.7679 6.125 14 6.125C14.2321 6.125 14.4546 6.21719 14.6187 6.38128C14.7828 6.54538 14.875 6.76794 14.875 7V14H19.25C19.4821 14 19.7046 14.0922 19.8687 14.2563C20.0328 14.4204 20.125 14.6429 20.125 14.875C20.125 15.1071 20.0328 15.3296 19.8687 15.4937C19.7046 15.6578 19.4821 15.75 19.25 15.75Z" fill="black"/>
</svg>
