<svg width="63" height="63" viewBox="0 0 63 63" fill="none" xmlns="http://www.w3.org/2000/svg">
<path fill-rule="evenodd" clip-rule="evenodd" d="M61.0312 22.743L38.2036 32.8525C37.9437 32.9667 37.674 33.0218 37.4062 33.0218V35.4611C37.4062 36.5498 36.5243 37.4299 35.4375 37.4299H27.5625C26.4757 37.4299 25.5938 36.5498 25.5938 35.4611V33.014C25.326 33.014 25.0543 32.9588 24.7944 32.8447L1.96875 22.743V47.25C1.96875 48.8171 2.59087 50.3193 3.69928 51.4257C4.80572 52.5341 6.30788 53.1562 7.875 53.1562C18.0219 53.1562 44.9781 53.1562 55.125 53.1562C56.6921 53.1562 58.1943 52.5341 59.3007 51.4257C60.4091 50.3193 61.0312 48.8171 61.0312 47.25V22.743ZM33.4688 27.5625V33.4924H29.5312V27.5625H33.4688ZM13.7812 9.84375H7.875C6.30788 9.84375 4.80572 10.4659 3.69928 11.5743C2.59087 12.6807 1.96875 14.1829 1.96875 15.75V18.4373L25.5938 28.8934V25.5938C25.5938 24.507 26.4757 23.625 27.5625 23.625H35.4375C36.5243 23.625 37.4062 24.507 37.4062 25.5938V28.8993L61.0312 18.4354V15.75C61.0312 14.1829 60.4091 12.6807 59.3007 11.5743C58.1943 10.4659 56.6921 9.84375 55.125 9.84375H49.2188V7.875C49.2188 4.61278 46.5747 1.96875 43.3125 1.96875H19.6875C16.4253 1.96875 13.7812 4.61278 13.7812 7.875V9.84375ZM45.2812 9.84375H17.7188V7.875C17.7188 6.78825 18.6007 5.90625 19.6875 5.90625H43.3125C44.3993 5.90625 45.2812 6.78825 45.2812 7.875V9.84375Z" fill="#00629B"/>
</svg>
