<svg width="118" height="24" viewBox="0 0 118 24" fill="none" xmlns="http://www.w3.org/2000/svg">
<rect x="0.5" y="0.5" width="33" height="23" rx="3.5" fill="white"/>
<path fill-rule="evenodd" clip-rule="evenodd" d="M17.179 16.8295C15.9949 17.8275 14.459 18.43 12.7807 18.43C9.03582 18.43 6 15.4303 6 11.73C6 8.02972 9.03582 5.03003 12.7807 5.03003C14.459 5.03003 15.9949 5.63253 17.179 6.63057C18.363 5.63253 19.8989 5.03003 21.5773 5.03003C25.3221 5.03003 28.358 8.02972 28.358 11.73C28.358 15.4303 25.3221 18.43 21.5773 18.43C19.8989 18.43 18.363 17.8275 17.179 16.8295Z" fill="#ED0006"/>
<path fill-rule="evenodd" clip-rule="evenodd" d="M17.179 16.8295C18.6369 15.6006 19.5614 13.772 19.5614 11.73C19.5614 9.68807 18.6369 7.85947 17.179 6.63057C18.363 5.63253 19.8989 5.03003 21.5772 5.03003C25.3221 5.03003 28.3579 8.02972 28.3579 11.73C28.3579 15.4303 25.3221 18.43 21.5772 18.43C19.8989 18.43 18.363 17.8275 17.179 16.8295Z" fill="#F9A000"/>
<path fill-rule="evenodd" clip-rule="evenodd" d="M17.179 16.8295C18.6369 15.6006 19.5614 13.772 19.5614 11.73C19.5614 9.68809 18.6369 7.85949 17.179 6.63059C15.7211 7.85949 14.7966 9.68809 14.7966 11.73C14.7966 13.772 15.7211 15.6006 17.179 16.8295Z" fill="#FF5E00"/>
<rect x="0.5" y="0.5" width="33" height="23" rx="3.5" stroke="#F2F4F7"/>
<rect x="42.5" y="0.5" width="33" height="23" rx="3.5" fill="white"/>
<path fill-rule="evenodd" clip-rule="evenodd" d="M52.7503 15.8583H50.6906L49.146 9.79247C49.0727 9.51344 48.917 9.26676 48.6881 9.1505C48.1166 8.85833 47.487 8.6258 46.8 8.50853V8.27499H50.1181C50.5761 8.27499 50.9195 8.6258 50.9768 9.03323L51.7782 13.4087L53.8369 8.27499H55.8394L52.7503 15.8583ZM56.9843 15.8583H55.039L56.6408 8.27499H58.5861L56.9843 15.8583ZM61.1028 10.3758C61.16 9.96738 61.5035 9.73384 61.9042 9.73384C62.5338 9.6752 63.2197 9.79248 63.7922 10.0836L64.1356 8.45091C63.5632 8.21737 62.9335 8.1001 62.3621 8.1001C60.4741 8.1001 59.1003 9.1505 59.1003 10.6083C59.1003 11.7174 60.0734 12.2997 60.7603 12.6505C61.5035 13.0003 61.7897 13.2338 61.7324 13.5836C61.7324 14.1083 61.16 14.3419 60.5886 14.3419C59.9017 14.3419 59.2147 14.167 58.5861 13.8748L58.2426 15.5086C58.9295 15.7997 59.6727 15.917 60.3596 15.917C62.4766 15.9746 63.7922 14.9252 63.7922 13.3501C63.7922 11.3666 61.1028 11.2503 61.1028 10.3758V10.3758ZM70.6001 15.8583L69.0555 8.27499H67.3965C67.053 8.27499 66.7095 8.50853 66.5951 8.85833L63.7349 15.8583H65.7374L66.1371 14.7503H68.5976L68.8265 15.8583H70.6001ZM67.6827 10.3172L68.2541 13.1752H66.6523L67.6827 10.3172Z" fill="#172B85"/>
<rect x="42.5" y="0.5" width="33" height="23" rx="3.5" stroke="#F2F4F7"/>
<rect x="84.5" y="0.5" width="33" height="23" rx="3.5" fill="#1F72CD"/>
<path fill-rule="evenodd" clip-rule="evenodd" d="M90.0954 8.5L86.9143 15.7467H90.7225L91.1947 14.5913H92.2738L92.7459 15.7467H96.9377V14.8649L97.3112 15.7467H99.4795L99.8531 14.8462V15.7467H108.571L109.631 14.6213L110.623 15.7467L115.101 15.7561L111.91 12.1436L115.101 8.5H110.693L109.661 9.60463L108.7 8.5H99.2159L98.4015 10.3704L97.568 8.5H93.7677V9.35186L93.345 8.5H90.0954ZM90.8323 9.52905H92.6886L94.7986 14.4431V9.52905H96.8322L98.4619 13.0524L99.9639 9.52905H101.987V14.7291H100.756L100.746 10.6544L98.9511 14.7291H97.8498L96.0448 10.6544V14.7291H93.512L93.0319 13.5633H90.4377L89.9585 14.728H88.6015L90.8323 9.52905ZM108.12 9.52905H103.114V14.726H108.042L109.631 13.0036L111.162 14.726H112.763L110.436 12.1426L112.763 9.52905H111.232L109.651 11.2316L108.12 9.52905ZM91.7353 10.4089L90.8806 12.4856H92.589L91.7353 10.4089ZM104.35 11.555V10.6057V10.6048H107.474L108.837 12.1229L107.413 13.6493H104.35V12.613H107.081V11.555H104.35Z" fill="white"/>
<rect x="84.5" y="0.5" width="33" height="23" rx="3.5" stroke="#F2F4F7"/>
</svg>
