<svg width="24" height="24" viewBox="0 0 24 24" fill="none" xmlns="http://www.w3.org/2000/svg">
<path d="M12 24C9.9416 24 7.9128 23.4624 6.1096 22.4424L2.4528 23.54C1.8888 23.708 1.2792 23.556 0.8616 23.1392C0.4448 22.7224 0.2912 22.1128 0.4608 21.548L1.5576 17.8912C0.5376 16.088 0 14.0592 0 12.0008C0 5.3832 5.3832 0 12 0C18.6168 0 24 5.3832 24 12C24 18.6168 18.6168 24 12 24ZM6.2136 20.776C6.3584 20.776 6.5016 20.8152 6.628 20.892C8.2568 21.8792 10.1144 22.4008 12 22.4008C17.7344 22.4008 22.4 17.7352 22.4 12.0008C22.4 6.2664 17.7344 1.6 12 1.6C6.2656 1.6 1.6 6.2656 1.6 12C1.6 13.8856 2.1216 15.7432 3.108 17.372C3.2248 17.5656 3.2552 17.8 3.1904 18.016L1.9936 22.0064L5.9832 20.8088C6.0584 20.7864 6.136 20.776 6.2136 20.776ZM13.8384 19.7752C12.3736 19.7752 10.9352 19.1048 9.9944 17.8568C9.2496 16.8696 8.552 15.828 7.9192 14.7616C7.2872 13.696 6.7088 12.584 6.2 11.456C5.1896 9.2192 6.0168 6.5896 8.1256 5.34L8.6576 5.0248C9.0248 4.8072 9.4544 4.7456 9.8696 4.8512C10.284 4.9568 10.632 5.2176 10.8496 5.5856L12.0736 7.6496C12.2912 8.0168 12.3536 8.448 12.2472 8.8616C12.1416 9.276 11.8808 9.624 11.5128 9.8416C11.1336 10.0664 11.008 10.5584 11.2328 10.9376L12.8648 13.6904C13.0896 14.0696 13.5816 14.1952 13.9608 13.9704C14.3288 13.7528 14.76 13.6904 15.1736 13.7968C15.588 13.9024 15.936 14.1632 16.1536 14.5312L17.3776 16.5952C17.8272 17.3536 17.576 18.3376 16.8176 18.7872L16.2848 19.1024C15.5192 19.556 14.6752 19.7744 13.8392 19.7744L13.8384 19.7752ZM9.4728 6.4008L8.9408 6.7168C7.5352 7.5504 6.984 9.304 7.6576 10.7976C8.1424 11.872 8.6936 12.9312 9.2952 13.9464C9.8968 14.9624 10.5616 15.9536 11.2712 16.8944C12.2576 18.2024 14.0608 18.5616 15.468 17.728L16 17.4128L14.776 15.348C14.224 15.6752 13.5776 15.7672 12.9576 15.6088C12.3368 15.4504 11.8152 15.0584 11.488 14.508L9.856 11.7552C9.1816 10.6168 9.5584 9.1416 10.6968 8.4672L9.4728 6.4024V6.4008Z" fill="url(#paint0_linear_1840_30001)"/>
<defs>
<linearGradient id="paint0_linear_1840_30001" x1="4.3656" y1="25.224" x2="17.9992" y2="1.6096" gradientUnits="userSpaceOnUse">
<stop stop-color="#006AA0"/>
<stop offset="1" stop-color="#0088E3"/>
</linearGradient>
</defs>
</svg>
