<svg width="61" height="61" viewBox="0 0 61 61" fill="none" xmlns="http://www.w3.org/2000/svg">
<path d="M45.8102 52.84H15.0868C14.3209 52.84 13.5863 53.1443 13.0447 53.6859C12.5031 54.2275 12.1989 54.9621 12.1989 55.728V58.6182C12.1988 58.7323 12.2213 58.8454 12.2649 58.9509C12.3086 59.0564 12.3726 59.1523 12.4534 59.2331C12.5341 59.3138 12.63 59.3779 12.7354 59.4216C12.8409 59.4653 12.954 59.4878 13.0682 59.4878H47.8287C48.0593 59.4878 48.2805 59.3962 48.4436 59.2331C48.6067 59.07 48.6983 58.8488 48.6983 58.6182V55.7284C48.6983 55.3491 48.6237 54.9735 48.4786 54.6231C48.3334 54.2726 48.1207 53.9542 47.8525 53.686C47.5843 53.4178 47.2659 53.205 46.9155 53.0599C46.5651 52.9147 46.1895 52.84 45.8102 52.84Z" fill="#00629B"/>
<path d="M53.0835 5.89282H48.2663V4.32407C48.2663 3.83109 48.0705 3.35829 47.722 3.00964C47.3734 2.661 46.9007 2.46506 46.4077 2.4649H14.8146C14.5705 2.46489 14.3287 2.51297 14.1031 2.6064C13.8776 2.69982 13.6726 2.83677 13.5 3.00941C13.3273 3.18205 13.1904 3.38701 13.0969 3.61258C13.0035 3.83815 12.9554 4.07991 12.9554 4.32407V5.89282H7.91708C6.77701 5.89418 5.68402 6.34768 4.87787 7.15383C4.07172 7.95998 3.61822 9.05296 3.61686 10.193V12.9788C3.5887 15.211 4.14595 17.4116 5.2331 19.3614C6.32025 21.3112 7.89933 22.942 9.81303 24.0915C11.4765 25.0511 13.3375 25.6175 15.2535 25.7474C15.2945 25.7501 15.3354 25.7515 15.3764 25.7516C15.4441 25.7494 15.5117 25.743 15.5786 25.7325C17.4225 28.7291 20.1167 31.1089 23.318 32.5688C24.4889 33.124 25.476 34.0034 26.1622 35.1027C26.8483 36.202 27.2048 37.4751 27.1893 38.7709V41.9633C27.1893 42.5352 26.9621 43.0838 26.5577 43.4883C26.1533 43.8928 25.6048 44.1201 25.0328 44.1202H20.5744C19.8805 44.1202 19.215 44.3959 18.7243 44.8866C18.2336 45.3773 17.958 46.0428 17.958 46.7367V50.3136H43.2641V46.7362C43.264 46.0423 42.9882 45.3769 42.4975 44.8863C42.0068 44.3957 41.3414 44.1202 40.6475 44.1202H36.189C35.6169 44.1202 35.0684 43.8929 34.6639 43.4884C34.2594 43.084 34.0322 42.5354 34.0321 41.9634V38.7705C34.0166 37.4747 34.3731 36.2016 35.0593 35.1023C35.7456 34.003 36.7327 33.1236 37.9037 32.5684C41.0982 31.1118 43.788 28.7391 45.6319 25.7514C45.67 25.7514 45.7086 25.7499 45.747 25.7474C47.6627 25.6176 49.5234 25.0512 51.1865 24.0915C53.1003 22.9421 54.6796 21.3113 55.7669 19.3616C56.8543 17.4118 57.4117 15.2111 57.3837 12.9788V10.193C57.3823 9.05296 56.9288 7.95998 56.1227 7.15383C55.3165 6.34768 54.2235 5.89418 53.0835 5.89282ZM11.4839 21.2037C10.0761 20.3479 8.91699 19.1383 8.12203 17.6952C7.32706 16.2522 6.92394 14.6261 6.9528 12.9788V10.193C6.95308 9.93738 7.05476 9.69227 7.23554 9.51149C7.41631 9.33072 7.66142 9.22903 7.91708 9.22876H12.9554V16.4916C12.9568 18.4184 13.2747 20.3319 13.8962 22.1558C13.0507 21.9555 12.2383 21.6349 11.4839 21.2037ZM37.2873 17.3278L35.2572 18.8027C35.0245 18.9718 34.8512 19.2102 34.7624 19.4838C34.6735 19.7574 34.6736 20.0521 34.7625 20.3257L35.5376 22.7118C35.6265 22.9854 35.6265 23.2801 35.5376 23.5537C35.4487 23.8273 35.2755 24.0658 35.0428 24.2349C34.81 24.404 34.5297 24.4951 34.242 24.4951C33.9543 24.4951 33.674 24.404 33.4413 24.2349L31.4111 22.7603C31.1784 22.5912 30.8981 22.5002 30.6105 22.5002C30.3229 22.5002 30.0426 22.5912 29.8099 22.7603L27.7797 24.2349C27.547 24.404 27.2667 24.4951 26.979 24.4951C26.6913 24.4951 26.411 24.404 26.1782 24.2349C25.9455 24.0658 25.7723 23.8273 25.6834 23.5537C25.5945 23.2801 25.5945 22.9854 25.6834 22.7118L26.4587 20.3257C26.5476 20.0521 26.5475 19.7574 26.4586 19.4838C26.3697 19.2102 26.1965 18.9718 25.9637 18.8027L23.9349 17.3278C23.7021 17.1588 23.5289 16.9203 23.44 16.6467C23.351 16.3731 23.351 16.0784 23.4399 15.8047C23.5288 15.5311 23.702 15.2927 23.9348 15.1235C24.1675 14.9544 24.4478 14.8634 24.7355 14.8633H27.2443C27.5319 14.8634 27.8123 14.7723 28.045 14.6032C28.2778 14.4342 28.451 14.1957 28.5399 13.9221L29.3153 11.5361C29.4042 11.2625 29.5774 11.024 29.8102 10.8549C30.0429 10.6858 30.3232 10.5947 30.6109 10.5947C30.8986 10.5947 31.1789 10.6858 31.4117 10.8549C31.6444 11.024 31.8177 11.2625 31.9066 11.5361L32.6819 13.9221C32.7709 14.1957 32.9442 14.434 33.177 14.6031C33.4097 14.7722 33.69 14.8633 33.9776 14.8633H36.4866C36.7743 14.8634 37.0546 14.9545 37.2873 15.1236C37.52 15.2927 37.6932 15.5312 37.7821 15.8048C37.871 16.0784 37.871 16.3731 37.7821 16.6467C37.6933 16.9203 37.5201 17.1587 37.2873 17.3278ZM54.0478 12.9787C54.0765 14.6262 53.6732 16.2524 52.8781 17.6955C52.083 19.1387 50.9237 20.3484 49.5157 21.2042C48.8343 21.5946 48.1049 21.8947 47.346 22.0971C47.9544 20.2907 48.2654 18.3974 48.2667 16.4913V9.22847H53.0835C53.3391 9.22875 53.5842 9.33043 53.765 9.51121C53.9458 9.69198 54.0475 9.93709 54.0478 10.1927V12.9787Z" fill="#00629B"/>
</svg>
