<?xml version="1.0" encoding="utf-8"?>
<!-- Generator: Adobe Illustrator 26.2.1, SVG Export Plug-In . SVG Version: 6.00 Build 0)  -->
<svg version="1.1" id="Capa_1" xmlns="http://www.w3.org/2000/svg" xmlns:xlink="http://www.w3.org/1999/xlink" x="0px" y="0px"
	 viewBox="0 0 1080 1080" style="enable-background:new 0 0 1080 1080;" xml:space="preserve">
<style type="text/css">
	.st0{fill:#A8A3B9;}
</style>
<g id="yARn9y.tif">
	<g>
		<path  className="st0" d="M613.3,345c0.3,0,0.7,0,1,0c27,5,53.4,12.1,79.1,21.8c25.9,9.9,26,9.8,40.4,33.4
			c29.3,48,49.1,99.6,58.3,155.1c2.3,13.6,3.4,27.3,4.8,41c0,18.6,0,37.2,0,55.9c-1,3.4-0.3,7-0.9,10.4c-0.6,3.8-0.4,7.7-4.3,10.6
			c-37.6,27-78.2,47.8-122.4,61.6c-3.2,1-5.3,0.5-7.2-2.3c-8.2-11.9-15.9-24.2-22.7-36.9c-2.3-4.2-1.2-6.2,3-7.8
			c11.2-4.2,22-9.5,32.4-15.3c4.5-2.5,4.3-3.2,0.4-6.7c-3.3-3-6.2-3.2-10.3-1.3c-47.9,21.2-97.8,29.9-150.1,25.3
			c-33.8-3-66-11.5-97-25.1c-4.2-1.8-7.3-1.8-10.8,1.3c-4,3.6-4.2,3.9,0.5,6.4c10.5,5.8,21.3,11,32.4,15.5c5.5,2.2,5.7,2.9,3,8
			c-6.2,12-13.5,23.3-20.9,34.5c-3.2,4.8-6.3,5.5-11.6,3.8c-39.1-12.9-75.5-31-109.8-53.9c-9.2-6.2-16.2-12.4-14.3-24.5
			c0.3-1.7-0.6-3.6-0.6-5.4c-1.1-36.1,0.2-72,7.3-107.6c11.3-56.3,33.6-107.9,64.4-156.1c3.7-5.8,8.1-9.9,14.6-12.7
			c29.6-12.6,60.2-21.9,91.9-27.9c3.9-0.7,6.7,0,8.5,4c2.8,6.2,6.2,12.1,9,18.3c1.4,3,2.8,4.2,6.4,3.7c10.9-1.4,21.8-2.8,32.7-3.2
			c24.8-0.9,49.5-0.6,74.1,3.1c3.8,0.6,5.4-0.7,6.8-3.8C604.9,360.2,608.6,352.3,613.3,345z M581.5,560.9c-0.5,9,2.3,18.3,7.3,26.9
			c15.4,26.6,49.7,30.6,69.5,8.2c17-19.1,17.9-49.8,2.1-69.9c-17-21.6-47.2-22.8-65.6-2.4C585.6,534,581.3,546.1,581.5,560.9z
			 M411.7,557.9c0.1,14.1,3.2,24.4,9.7,33.5c17.6,24.9,50.9,25.7,69.6,1.6c15.1-19.5,14.6-49-1.1-68c-16.8-20.3-45.9-21.4-64-2.2
			C416,533.3,411.4,545.8,411.7,557.9z"/>
	</g>
</g>
</svg>
