<svg width="87" height="87" viewBox="0 0 87 87" fill="none" xmlns="http://www.w3.org/2000/svg">
<path fill-rule="evenodd" clip-rule="evenodd" d="M22.3667 67.631C23.3023 66.0143 25.0514 64.9255 27.0524 64.9255C29.0534 64.9255 30.8018 66.0143 31.738 67.631H78.4512C79.9445 67.631 81.1566 68.8431 81.1566 70.3358C81.1566 71.8291 79.9445 73.0412 78.4512 73.0412H31.738C30.8018 74.6579 29.0534 75.7467 27.0524 75.7467C25.0514 75.7467 23.3023 74.6579 22.3667 73.0412H8.1156C6.62231 73.0412 5.41016 71.8291 5.41016 70.3358C5.41016 68.8431 6.62231 67.631 8.1156 67.631H22.3667ZM81.1566 18.937C81.1566 14.4545 77.5234 10.8213 73.041 10.8213C59.9397 10.8213 26.6278 10.8213 13.5258 10.8213C9.04403 10.8213 5.41016 14.4545 5.41016 18.937V51.3996C5.41016 55.8814 9.04403 59.5153 13.5258 59.5153H73.041C77.5234 59.5153 81.1566 55.8814 81.1566 51.3996V18.937ZM50.3171 37.3323C50.9982 36.8213 51.3994 36.0195 51.3994 35.1683C51.3994 34.3165 50.9982 33.5147 50.3171 33.0037L39.496 24.888C38.6766 24.2732 37.58 24.1745 36.6633 24.6329C35.7465 25.0912 35.1681 26.0275 35.1681 27.0526V43.284C35.1681 44.3085 35.7465 45.2454 36.6633 45.7031C37.58 46.1615 38.6766 46.0628 39.496 45.4479L50.3171 37.3323Z" fill="#00629B"/>
</svg>
