<svg width="76" height="76" viewBox="0 0 76 76" fill="none" xmlns="http://www.w3.org/2000/svg">
<path d="M50.166 39.6374C50.166 37.8273 48.782 36.9756 46.1734 36.9756H43.5649V42.5652H46.1734C48.7286 42.5651 50.166 41.6069 50.166 39.6374Z" fill="#00629B"/>
<path d="M29.2978 42.5916C32.0393 42.5916 33.796 40.0896 33.796 36.1769C33.796 32.2907 32.0393 29.9219 29.2978 29.9219C26.5562 29.9219 24.7996 32.2908 24.7996 36.1769C24.7996 40.0896 26.5563 42.5916 29.2978 42.5916Z" fill="#00629B"/>
<path d="M49.2344 32.2113C49.2344 30.6141 48.09 29.9487 45.8274 29.9487H43.5649V34.7665H45.7742C48.1963 34.7665 49.2344 33.8348 49.2344 32.2113Z" fill="#00629B"/>
<path d="M2.72095 14.5586V71.3384C2.72095 73.913 4.80804 76.0001 7.38259 76.0001H48.9769V57.2302C48.9769 54.175 51.4536 51.6983 54.5088 51.6983H73.2786V14.5586C73.2786 11.9841 71.1915 9.89697 68.6169 9.89697H58.4972C57.0848 12.0144 54.675 13.4122 51.9442 13.4122C50.6356 13.4122 49.4009 13.0908 48.3138 12.5234L40.7269 17.5627C40.1994 17.9131 39.5721 17.2856 39.9225 16.7581L44.4796 9.89705H7.38259C4.80796 9.89697 2.72095 11.9841 2.72095 14.5586ZM61.4252 37.8007L59.0297 36.7628C57.3262 36.0441 55.5161 34.6865 55.5161 32.1314C55.5161 29.3632 57.965 27.2339 61.3719 27.2339C63.3947 27.2339 65.3646 28.0856 66.7218 29.4431L65.1514 31.4128C64.0334 30.4812 62.8624 29.9222 61.3719 29.9222C59.7217 29.9222 58.6304 30.6941 58.6304 31.9717C58.6304 33.3293 59.9613 33.8348 61.3986 34.4205L63.7675 35.4053C65.8171 36.2838 67.281 37.588 67.281 40.1167C67.281 42.9381 64.9387 45.2805 61.026 45.2805C58.6837 45.2805 56.3946 44.3488 54.7441 42.725L56.5541 40.6223C57.8052 41.7935 59.4822 42.5921 61.079 42.5921C63.0488 42.5921 64.1135 41.7138 64.1135 40.3565C64.1135 38.9187 62.9956 38.4662 61.4252 37.8007ZM40.4772 27.553H46.0404C49.6338 27.553 52.2688 28.6444 52.2688 31.8384C52.2688 33.4887 51.3106 35.0858 49.2877 35.6181V35.7245C51.7898 36.1503 53.1738 37.5078 53.1738 39.8501C53.1738 43.337 50.3258 44.9606 46.4929 44.9606H40.4774L40.4772 27.553ZM29.2977 27.2337C33.8493 27.2337 36.9902 30.5608 36.9902 36.1771C36.9902 41.8199 33.8493 45.2802 29.2977 45.2802C24.7728 45.2802 21.632 41.82 21.632 36.1771C21.632 30.5608 24.7729 27.2337 29.2977 27.2337ZM9.94719 40.7552C10.6392 42.0329 11.5974 42.5919 12.6621 42.5919C14.2857 42.5919 15.1109 41.7135 15.1109 39.2381V27.553H18.1985V39.5042C18.1985 42.6717 16.6547 45.2802 13.0081 45.2802C10.5859 45.2802 8.90905 44.2687 7.81768 42.3257L9.94719 40.7552Z" fill="#00629B"/>
<path d="M54.5088 54.8994C53.2216 54.8994 52.178 55.943 52.178 57.2302V74.4961V76L73.2793 54.8994H72.0861H54.5088Z" fill="#00629B"/>
<path d="M48.5227 9.8969C49.1524 10.3923 49.8918 10.7536 50.6991 10.9391C51.0995 11.0311 51.516 11.0813 51.9442 11.0813C53.2361 11.0813 54.4235 10.638 55.3657 9.8969C56.6557 8.88245 57.4848 7.30891 57.4848 5.54067C57.4849 2.48062 55.0042 0 51.9442 0C48.8842 0 46.4036 2.48062 46.4036 5.54067C46.4036 5.96908 46.4538 6.38544 46.5458 6.78588C46.8335 8.03846 47.5453 9.12827 48.5227 9.8969Z" fill="#00629B"/>
</svg>
