<svg width="67" height="79" viewBox="0 0 67 79" fill="none" xmlns="http://www.w3.org/2000/svg">
<path d="M5.58337 23.3779V55.6217L33.5 71.7296L61.4167 55.6217V23.3779L33.5 7.27002L5.58337 23.3779ZM53.7396 51.9925L34.198 63.275C33.9858 63.3975 33.7451 63.462 33.5 63.462C33.255 63.462 33.0143 63.3975 32.8021 63.275L13.2605 51.9925C12.9425 51.8061 12.7111 51.5015 12.6169 51.1451C12.5227 50.7888 12.5733 50.4096 12.7576 50.0904C12.9419 49.7712 13.245 49.5379 13.6007 49.4413C13.9564 49.3447 14.3359 49.3928 14.6563 49.5749L33.5 60.4527L52.3438 49.5735C52.6642 49.3914 53.0437 49.3433 53.3994 49.4399C53.7551 49.5365 54.0582 49.7698 54.2425 50.089C54.4268 50.4082 54.4774 50.7874 54.3832 51.1437C54.2889 51.5001 54.0576 51.8061 53.7396 51.9925ZM16.75 45.0831V33.9165C16.75 33.6235 16.8422 33.338 17.0135 33.1003C17.1848 32.8627 17.4265 32.6849 17.7045 32.5923C17.9824 32.4996 18.2824 32.4968 18.5621 32.5841C18.8417 32.6715 19.0868 32.8446 19.2625 33.079L25.125 40.8956V33.9165C25.125 33.5463 25.2721 33.1912 25.5339 32.9295C25.7956 32.6677 26.1507 32.5206 26.5209 32.5206C26.8911 32.5206 27.2461 32.6677 27.5079 32.9295C27.7696 33.1912 27.9167 33.5463 27.9167 33.9165V45.0831C27.9146 45.3751 27.8222 45.6592 27.6523 45.8966C27.4824 46.134 27.2432 46.313 26.9675 46.4092C26.8225 46.4528 26.6723 46.4763 26.5209 46.479C26.3039 46.4806 26.0896 46.4309 25.8955 46.3339C25.7014 46.2368 25.5331 46.0952 25.4042 45.9206L19.5417 38.104V45.0831C19.5417 45.4533 19.3946 45.8084 19.1329 46.0701C18.8711 46.3319 18.5161 46.479 18.1459 46.479C17.7757 46.479 17.4206 46.3319 17.1589 46.0701C16.8971 45.8084 16.75 45.4533 16.75 45.0831ZM39.0834 38.104C39.4536 38.104 39.8086 38.251 40.0704 38.5128C40.3321 38.7746 40.4792 39.1296 40.4792 39.4998C40.4792 39.87 40.3321 40.225 40.0704 40.4868C39.8086 40.7486 39.4536 40.8956 39.0834 40.8956H33.5V45.0831C33.5 45.4533 33.353 45.8084 33.0912 46.0701C32.8294 46.3319 32.4744 46.479 32.1042 46.479C31.734 46.479 31.379 46.3319 31.1172 46.0701C30.8554 45.8084 30.7084 45.4533 30.7084 45.0831V33.9165C30.7084 33.5463 30.8554 33.1912 31.1172 32.9295C31.379 32.6677 31.734 32.5206 32.1042 32.5206H39.0834C39.4536 32.5206 39.8086 32.6677 40.0704 32.9295C40.3321 33.1912 40.4792 33.5463 40.4792 33.9165C40.4792 34.2867 40.3321 34.6417 40.0704 34.9035C39.8086 35.1653 39.4536 35.3123 39.0834 35.3123H33.5V38.104H39.0834ZM43.2709 35.3123C42.9007 35.3123 42.5456 35.1653 42.2839 34.9035C42.0221 34.6417 41.875 34.2867 41.875 33.9165C41.875 33.5463 42.0221 33.1912 42.2839 32.9295C42.5456 32.6677 42.9007 32.5206 43.2709 32.5206H51.6459C52.0161 32.5206 52.3711 32.6677 52.6329 32.9295C52.8946 33.1912 53.0417 33.5463 53.0417 33.9165C53.0417 34.2867 52.8946 34.6417 52.6329 34.9035C52.3711 35.1653 52.0161 35.3123 51.6459 35.3123H48.8542V45.0831C48.8542 45.4533 48.7071 45.8084 48.4454 46.0701C48.1836 46.3319 47.8286 46.479 47.4584 46.479C47.0882 46.479 46.7331 46.3319 46.4714 46.0701C46.2096 45.8084 46.0625 45.4533 46.0625 45.0831V35.3123H43.2709ZM53.7396 27.0085C53.8996 27.0995 54.0401 27.2212 54.1529 27.3667C54.2657 27.5122 54.3486 27.6785 54.3968 27.8562C54.445 28.0339 54.4576 28.2193 54.4339 28.4018C54.4102 28.5844 54.3506 28.7604 54.2585 28.9199C54.1665 29.0793 54.0438 29.2189 53.8976 29.3307C53.7514 29.4425 53.5845 29.5243 53.4065 29.5714C53.2285 29.6184 53.043 29.6298 52.8606 29.6049C52.6782 29.5799 52.5026 29.5192 52.3438 29.4261L33.5 18.547L14.6563 29.4261C14.3359 29.6083 13.9564 29.6563 13.6007 29.5597C13.245 29.4632 12.9419 29.2298 12.7576 28.9106C12.5733 28.5914 12.5227 28.2122 12.6169 27.8559C12.7111 27.4995 12.9425 27.1949 13.2605 27.0085L32.8021 15.726C33.0143 15.6035 33.255 15.539 33.5 15.539C33.7451 15.539 33.9858 15.6035 34.198 15.726L53.7396 27.0085Z" fill="#00629B"/>
<path d="M33.5 0.821289L0 20.1536V58.8461L33.5 78.1784L67 58.8461V20.1536L33.5 0.821289ZM64.2083 56.4173C64.2093 56.6633 64.1453 56.9051 64.0227 57.1184C63.9002 57.3316 63.7234 57.5087 63.5104 57.6317L34.1979 74.5632C33.9845 74.6821 33.7443 74.7445 33.5 74.7445C33.2557 74.7445 33.0155 74.6821 32.8021 74.5632L3.48958 57.6317C3.27657 57.5087 3.09984 57.3316 2.97728 57.1184C2.85472 56.9051 2.79069 56.6633 2.79167 56.4173V22.5823C2.79069 22.3364 2.85472 22.0945 2.97728 21.8813C3.09984 21.668 3.27657 21.4909 3.48958 21.368L32.8021 4.4365C33.0162 4.3197 33.2561 4.2585 33.5 4.2585C33.7439 4.2585 33.9838 4.3197 34.1979 4.4365L63.5104 21.368C63.7234 21.4909 63.9002 21.668 64.0227 21.8813C64.1453 22.0945 64.2093 22.3364 64.2083 22.5823V56.4173Z" fill="#00629B"/>
</svg>
