<svg width="28" height="28" viewBox="0 0 28 28" fill="none" xmlns="http://www.w3.org/2000/svg">
<g clip-path="url(#clip0_202_2849)">
<path d="M14 14.0002C13.3598 15.2429 12.5015 16.3604 11.466 17.2995C10.8134 17.9523 9.98191 18.3969 9.07663 18.5771C8.17135 18.7572 7.23296 18.6649 6.38016 18.3117C5.52736 17.9586 4.79844 17.3604 4.2856 16.593C3.77275 15.8255 3.49902 14.9232 3.49902 14.0002C3.49902 13.0771 3.77275 12.1748 4.2856 11.4074C4.79844 10.6399 5.52736 10.0418 6.38016 9.68859C7.23296 9.33542 8.17135 9.24309 9.07663 9.42327C9.98191 9.60345 10.8134 10.048 11.466 10.7008C12.5015 11.6399 13.3598 12.7575 14 14.0002ZM14 14.0002C14.6402 12.7575 15.4985 11.6399 16.534 10.7008C17.1866 10.048 18.0181 9.60345 18.9234 9.42327C19.8287 9.24309 20.7671 9.33542 21.6199 9.68859C22.4727 10.0418 23.2016 10.6399 23.7144 11.4074C24.2273 12.1748 24.501 13.0771 24.501 14.0002C24.501 14.9232 24.2273 15.8255 23.7144 16.593C23.2016 17.3604 22.4727 17.9586 21.6199 18.3117C20.7671 18.6649 19.8287 18.7572 18.9234 18.5771C18.0181 18.3969 17.1866 17.9523 16.534 17.2995C15.4985 16.3604 14.6402 15.2429 14 14.0002Z" stroke="black" stroke-width="2" stroke-linecap="round" stroke-linejoin="round"/>
</g>
<defs>
<clipPath id="clip0_202_2849">
<rect width="28" height="28" fill="white"/>
</clipPath>
</defs>
</svg>
