<svg width="29" height="29" viewBox="0 0 29 29" fill="none" xmlns="http://www.w3.org/2000/svg">
<path d="M14.959 6.8125C10.959 6.8125 7.77148 10.0625 7.77148 14C7.77148 18 10.959 21.1875 14.959 21.1875C18.8965 21.1875 22.1465 18 22.1465 14C22.1465 10.0625 18.8965 6.8125 14.959 6.8125ZM14.959 18.6875C12.3965 18.6875 10.2715 16.625 10.2715 14C10.2715 11.4375 12.334 9.375 14.959 9.375C17.5215 9.375 19.584 11.4375 19.584 14C19.584 16.625 17.5215 18.6875 14.959 18.6875ZM24.084 6.5625C24.084 5.625 23.334 4.875 22.3965 4.875C21.459 4.875 20.709 5.625 20.709 6.5625C20.709 7.5 21.459 8.25 22.3965 8.25C23.334 8.25 24.084 7.5 24.084 6.5625ZM28.834 8.25C28.709 6 28.209 4 26.584 2.375C24.959 0.75 22.959 0.25 20.709 0.125C18.3965 0 11.459 0 9.14648 0.125C6.89648 0.25 4.95898 0.75 3.27148 2.375C1.64648 4 1.14648 6 1.02148 8.25C0.896484 10.5625 0.896484 17.5 1.02148 19.8125C1.14648 22.0625 1.64648 24 3.27148 25.6875C4.95898 27.3125 6.89648 27.8125 9.14648 27.9375C11.459 28.0625 18.3965 28.0625 20.709 27.9375C22.959 27.8125 24.959 27.3125 26.584 25.6875C28.209 24 28.709 22.0625 28.834 19.8125C28.959 17.5 28.959 10.5625 28.834 8.25ZM25.834 22.25C25.3965 23.5 24.3965 24.4375 23.209 24.9375C21.334 25.6875 16.959 25.5 14.959 25.5C12.8965 25.5 8.52148 25.6875 6.70898 24.9375C5.45898 24.4375 4.52148 23.5 4.02148 22.25C3.27148 20.4375 3.45898 16.0625 3.45898 14C3.45898 12 3.27148 7.625 4.02148 5.75C4.52148 4.5625 5.45898 3.625 6.70898 3.125C8.52148 2.375 12.8965 2.5625 14.959 2.5625C16.959 2.5625 21.334 2.375 23.209 3.125C24.3965 3.5625 25.334 4.5625 25.834 5.75C26.584 7.625 26.3965 12 26.3965 14C26.3965 16.0625 26.584 20.4375 25.834 22.25Z" fill="#343A40"/>
</svg>
