<svg width="332" height="327" viewBox="0 0 332 327" fill="none" xmlns="http://www.w3.org/2000/svg">
<path d="M250.235 27.2804C240.415 20.7204 225.515 12.3004 206.035 6.78037C142.615 -11.1896 89.4148 18.1404 82.9648 21.8304C36.9048 48.1904 18.0447 89.7804 11.3947 107.93C6.51475 121.25 -12.9352 179.61 18.6648 240.33C44.1948 289.39 90.6448 316.14 132.115 324.27C132.115 324.27 183.275 335.42 243.155 306.8C243.195 306.78 243.215 306.77 243.215 306.76C243.185 306.67 239.275 307.68 238.665 307.84C236.065 308.51 230.895 309.68 219.905 311.89C205.785 313.64 184.045 314.47 158.985 307.78C117.755 296.78 91.9648 271.97 81.1548 260.16C76.3548 254.3 34.1348 200.94 51.3548 130.8C69.2848 57.7804 135.885 30.8004 143.155 27.9704C193.275 8.48037 237.925 22.8504 250.235 27.2804Z" fill="black" stroke="black" stroke-miterlimit="10"/>
<path d="M128.085 277.74C135.955 283.18 150.075 291.34 165.935 294.95C220.355 307.35 259.315 284.07 264.485 281.01C301.375 259.17 315.745 225.9 321.835 211.16C326.965 198.73 341.865 153.51 316.005 101.48C295.755 60.7404 258.355 38.6804 225.135 31.9404C225.055 31.9204 225.005 31.9104 224.965 31.9104C181.805 25.9004 153.605 35.8904 136.245 45.9604C135.135 46.6004 134.045 47.2604 132.975 47.9404C133.875 47.6404 135.225 47.2204 136.865 46.7404C144.335 44.5804 171.325 37.1004 203.615 45.6004C214.745 48.5304 243.995 57.3404 265.955 85.0404C269.805 89.8904 303.615 134.1 289.825 192.2C275.465 252.69 222.115 275.04 216.295 277.38C176.155 293.52 137.945 281.4 128.085 277.73V277.74Z" fill="black" stroke="black" stroke-miterlimit="10"/>
<path d="M263.035 221.48C267.395 215.14 273.935 203.76 276.805 190.99C286.675 147.17 267.865 115.85 265.395 111.7C247.745 82.0505 220.945 70.5605 209.065 65.6805C199.055 61.5705 162.625 49.6805 120.805 70.5905C88.0549 86.9605 70.3748 117.12 65.0148 143.86C65.0048 143.92 64.9949 143.97 64.9849 144C60.2349 178.75 68.3248 201.42 76.4748 215.38C76.9948 216.27 77.5248 217.15 78.0748 218.01C77.8348 217.28 77.4848 216.2 77.1048 214.88C75.3548 208.87 69.2749 187.17 76.0549 161.16C78.3849 152.2 85.4249 128.64 107.675 110.91C111.575 107.8 147.085 80.5005 193.875 91.4905C242.585 102.93 260.685 145.82 262.585 150.5C275.655 182.77 265.975 213.55 263.045 221.49L263.035 221.48Z" fill="url(#paint0_linear_1840_29965)"/>
<defs>
<linearGradient id="paint0_linear_1840_29965" x1="63.5849" y1="140.03" x2="279.655" y2="140.03" gradientUnits="userSpaceOnUse">
<stop stop-color="#28D4F7"/>
<stop offset="0.76" stop-color="#00B9E7"/>
<stop offset="1" stop-color="#5092D1"/>
</linearGradient>
</defs>
</svg>
