<svg width="34" height="32" viewBox="0 0 34 32" fill="none" xmlns="http://www.w3.org/2000/svg">
<path d="M7.53333 1H28.8667C29.733 1 30.5639 1.34417 31.1765 1.95678C31.7892 2.5694 32.1333 3.40029 32.1333 4.26667V21.3333C32.1333 22.1997 31.7892 23.0306 31.1765 23.6432C30.5639 24.2558 29.733 24.6 28.8667 24.6H4.33333C4.31565 24.6 4.29869 24.593 4.28619 24.5805C4.27369 24.568 4.26666 24.551 4.26666 24.5333V4.26667C4.26666 3.40029 4.61083 2.5694 5.22345 1.95678C5.83607 1.34417 6.66696 1 7.53333 1Z" fill="#BBF1FF" stroke="black" stroke-width="2"/>
<path d="M33.1334 8.5332H25.6667C25.1009 8.5332 24.5583 8.75796 24.1582 9.15804C23.7581 9.55812 23.5334 10.1007 23.5334 10.6665V14.9332C23.5334 15.499 23.7581 16.0416 24.1582 16.4417C24.5583 16.8418 25.1009 17.0665 25.6667 17.0665H33.1334V8.5332Z" fill="#00B8F0"/>
<path d="M11.5 32C17.8513 32 23 26.8513 23 20.5C23 14.1487 17.8513 9 11.5 9C5.14873 9 0 14.1487 0 20.5C0 26.8513 5.14873 32 11.5 32Z" fill="white"/>
<path d="M16.5524 12.5345C15.979 12.1514 15.109 11.6598 13.9716 11.3375C10.2686 10.2883 7.16237 12.0008 6.78577 12.2162C4.09641 13.7554 2.99521 16.1837 2.60693 17.2435C2.322 18.0212 1.18635 21.4287 3.03141 24.974C4.52206 27.8386 7.23419 29.4004 9.65555 29.8751C9.65555 29.8751 12.6427 30.5262 16.139 28.8551C16.1413 28.8539 16.1425 28.8533 16.1425 28.8528C16.1407 28.8475 15.9124 28.9065 15.8768 28.9158C15.725 28.9549 15.4231 29.0233 14.7814 29.1523C13.957 29.2545 12.6876 29.3029 11.2244 28.9123C8.81709 28.27 7.31126 26.8214 6.68009 26.1319C6.39982 25.7897 3.93468 22.6741 4.94012 18.5788C5.98702 14.3153 9.87567 12.74 10.3002 12.5747C13.2266 11.4368 15.8336 12.2758 16.5524 12.5345Z" fill="black" stroke="black" stroke-width="0.0339324" stroke-miterlimit="10"/>
<path d="M9.42032 27.1584C9.87983 27.476 10.7043 27.9524 11.6303 28.1632C14.8078 28.8872 17.0826 27.528 17.3845 27.3493C19.5384 26.0741 20.3774 24.1315 20.733 23.2709C21.0326 22.5451 21.9025 19.9048 20.3926 16.8669C19.2103 14.4881 17.0265 13.2001 15.0869 12.8066C15.0822 12.8054 15.0793 12.8048 15.077 12.8048C12.5569 12.4539 10.9104 13.0372 9.89677 13.6252C9.83196 13.6625 9.76831 13.7011 9.70584 13.7408C9.75839 13.7233 9.83721 13.6987 9.93297 13.6707C10.3691 13.5446 11.945 13.1079 13.8304 13.6042C14.4802 13.7752 16.1881 14.2896 17.4703 15.907C17.6951 16.1902 19.6692 18.7715 18.864 22.1638C18.0256 25.6957 14.9106 27.0007 14.5707 27.1373C12.227 28.0797 9.99603 27.3721 9.42032 27.1578V27.1584Z" fill="black" stroke="black" stroke-width="0.0339324" stroke-miterlimit="10"/>
<path d="M17.2997 23.8734C17.5542 23.5032 17.9361 22.8387 18.1037 22.0931C18.68 19.5346 17.5817 17.7058 17.4375 17.4635C16.4069 15.7323 14.8421 15.0614 14.1484 14.7765C13.564 14.5365 11.4369 13.8423 8.99512 15.0632C7.0829 16.019 6.0506 17.78 5.73764 19.3413C5.73706 19.3448 5.73647 19.3477 5.73589 19.3495C5.45855 21.3784 5.93091 22.7021 6.40677 23.5172C6.43713 23.5692 6.46808 23.6206 6.50019 23.6708C6.48618 23.6281 6.46574 23.5651 6.44355 23.488C6.34137 23.1371 5.98638 21.8701 6.38225 20.3514C6.51829 19.8282 6.92934 18.4526 8.22848 17.4174C8.45619 17.2358 10.5296 15.6418 13.2615 16.2835C16.1056 16.9515 17.1624 19.4557 17.2734 19.729C18.0365 21.6132 17.4713 23.4104 17.3002 23.874L17.2997 23.8734Z" fill="url(#paint0_linear_1859_31534)"/>
<defs>
<linearGradient id="paint0_linear_1859_31534" x1="5.65415" y1="19.1177" x2="18.2701" y2="19.1177" gradientUnits="userSpaceOnUse">
<stop stop-color="#28D4F7"/>
<stop offset="0.76" stop-color="#00B9E7"/>
<stop offset="1" stop-color="#5092D1"/>
</linearGradient>
</defs>
</svg>
