<svg width="28" height="28" viewBox="0 0 28 28" fill="none" xmlns="http://www.w3.org/2000/svg">
<g clip-path="url(#clip0_202_2854)">
<path d="M17.5 21C15.05 21 13.125 19.075 13.125 16.625C13.125 14.175 15.05 12.25 17.5 12.25C19.95 12.25 21.875 14.175 21.875 16.625C21.875 19.075 19.95 21 17.5 21Z" fill="black"/>
<path d="M25.375 4.375H2.625C2.1 4.375 1.75 4.725 1.75 5.25V22.75C1.75 23.275 2.1 23.625 2.625 23.625H12.25V19.775C11.725 18.8125 11.375 17.7625 11.375 16.625C11.375 13.2125 14.0875 10.5 17.5 10.5C20.9125 10.5 23.625 13.2125 23.625 16.625C23.625 17.7625 23.275 18.8125 22.75 19.775V23.625H25.375C25.9 23.625 26.25 23.275 26.25 22.75V5.25C26.25 4.725 25.9 4.375 25.375 4.375ZM8.75 14H5.25C4.725 14 4.375 13.65 4.375 13.125C4.375 12.6 4.725 12.25 5.25 12.25H8.75C9.275 12.25 9.625 12.6 9.625 13.125C9.625 13.65 9.275 14 8.75 14ZM11.375 10.5H5.25C4.725 10.5 4.375 10.15 4.375 9.625C4.375 9.1 4.725 8.75 5.25 8.75H11.375C11.9 8.75 12.25 9.1 12.25 9.625C12.25 10.15 11.9 10.5 11.375 10.5Z" fill="black"/>
<path d="M17.5 22.7498C16.1875 22.7498 14.9625 22.3123 14 21.6123V27.1248C14 27.3873 14.175 27.6498 14.35 27.8248C14.6125 27.9998 14.875 27.9998 15.1375 27.9123L17.5 27.1248L19.8625 27.9123C19.95 27.9123 20.0375 27.9998 20.125 27.9998C20.3 27.9998 20.475 27.9123 20.65 27.8248C20.9125 27.6498 21 27.3873 21 27.1248V21.6123C20.0375 22.3123 18.8125 22.7498 17.5 22.7498Z" fill="black"/>
</g>
<defs>
<clipPath id="clip0_202_2854">
<rect width="28" height="28" fill="white"/>
</clipPath>
</defs>
</svg>
