<svg width="359" height="124" viewBox="0 0 359 124" fill="none" xmlns="http://www.w3.org/2000/svg">
<path d="M336.175 107.803H100.052C87.4689 107.803 77.2273 97.5909 77.2273 85.0442V47.6281C77.2273 35.0814 87.4689 24.8694 100.052 24.8694H336.175C348.758 24.8694 359 35.0814 359 47.6281V85.0442C359 97.5909 348.758 107.803 336.175 107.803ZM100.052 27.4056C88.867 27.4056 79.7652 36.4811 79.7652 47.6337V85.0498C79.7652 96.2024 88.867 105.278 100.052 105.278H336.175C347.36 105.278 356.462 96.2024 356.462 85.0498V47.6281C356.462 36.4755 347.36 27.4 336.175 27.4H100.052V27.4056Z" fill="white"/>
<path d="M331.094 21.0735H94.9704C83.1173 21.0735 73.4148 30.7424 73.4148 42.5669V79.983C73.4148 91.8019 83.1117 101.476 94.9704 101.476H331.094C342.947 101.476 352.65 91.8075 352.65 79.983V42.5613C352.65 30.7424 342.947 21.0735 331.094 21.0735Z" fill="#FFEE00"/>
<path d="M326.192 95.6089H90.0743C77.1095 95.6089 66.5591 85.089 66.5591 72.1616V34.7511C66.5591 21.8237 77.1095 11.3037 90.0743 11.3037H326.198C339.163 11.3037 349.713 21.8237 349.713 34.7511V72.1672C349.707 85.089 339.157 95.6089 326.192 95.6089ZM90.0743 15.2116C79.2712 15.2116 70.4783 23.9792 70.4783 34.7511V72.1672C70.4783 82.9391 79.2712 91.7066 90.0743 91.7066H326.198C337.001 91.7066 345.794 82.9391 345.794 72.1672V34.7511C345.794 23.9792 337.001 15.2116 326.198 15.2116H90.0743Z" fill="black"/>
<path d="M114.202 52.2976C114.202 53.7812 113.904 55.1025 113.309 56.2559C112.714 57.4092 111.922 58.3666 110.928 59.1224L114.202 69.1665C114.202 69.4296 114.1 69.6591 113.904 69.8607C113.702 70.0566 113.472 70.1742 113.202 70.2078H108.401C108.137 70.1742 107.924 70.0566 107.778 69.8607C107.627 69.6647 107.52 69.4296 107.452 69.1665L104.92 61.1043H102.64V69.1665C102.64 69.4296 102.539 69.6591 102.343 69.8607C102.146 70.0566 101.911 70.1742 101.647 70.2078H96.8852C96.6213 70.1742 96.3911 70.0566 96.1889 69.8607C95.9924 69.6647 95.8914 69.4296 95.8914 69.1665V40.6243C95.8914 40.3611 95.9924 40.1372 96.1889 39.958C96.3855 39.7789 96.6213 39.6725 96.8852 39.6389H104.943C106.139 39.6389 107.29 39.8349 108.401 40.2324C109.513 40.6299 110.501 41.2065 111.36 41.9624C112.225 42.7238 112.91 43.642 113.427 44.7337C113.938 45.8199 114.196 47.0572 114.196 48.4457V52.2976H114.202ZM102.64 55.3153H104.92C105.482 55.3153 106.043 55.0409 106.605 54.4979C107.166 53.9548 107.447 53.1542 107.447 52.096V48.5856C107.447 47.5275 107.166 46.7325 106.605 46.1838C106.043 45.6407 105.482 45.3664 104.92 45.3664H102.64V55.3153Z" fill="black"/>
<path d="M131.366 39.6333C131.597 39.6333 131.799 39.7173 131.962 39.8796C132.124 40.0476 132.225 40.2436 132.259 40.4731V44.577C132.225 44.7729 132.124 44.9577 131.962 45.12C131.793 45.288 131.597 45.3664 131.366 45.3664H123.876V52.8854H129.137C129.401 52.8854 129.609 52.975 129.755 53.1598C129.906 53.3389 129.996 53.5293 130.03 53.7308V57.8347C129.996 58.0642 129.906 58.2658 129.755 58.4281C129.609 58.5961 129.401 58.6745 129.137 58.6745H123.876V64.4131H131.366C131.597 64.4131 131.799 64.4971 131.962 64.6595C132.124 64.8218 132.225 65.0234 132.259 65.253V69.3568C132.225 69.5527 132.124 69.7431 131.962 69.9279C131.793 70.107 131.597 70.2022 131.366 70.2022H118.121C117.857 70.1686 117.627 70.051 117.425 69.8551C117.228 69.6591 117.127 69.424 117.127 69.1608V40.6243C117.127 40.3611 117.228 40.1372 117.425 39.958C117.621 39.7789 117.851 39.6725 118.121 39.6389H131.366V39.6333Z" fill="black"/>
<path d="M144.612 57.8906C144.348 57.8906 144.14 57.8066 143.994 57.6387C143.843 57.4707 143.753 57.2748 143.719 57.0396V53.5404C143.753 53.3389 143.843 53.1485 143.994 52.9694C144.146 52.7846 144.348 52.695 144.612 52.695H152.394C152.596 52.695 152.759 52.7846 152.894 52.9694C153.029 53.1541 153.113 53.3277 153.147 53.4901V69.4631C153.147 69.6591 153.085 69.8271 152.973 69.9614C152.855 70.0958 152.714 70.1742 152.546 70.2078H149.497C149.328 70.1742 149.188 70.0902 149.07 69.9614C148.952 69.8271 148.896 69.6647 148.896 69.4687V68.6289C148.234 69.2224 147.487 69.6927 146.661 70.0398C145.83 70.3869 144.887 70.5605 143.831 70.5605C142.473 70.5605 141.221 70.3365 140.081 69.8942C138.941 69.4463 137.953 68.8305 137.127 68.0411C136.296 67.2517 135.651 66.3167 135.19 65.2473C134.724 64.178 134.494 63.0134 134.494 61.7593V48.0929C134.494 46.8388 134.724 45.6743 135.19 44.6049C135.656 43.5356 136.302 42.6006 137.133 41.8112C137.964 41.0217 138.947 40.4003 140.092 39.958C141.237 39.5101 142.49 39.2917 143.848 39.2917C145.207 39.2917 146.454 39.5157 147.582 39.958C148.711 40.4059 149.688 41.0217 150.519 41.8112C151.35 42.6006 151.996 43.5356 152.456 44.6049C152.922 45.6799 153.152 46.8388 153.152 48.0929V49.0839C153.152 49.347 153.051 49.571 152.855 49.7501C152.652 49.9293 152.422 50.0413 152.153 50.0692H147.352C147.088 50.0357 146.852 49.9293 146.65 49.7501C146.448 49.571 146.353 49.347 146.353 49.0839V47.7458C146.353 46.7548 146.077 46.0662 145.533 45.6687C144.988 45.2712 144.415 45.0752 143.82 45.0752C143.191 45.0752 142.607 45.2712 142.057 45.6687C141.513 46.0662 141.237 46.7604 141.237 47.7458V62.0449C141.237 63.0358 141.513 63.7357 142.057 64.15C142.602 64.5643 143.191 64.7658 143.82 64.7658C144.415 64.7658 144.994 64.5587 145.555 64.15C146.117 63.7357 146.397 63.0358 146.397 62.0449V57.8906H144.612Z" fill="black"/>
<path d="M157.066 40.6243C157.066 40.3611 157.167 40.1372 157.363 39.958C157.56 39.7789 157.79 39.6725 158.06 39.6389H162.871C163.135 39.6725 163.36 39.7789 163.54 39.958C163.719 40.1372 163.815 40.3611 163.815 40.6243V69.1721C163.815 69.4352 163.725 69.6647 163.54 69.8663C163.36 70.0622 163.135 70.1798 162.871 70.2134H158.06C157.796 70.1798 157.565 70.0622 157.363 69.8663C157.167 69.6703 157.066 69.4352 157.066 69.1721V40.6243Z" fill="black"/>
<path d="M167.038 61.2554C167.038 60.9923 167.128 60.7628 167.313 60.5612C167.493 60.3653 167.717 60.2477 167.981 60.2141H172.793C173.057 60.2477 173.287 60.3653 173.489 60.5612C173.686 60.7572 173.787 60.9923 173.787 61.2554C173.787 61.5858 173.804 61.9553 173.837 62.3696C173.871 62.7839 173.978 63.1702 174.158 63.5341C174.337 63.898 174.629 64.1948 175.028 64.4243C175.427 64.6539 175.971 64.7714 176.667 64.7714C177.425 64.7714 178.015 64.6371 178.43 64.3739C178.846 64.1108 179.144 63.8029 179.323 63.4613C179.503 63.1142 179.615 62.7951 179.643 62.4984C179.677 62.2016 179.694 62.0057 179.694 61.9049C179.694 61.1155 179.379 60.4548 178.751 59.9286C178.122 59.4023 177.347 58.8872 176.42 58.3945C175.494 57.9018 174.483 57.3867 173.394 56.8605C172.305 56.3342 171.294 55.6791 170.367 54.9065C169.441 54.1339 168.661 53.1933 168.037 52.0848C167.408 50.9818 167.094 49.6213 167.094 48.0033C167.094 47.0459 167.201 46.0494 167.414 45.008C167.627 43.9667 168.06 43.0317 168.705 42.1863C169.351 41.3465 170.261 40.6522 171.434 40.1092C172.608 39.5661 174.152 39.2917 176.072 39.2917C178.026 39.2917 179.576 39.6389 180.738 40.3331C181.895 41.0273 182.782 41.8504 183.394 42.8077C184.006 43.7651 184.41 44.7561 184.607 45.775C184.803 46.7996 184.921 47.6562 184.955 48.3504C184.955 48.6136 184.865 48.8431 184.68 49.0447C184.5 49.2406 184.276 49.3582 184.012 49.3918H179.2C178.936 49.3582 178.706 49.2406 178.503 49.0447C178.307 48.8487 178.206 48.6136 178.206 48.3504C178.172 48.0201 178.122 47.6674 178.054 47.2867C177.987 46.906 177.875 46.5533 177.706 46.2229C177.543 45.8926 177.324 45.6239 177.06 45.4055C176.797 45.1928 176.432 45.0864 175.971 45.0864C175.112 45.0864 174.539 45.3495 174.259 45.8758C173.978 46.4021 173.837 46.9956 173.837 47.6562C173.837 48.6136 174.135 49.3862 174.73 49.9797C175.325 50.5731 176.072 51.1162 176.965 51.6145C177.858 52.1072 178.818 52.5943 179.84 53.0757C180.867 53.5516 181.822 54.1563 182.72 54.8841C183.613 55.612 184.36 56.5077 184.955 57.5827C185.55 58.6576 185.848 60.0181 185.848 61.6642C185.848 63.3158 185.584 64.7098 185.056 65.8464C184.528 66.9829 183.815 67.9011 182.922 68.5897C182.03 69.284 181.019 69.7879 179.896 70.0958C178.773 70.4093 177.616 70.5661 176.42 70.5661C175.297 70.5661 174.174 70.4037 173.046 70.0734C171.923 69.7431 170.912 69.2168 170.019 68.489C169.127 67.7611 168.408 66.8094 167.863 65.6224C167.313 64.4187 167.038 62.9687 167.038 61.2554Z" fill="black"/>
<path d="M186.982 45.372C186.752 45.372 186.55 45.288 186.387 45.1256C186.218 44.9633 186.123 44.7785 186.089 44.5826V40.4787C186.123 40.2492 186.218 40.0532 186.387 39.8853C186.55 39.7229 186.752 39.6389 186.982 39.6389H201.867C202.097 39.6389 202.299 39.7229 202.462 39.8853C202.625 40.0532 202.726 40.2492 202.76 40.4787V44.5826C202.726 44.7785 202.625 44.9633 202.462 45.1256C202.294 45.2936 202.097 45.372 201.867 45.372H197.796V69.1665C197.796 69.4296 197.706 69.6591 197.521 69.8607C197.341 70.0566 197.117 70.1742 196.853 70.2078H192.041C191.777 70.1742 191.547 70.0566 191.345 69.8607C191.148 69.6647 191.047 69.4296 191.047 69.1665V45.372H186.982Z" fill="black"/>
<path d="M219.481 39.6333C219.711 39.6333 219.913 39.7173 220.076 39.8796C220.239 40.0476 220.34 40.2436 220.374 40.4731V44.577C220.34 44.7729 220.239 44.9577 220.076 45.12C219.908 45.288 219.711 45.3664 219.481 45.3664H211.991V52.8854H217.252C217.516 52.8854 217.724 52.975 217.87 53.1598C218.021 53.3389 218.111 53.5293 218.145 53.7308V57.8347C218.111 58.0642 218.021 58.2658 217.87 58.4281C217.718 58.5961 217.516 58.6745 217.252 58.6745H211.991V64.4131H219.481C219.711 64.4131 219.913 64.4971 220.076 64.6595C220.239 64.8218 220.34 65.0234 220.374 65.253V69.3568C220.34 69.5527 220.239 69.7431 220.076 69.9279C219.908 70.107 219.711 70.2022 219.481 70.2022H206.236C205.972 70.1686 205.741 70.051 205.539 69.8551C205.343 69.6591 205.242 69.424 205.242 69.1608V40.6243C205.242 40.3611 205.343 40.1372 205.539 39.958C205.736 39.7789 205.966 39.6725 206.236 39.6389H219.481V39.6333Z" fill="black"/>
<path d="M242.154 52.2976C242.154 53.7812 241.856 55.1025 241.261 56.2559C240.666 57.4092 239.874 58.3666 238.88 59.1224L242.154 69.1665C242.154 69.4296 242.053 69.6591 241.856 69.8607C241.654 70.0566 241.424 70.1742 241.154 70.2078H236.354C236.09 70.1742 235.876 70.0566 235.73 69.8607C235.579 69.6647 235.472 69.4296 235.405 69.1665L232.873 61.1043H230.593V69.1665C230.593 69.4296 230.492 69.6591 230.295 69.8607C230.099 70.0566 229.863 70.1742 229.599 70.2078H224.838C224.574 70.1742 224.343 70.0566 224.141 69.8607C223.945 69.6647 223.844 69.4296 223.844 69.1665V40.6243C223.844 40.3611 223.945 40.1372 224.141 39.958C224.338 39.7789 224.574 39.6725 224.838 39.6389H232.895C234.091 39.6389 235.242 39.8349 236.354 40.2324C237.466 40.6299 238.454 41.2065 239.313 41.9624C240.177 42.7238 240.863 43.642 241.379 44.7337C241.89 45.8199 242.148 47.0572 242.148 48.4457V52.2976H242.154ZM230.593 55.3153H232.873C233.434 55.3153 233.995 55.0409 234.557 54.4979C235.118 53.9548 235.399 53.1542 235.399 52.096V48.5856C235.399 47.5275 235.118 46.7325 234.557 46.1838C233.995 45.6407 233.434 45.3664 232.873 45.3664H230.593V55.3153Z" fill="black"/>
<path d="M261.009 57.2972V69.1721C261.009 69.4352 260.908 69.6647 260.711 69.8663C260.515 70.0622 260.279 70.1798 260.015 70.2134H255.254C254.99 70.1798 254.759 70.0622 254.557 69.8663C254.361 69.6703 254.26 69.4352 254.26 69.1721V40.6243C254.26 40.3611 254.361 40.1372 254.557 39.958C254.754 39.7789 254.984 39.6725 255.254 39.6389H259.47C259.734 39.6725 259.948 39.7901 260.116 39.986C260.279 40.182 260.414 40.4171 260.515 40.6803L265.871 52.7007V40.6243C265.871 40.3611 265.961 40.1372 266.147 39.958C266.326 39.7789 266.556 39.6725 266.82 39.6389H271.621C271.885 39.6725 272.121 39.7789 272.323 39.958C272.525 40.1372 272.621 40.3611 272.621 40.6243V69.2168C272.621 69.48 272.519 69.7039 272.323 69.8831C272.121 70.0622 271.891 70.1742 271.621 70.2022H267.371C267.107 70.1686 266.888 70.051 266.719 69.8551C266.551 69.6591 266.422 69.424 266.321 69.1609L261.009 57.2972Z" fill="black"/>
<path d="M285.641 70.5549C284.282 70.5549 283.03 70.3309 281.885 69.8886C280.739 69.4407 279.751 68.8249 278.926 68.0355C278.095 67.2461 277.449 66.3111 276.983 65.2417C276.517 64.1724 276.287 63.0078 276.287 61.7537V48.0929C276.287 46.8388 276.517 45.6743 276.983 44.6049C277.449 43.5356 278.095 42.6006 278.926 41.8112C279.757 41.0217 280.739 40.4003 281.885 39.958C283.03 39.5101 284.282 39.2917 285.641 39.2917C287 39.2917 288.247 39.5157 289.375 39.958C290.504 40.4059 291.481 41.0217 292.312 41.8112C293.143 42.6006 293.789 43.5356 294.249 44.6049C294.715 45.6799 294.945 46.8388 294.945 48.0929V61.7481C294.945 63.0022 294.709 64.1668 294.249 65.2361C293.783 66.3111 293.137 67.2405 292.312 68.0299C291.481 68.8193 290.504 69.4407 289.375 69.883C288.247 70.3309 287 70.5549 285.641 70.5549ZM285.619 64.7658C286.214 64.7658 286.792 64.5699 287.354 64.1724C287.915 63.7749 288.196 63.0694 288.196 62.0449V47.7962C288.196 46.7716 287.915 46.0662 287.354 45.6687C286.792 45.2712 286.214 45.0752 285.619 45.0752C284.99 45.0752 284.406 45.2712 283.856 45.6687C283.311 46.0662 283.036 46.7716 283.036 47.7962V62.0449C283.036 63.0694 283.311 63.7749 283.856 64.1724C284.4 64.5699 284.99 64.7658 285.619 64.7658Z" fill="black"/>
<path d="M312.262 39.6333C312.823 39.7005 313.154 40.014 313.255 40.5739L315.984 56.0095L318.219 40.5739C318.219 40.3107 318.32 40.098 318.517 39.93C318.713 39.7677 318.943 39.6669 319.213 39.6333H323.974C324.238 39.6669 324.468 39.7677 324.67 39.93C324.867 40.098 324.968 40.3107 324.968 40.5739L319.808 69.1217C319.707 69.7823 319.376 70.1462 318.814 70.2078H313.952C313.458 70.1742 313.126 69.8103 312.958 69.1217L310.673 58.0418L308.393 69.1217C308.23 69.8159 307.899 70.1798 307.399 70.2078H302.537C301.975 70.1406 301.644 69.7767 301.543 69.1217L296.383 40.5739C296.383 40.3107 296.484 40.098 296.68 39.93C296.877 39.7677 297.107 39.6669 297.376 39.6333H302.138C302.402 39.6669 302.632 39.7677 302.834 39.93C303.031 40.098 303.132 40.3107 303.132 40.5739L305.366 56.0095L308.095 40.5739C308.196 40.014 308.528 39.7005 309.089 39.6333H312.262Z" fill="black"/>
<path d="M254.097 124C250.801 124 248.123 121.329 248.123 118.043C248.123 114.757 250.801 112.086 254.097 112.086C257.393 112.086 260.071 114.757 260.071 118.043C260.071 121.329 257.393 124 254.097 124ZM254.097 115.994C252.963 115.994 252.042 116.912 252.042 118.043C252.042 119.174 252.963 120.092 254.097 120.092C255.231 120.092 256.152 119.174 256.152 118.043C256.152 116.912 255.231 115.994 254.097 115.994Z" fill="white"/>
<path d="M326.984 6.4385C323.789 6.4385 322.11 5.67148 320.628 4.99404C319.353 4.41178 318.247 3.90789 315.906 3.90789C313.564 3.90789 312.458 4.41178 311.183 4.99404C309.701 5.67148 308.022 6.4385 304.827 6.4385C301.632 6.4385 299.954 5.67148 298.471 4.99404C297.191 4.41178 296.091 3.90789 293.749 3.90789C292.665 3.90789 291.79 3.0345 291.79 1.95395C291.79 0.873397 292.665 0 293.749 0C296.95 0 298.628 0.767022 300.105 1.44446C301.385 2.02673 302.486 2.53061 304.827 2.53061C307.169 2.53061 308.275 2.02673 309.549 1.44446C311.032 0.767022 312.711 0 315.911 0C319.106 0 320.785 0.767022 322.267 1.44446C323.542 2.02673 324.648 2.53061 326.989 2.53061C328.073 2.53061 328.949 3.40401 328.949 4.48456C328.943 5.56511 328.067 6.4385 326.984 6.4385Z" fill="white"/>
<path d="M24.5315 100.357C25.4636 102.759 27.4119 107.68 28.8437 110.457L28.9953 110.753C31.0223 114.689 32.7685 116.996 36.6653 116.996C38.6979 116.996 41.32 116.369 44.8687 115.02C49.4392 113.278 48.7542 110.289 48.0186 107.831C47.0529 104.617 43.8917 103.318 39.5514 104.27C38.9056 104.186 36.6484 100.513 35.649 97.882C35.6658 97.8765 35.6827 97.8764 35.7051 97.8708C31.9319 98.0556 28.1587 98.6211 24.3855 100.368C24.436 100.362 24.4866 100.362 24.5315 100.357Z" fill="white"/>
<path d="M82.7806 64.1108C80.3999 55.7351 76.8569 48.1937 72.8029 42.8861C68.384 37.0971 63.7405 34.5384 59.7258 35.6694C57.4911 36.302 55.6887 38.0152 54.4141 40.6578C53.5831 41.8168 43.9255 54.7218 22.6001 61.3898V61.3842L20.5619 62.0001C20.5338 62.0057 20.5057 62.0169 20.4776 62.0281C20.472 62.0281 20.4664 62.0337 20.4608 62.0337L19.714 62.2576C19.1132 62.4368 18.5405 62.6271 17.9734 62.8231C17.687 62.9239 17.4063 63.0246 17.1199 63.131C16.4967 63.3606 15.8846 63.6013 15.3063 63.8532C14.9919 63.9876 14.6887 64.1276 14.3855 64.2675C13.9026 64.4915 13.4365 64.721 12.9874 64.9562C12.6224 65.1465 12.2686 65.3425 11.9205 65.544C11.5724 65.7456 11.2411 65.9472 10.9098 66.1543C10.5168 66.4007 10.135 66.6582 9.7644 66.9213C9.41628 67.1677 9.07938 67.4196 8.75372 67.6772C8.46174 67.9067 8.181 68.1418 7.90587 68.3826C7.5409 68.6961 7.19839 69.0152 6.86711 69.34C6.6762 69.5303 6.4853 69.7263 6.3 69.9222C5.94065 70.3085 5.60376 70.7004 5.28371 71.098C5.16018 71.2547 5.03104 71.4115 4.90751 71.5738C4.55377 72.0441 4.23372 72.52 3.94175 73.0015C3.89121 73.0855 3.82945 73.1583 3.77891 73.2423C3.72276 73.343 3.67785 73.4438 3.6217 73.5446C3.44763 73.8525 3.2848 74.166 3.12758 74.4796C3.03775 74.6587 2.95352 74.8323 2.8693 75.0171C2.70085 75.3922 2.55486 75.7617 2.41449 76.1424C2.34711 76.3271 2.27973 76.5119 2.21797 76.6967C2.09444 77.0718 1.98214 77.4525 1.88669 77.8276C1.83616 78.0291 1.78562 78.2307 1.7407 78.4323C1.66209 78.7962 1.5891 79.1657 1.53295 79.5296C1.49926 79.7592 1.47119 79.9887 1.44311 80.2238C1.40381 80.5654 1.37012 80.9125 1.35328 81.254C1.33643 81.5115 1.33082 81.7691 1.3252 82.0322C1.31959 82.3401 1.3252 82.6481 1.33643 82.956C1.34766 83.2359 1.36451 83.5159 1.38696 83.8014C1.41504 84.1373 1.44873 84.4788 1.49365 84.8092C1.52734 85.0443 1.56103 85.2739 1.60033 85.509C1.66771 85.9065 1.74632 86.2984 1.83616 86.6847C1.85862 86.7799 1.86985 86.8695 1.89231 86.9647L1.88108 86.9703V86.9759C1.88108 86.9815 1.88108 86.9815 1.88108 86.9815L2.06075 87.6029L2.07198 87.5973C2.20674 88.0228 2.36396 88.4483 2.5324 88.8682C4.38532 93.6215 7.59143 96.6616 11.4433 98.4252C14.1496 99.7409 17.4119 100.542 21.2862 100.542C22.2688 100.542 23.3132 100.469 24.3744 100.362C28.1476 98.6156 31.9208 98.0501 35.694 97.8653C55.7336 93.8567 71.096 99.1194 71.8091 99.4106C71.8203 99.4162 71.8315 99.4218 71.8371 99.4218C73.3139 100.211 74.7794 100.631 76.1999 100.631C76.8456 100.631 77.4801 100.547 78.109 100.368C82.1236 99.2314 84.729 94.6237 85.4421 87.3846C86.1102 80.7557 85.1613 72.4864 82.7806 64.1108Z" fill="#FFEE00"/>
<path d="M82.1235 64.2618C87.0646 81.6514 85.5205 97.3166 78.6704 99.2537C71.8202 101.191 62.258 88.661 57.3169 71.2714C52.3758 53.8818 53.9199 38.2167 60.77 36.2795C67.6202 34.348 77.1824 46.8723 82.1235 64.2618Z" fill="white"/>
<path d="M77.2387 101.409C69.4732 101.409 60.4108 89.3328 55.4304 71.8088C52.9767 63.17 51.9941 54.6376 52.6678 47.7904C53.4034 40.3273 56.0929 35.574 60.2367 34.3983C64.3805 33.2282 69.17 35.8708 73.7237 41.839C77.9012 47.3145 81.5565 55.0855 84.0102 63.7243C86.4639 72.3631 87.4465 80.8955 86.7728 87.7427C86.0372 95.2058 83.3477 99.9591 79.2095 101.135C78.5638 101.32 77.9068 101.409 77.2387 101.409ZM62.1963 38.0431C61.8875 38.0431 61.5899 38.0823 61.3036 38.1606C58.8892 38.8437 57.1205 42.5836 56.5702 48.1711C55.9413 54.5424 56.8734 62.5598 59.2036 70.7395C64.1672 88.1906 73.1791 98.7778 78.137 97.3725C80.5514 96.6895 82.3201 92.9495 82.8704 87.362C83.4993 80.9907 82.5616 72.9734 80.237 64.7937C77.9124 56.614 74.4874 49.3021 70.6018 44.2072C67.5922 40.2658 64.5321 38.0431 62.1963 38.0431Z" fill="black"/>
<path d="M68.3841 68.6286C70.6413 76.5732 69.9731 83.7171 66.8905 84.5905C63.808 85.4639 59.4789 79.7309 57.2217 71.7863C54.9645 63.8417 55.6327 56.6978 58.7152 55.8244C61.7922 54.9566 66.1269 60.6897 68.3841 68.6286Z" fill="#5294FF"/>
<path d="M66.2279 86.6397C61.7416 86.6397 57.4462 79.7421 55.335 72.3239C54.1784 68.2536 53.7123 64.2281 54.0155 60.9753C54.504 55.7461 56.8398 54.3296 58.1818 53.9489C59.5294 53.5682 62.2582 53.557 65.425 57.7504C67.3958 60.3594 69.114 64.0322 70.2707 68.1024C71.4274 72.1727 71.899 76.1982 71.5902 79.451C71.1017 84.6802 68.7659 86.0967 67.4239 86.4774C67.0253 86.5838 66.6266 86.6397 66.2279 86.6397ZM59.3553 57.6945C59.3104 57.6945 59.2767 57.7001 59.243 57.7057C58.85 57.8176 58.1369 58.9038 57.9067 61.3336C57.6484 64.0714 58.0863 67.6881 59.097 71.2489C61.4047 79.3726 65.2846 83.0006 66.3515 82.7038C66.7445 82.5919 67.4576 81.5113 67.6878 79.0759C67.9461 76.3381 67.5081 72.7214 66.4975 69.1606C65.4868 65.5998 63.9539 62.2966 62.2919 60.0963C60.9331 58.3047 59.8326 57.6945 59.3553 57.6945Z" fill="black"/>
<path d="M20.6012 101.314C9.32087 101.314 2.99849 94.8308 0.780602 87.9668L0.769373 87.9724L0.584081 87.3285V87.3229V87.3173L0.595311 87.3117C-0.634353 82.3681 0.0450501 77.3685 2.53807 73.1582C5.69926 67.8171 11.4882 63.926 19.7477 61.5913C44.2287 54.6713 54.7117 39.6108 54.8184 39.4597C55.4304 38.5639 56.6489 38.3343 57.5417 38.939C58.44 39.5436 58.6702 40.7586 58.0638 41.6544C57.609 42.3206 46.66 58.0473 20.8202 65.348C13.5657 67.3972 8.54601 70.6948 5.91262 75.1402C3.91372 78.5218 3.39715 82.5696 4.45275 86.5783C6.74363 94.0246 14.5652 100.318 29.8321 96.0009C55.6607 88.7002 73.561 96.2585 74.3134 96.5832C75.3072 97.0143 75.762 98.1676 75.3297 99.153C74.8973 100.138 73.7463 100.597 72.7524 100.166C72.5784 100.088 55.3069 92.8601 30.9046 99.7633C27.092 100.838 23.6669 101.314 20.6012 101.314Z" fill="black"/>
<path d="M20.8258 101.208C12.162 101.208 3.75653 97.7141 0.696412 87.6644C-1.72361 78.5218 1.825 66.9828 18.9673 61.8208L21.9432 60.925L21.4659 63.9875C20.1296 72.6207 22.9876 82.5472 26.4295 88.6106C26.525 88.6498 26.7046 88.6946 26.8955 88.6666C44.3747 86.3599 54.9139 85.3466 68.1875 91.2812C69.1758 91.7235 69.6193 92.8768 69.1758 93.8622C69.0073 94.2317 68.7434 94.5228 68.4234 94.7188C72.0001 95.5978 74.0663 96.4712 74.3078 96.5776C75.3016 97.0087 75.7564 98.162 75.3241 99.1474C74.8917 100.138 73.7407 100.592 72.7468 100.161C72.5784 100.088 55.3013 92.86 30.899 99.7576C27.7097 100.659 24.2453 101.208 20.8258 101.208ZM17.266 66.5237C2.06083 72.3408 3.58247 83.2415 4.46963 86.5951C6.70436 93.935 14.5596 100.312 29.8378 95.9953C44.313 91.9027 56.2952 92.4793 64.1673 93.8342C52.915 89.4784 43.0777 90.475 27.4121 92.5409C25.9186 92.7425 23.9926 92.2274 23.0886 90.6429C19.9162 85.117 16.727 75.8064 17.266 66.5237Z" fill="black"/>
<path d="M36.4576 118.278C32.4374 118.278 30.6406 115.898 28.5519 111.839L28.3946 111.532C26.435 107.724 23.5209 100.009 23.3974 99.6847C23.0156 98.6769 23.5321 97.546 24.5428 97.1708C25.5479 96.7901 26.6821 97.2996 27.0639 98.313C27.092 98.3914 30.0173 106.146 31.8759 109.751L32.0331 110.059C34.3745 114.605 35.0034 115.831 43.5156 112.59C44.88 112.069 46.4185 111.145 45.9805 109.684C45.492 108.049 43.1506 106.537 40.8653 107.036C35.9691 108.111 33.2628 99.9142 32.5497 97.378C32.2577 96.3422 32.8641 95.2617 33.9029 94.9706C34.9416 94.6794 36.0253 95.2841 36.3229 96.3198C37.3392 99.9142 39.2146 103.117 40.0343 103.217C44.5094 102.238 48.7374 105.244 49.7369 108.564C50.4949 111.1 49.6302 114.448 44.9137 116.24C41.2528 117.628 38.552 118.278 36.4576 118.278Z" fill="black"/>
<path d="M7.77121 83.1743C7.6926 83.1743 7.61399 83.1687 7.52976 83.1575C6.45732 83.0231 5.69369 82.0489 5.82283 80.9796C5.85091 80.7668 6.53593 75.728 12.5495 71.1259C13.403 70.4708 14.6382 70.6332 15.2952 71.4898C15.9521 72.3464 15.7893 73.5725 14.9302 74.2276C10.2811 77.7827 9.71396 81.4219 9.70835 81.4555C9.59043 82.4465 8.74258 83.1743 7.77121 83.1743Z" fill="black"/>
<path d="M24.7169 70.2581C23.8354 70.2581 23.038 69.6646 22.8191 68.7744C22.5608 67.7275 23.1953 66.6693 24.2452 66.4062C24.3856 66.3726 38.4678 62.8174 47.5864 55.6455C48.4342 54.9792 49.6695 55.1248 50.3377 55.9702C51.0059 56.8156 50.8599 58.0473 50.012 58.7136C40.2196 66.4118 25.8006 70.0453 25.1942 70.1965C25.0313 70.2413 24.8741 70.2581 24.7169 70.2581Z" fill="black"/>
<path d="M55.8795 28.0888C55.4191 28.0888 54.9587 27.9264 54.5825 27.6017C53.7739 26.885 53.6953 25.6533 54.4084 24.8415L70.0628 7.13843C70.7759 6.33221 72.0167 6.25383 72.8309 6.96487C73.6395 7.6815 73.7181 8.91321 73.005 9.72502L57.3506 27.4281C56.9632 27.8648 56.4185 28.0888 55.8795 28.0888Z" fill="white"/>
<path d="M95.7565 118.956C95.4814 118.956 95.2006 118.9 94.9367 118.776L84.8355 114.124C83.8529 113.67 83.4262 112.511 83.881 111.532C84.3358 110.552 85.4981 110.121 86.4807 110.58L96.5819 115.232C97.5645 115.686 97.9912 116.845 97.5364 117.825C97.2052 118.53 96.4977 118.956 95.7565 118.956Z" fill="white"/>
<path d="M92.5674 83.5493C91.596 83.5493 90.7482 82.8271 90.6246 81.8417C90.4899 80.7723 91.2479 79.7926 92.326 79.6582L98.4743 78.8856C99.5523 78.7512 100.529 79.507 100.664 80.582C100.799 81.6513 100.041 82.6311 98.9628 82.7655L92.8145 83.5381C92.7302 83.5437 92.6516 83.5493 92.5674 83.5493Z" fill="black"/>
<path d="M302.177 119.997H282.463C281.38 119.997 280.504 119.124 280.504 118.043C280.504 116.963 281.38 116.089 282.463 116.089H302.177C303.261 116.089 304.137 116.963 304.137 118.043C304.137 119.124 303.255 119.997 302.177 119.997Z" fill="white"/>
</svg>
