<svg width="40" height="41" viewBox="0 0 40 41" fill="none" xmlns="http://www.w3.org/2000/svg">
<circle cx="20" cy="20.4625" r="20" fill="#D4ECFF"/>
<path fill-rule="evenodd" clip-rule="evenodd" d="M25.4194 11.9205C25.4194 12.5274 25.4194 13.2134 25.2671 13.8045C24.838 13.7273 24.6568 13.2988 24.4129 12.4624L24.3977 12.4124C24.1286 11.5265 23.7662 10.3334 22.3226 10.3334C21.6258 10.3334 21.1613 10.4495 20.7742 10.5657L20.6841 10.5917C20.4505 10.6595 20.2405 10.7205 20 10.7205C19.7595 10.7205 19.5495 10.6595 19.3159 10.5917L19.2258 10.5657C18.8387 10.4495 18.3742 10.3334 17.6774 10.3334C16.2452 10.3334 15.8581 11.5721 15.5871 12.4624C15.2962 13.3352 15.1419 13.7639 14.6749 13.8126C14.5419 13.3491 14.5419 12.9488 14.5419 12.3076C14.5419 10.3334 15.6645 9.17214 16.6323 8.78504C16.7097 8.74633 16.7871 8.70762 16.8258 8.63021C17.2516 7.97214 18.0258 7.23666 20 7.23666C23.6387 7.23666 25.4194 8.78504 25.4194 11.9205ZM14.7455 14.5841C14.7118 14.626 14.6701 14.6618 14.6224 14.6879C14.5582 14.7952 14.5419 14.9778 14.5419 15.4044C14.5419 16.7206 15.3548 16.8754 15.4323 16.8754C15.5871 16.9141 15.7419 17.0302 15.7807 17.1851C15.9553 18.0001 16.2831 19.0339 16.9946 19.8259C17.1461 19.8557 17.2515 19.9608 17.2815 20.1121C17.4473 20.2599 17.6302 20.3952 17.8323 20.5141C17.9871 20.5915 18.1032 20.6689 18.2193 20.7464L18.2194 20.7464C18.6065 21.0173 18.9161 21.2109 19.9613 21.2109C21.0065 21.2109 21.3161 21.0173 21.7032 20.7464L21.7032 20.7464C21.8194 20.6689 21.9355 20.5915 22.0903 20.5141C22.3363 20.3695 22.5551 20.2018 22.7498 20.0175C22.7838 19.9471 22.8383 19.8924 22.9084 19.8581C23.646 19.0718 23.9947 18.0389 24.1419 17.1851C24.1807 17.0302 24.3355 16.8754 24.4903 16.8754C24.5677 16.8754 25.3806 16.7206 25.3806 15.4044C25.3806 14.8667 25.2255 14.6391 25.1688 14.5739C24.2307 14.4365 23.9396 13.5201 23.6928 12.7431L23.6774 12.6947C23.4064 11.727 23.1742 11.1076 22.3226 11.1076C21.8318 11.1076 21.4793 11.1906 21.1715 11.263C21.1152 11.2763 21.0604 11.2892 21.0064 11.3011C20.6581 11.4173 20.3871 11.4947 20 11.4947C19.6129 11.4947 19.3419 11.4173 18.9935 11.3011C18.9396 11.2892 18.8848 11.2763 18.8285 11.263C18.5207 11.1906 18.1682 11.1076 17.6774 11.1076C16.8258 11.1076 16.5935 11.727 16.3226 12.6947L16.3072 12.7431L16.3072 12.7431C16.053 13.5433 15.7518 14.4913 14.7455 14.5841ZM13.8065 12.2689C13.8065 13.0253 13.8065 13.5806 14.0247 14.309C13.9088 14.5377 13.8065 14.8769 13.8065 15.3657C13.8065 16.7593 14.5419 17.3399 15.0839 17.5335C15.3534 18.7196 15.8483 19.6617 16.5161 20.3597V21.7915C16.5161 22.0538 16.4252 22.3122 16.2488 22.5635L16.2452 22.5657C16.1928 22.605 16.1537 22.6576 16.1294 22.7174C15.8355 23.0628 15.3781 23.3933 14.7719 23.7004C14.6953 23.6996 14.6158 23.7214 14.5419 23.7657C14.4972 23.7925 14.4608 23.8255 14.4326 23.8628C13.6834 24.2021 12.745 24.5093 11.6387 24.7721C8 25.6237 8 27.985 8 30.0753H8.3871L8.77419 30.0366C8.77419 27.9463 8.77419 26.2431 11.7935 25.5076C12.7329 25.2908 13.7369 24.9931 14.6265 24.6024C15.473 25.8029 16.564 26.8376 17.7846 27.6206C17.799 27.6397 17.8149 27.658 17.8323 27.6754C17.8469 27.69 17.8725 27.7046 17.903 27.7172C17.9442 27.7522 18.0026 27.7528 18.0614 27.7528L18.0645 27.7528C18.1454 27.7528 18.2262 27.7341 18.2809 27.6835C18.333 27.6511 18.3799 27.6087 18.4129 27.5592C18.4349 27.5225 18.4514 27.4843 18.4623 27.4458L18.4983 27.4026L18.8 28.1786L18.4517 29.9979C18.4129 30.2302 18.5678 30.4237 18.7613 30.4624H18.8388C19.0323 30.4624 19.1871 30.3463 19.1871 30.1528L19.5123 28.527H20.449L20.7742 30.1528C20.8129 30.3463 20.9677 30.4624 21.1613 30.4624H21.2C21.4322 30.4237 21.5484 30.1915 21.5097 29.9979L21.1613 28.1786L21.463 27.4026L21.6258 27.598C21.7032 27.7141 21.8194 27.7528 21.9355 27.7528L21.9391 27.7528C22.0153 27.7528 22.0915 27.7516 22.1678 27.6754C23.4189 26.889 24.538 25.8385 25.4031 24.6154C26.2853 24.9997 27.2775 25.2932 28.2065 25.5076C31.2258 26.2431 31.2258 27.9463 31.2258 30.0753C31.2258 30.3076 31.3807 30.4624 31.6129 30.4624C31.8452 30.4624 32 30.2689 32 30.0366C32 27.985 32 25.6237 28.3613 24.7721C27.2684 24.4989 26.3395 24.1871 25.5949 23.8487C25.5684 23.8171 25.5358 23.7891 25.4968 23.7657C25.4285 23.7247 25.3554 23.703 25.2843 23.7006C24.1168 23.1163 23.4839 22.4607 23.4839 21.7915V20.368C24.142 19.6634 24.6108 18.7188 24.8774 17.5722C25.4194 17.3786 26.1548 16.798 26.1548 15.4044C26.1548 14.9231 26.0481 14.5814 25.9292 14.3489C26.1936 13.5637 26.1936 12.6569 26.1936 11.9592C26.1936 8.32053 24.1032 6.46246 20 6.46246C18.2581 6.46246 17.0581 6.96569 16.2452 8.08827C15.1226 8.5915 13.8065 9.98504 13.8065 12.2689ZM20.4788 27.7528L20.8889 26.7137L19.9806 25.6238L19.0724 26.7137L19.4826 27.7528H20.4788ZM18.4904 26.2818C18.4951 26.2799 18.4999 26.2781 18.5047 26.2764L19.3032 25.3141C18.2098 25.0066 17.2068 24.3672 16.4541 23.476C16.1451 23.7627 15.7652 24.0213 15.3403 24.2535C16.0652 25.2538 16.9924 26.1395 18.0334 26.8444L18.2389 26.5967C18.2615 26.4606 18.3577 26.3348 18.4904 26.2818ZM21.7224 26.5968L21.9558 26.8781C23.0141 26.1731 23.957 25.3042 24.6925 24.2713C24.2446 24.0293 23.8455 23.7583 23.5249 23.4564C22.7768 24.3579 21.7939 25.0043 20.6581 25.3141L21.4566 26.2764C21.4614 26.2781 21.4662 26.2799 21.471 26.2818C21.6036 26.3348 21.6999 26.4606 21.7224 26.5968ZM19.9807 24.6471C18.7845 24.4561 17.7199 23.8166 16.9632 22.8755C17.1722 22.5451 17.2903 22.1844 17.2903 21.7915V21.0107C17.3538 21.0533 17.4184 21.0942 17.4839 21.1335C17.5653 21.1606 17.6278 21.2068 17.6979 21.2587C17.7277 21.2808 17.7589 21.3039 17.7936 21.327C18.2194 21.6367 18.6839 21.9464 20 21.9464C21.3161 21.9464 21.7806 21.6367 22.1677 21.3657C22.2452 21.327 22.3613 21.2496 22.4774 21.1722C22.5565 21.1262 22.634 21.078 22.7097 21.0273V21.7915C22.7097 22.1736 22.8214 22.5253 23.0198 22.8483C22.2618 23.8042 21.1883 24.4542 19.9807 24.6471Z" fill="#0077CA"/>
</svg>
