<svg width="40" height="41" viewBox="0 0 40 41" fill="none" xmlns="http://www.w3.org/2000/svg">
<circle cx="20" cy="20.4625" r="20" fill="#D4ECFF"/>
<path d="M27.3447 23.857C30.7638 28.2534 31.6403 30.9393 31.0079 31.5718C30.7021 31.8767 29.916 31.7989 28.8407 31.3701C28.9088 31.0303 28.8657 30.6775 28.7177 30.3641C28.5697 30.0507 28.3247 29.7932 28.0189 29.6299C27.7132 29.4666 27.363 29.4061 27.0202 29.4573C26.6774 29.5086 26.3603 29.6689 26.1157 29.9144C25.3933 29.4542 24.6233 28.9174 23.8263 28.3156C25.4667 28.0251 26.8562 27.5008 26.8562 26.6134V19.1576C27.7383 18.0992 28.5414 17.0602 29.242 16.0582C29.384 16.1013 29.5313 16.1243 29.6796 16.1264C29.9907 16.1278 30.2954 16.0388 30.5568 15.8703C30.8183 15.7018 31.0252 15.461 31.1524 15.1771C31.2796 14.8933 31.3216 14.5786 31.2734 14.2714C31.2252 13.9641 31.0888 13.6774 30.8808 13.4462C32.0836 11.2245 32.3183 9.72449 31.5782 8.98435C29.9386 7.34474 24.9322 10.9152 22.7086 12.6508C21.809 12.55 20.9045 12.4984 19.9993 12.4963C17.6276 12.4963 13.1424 12.9178 13.1424 14.513V17.8854C9.62924 13.4986 8.26956 10.2779 8.99075 9.55468C9.29568 9.24894 10.0826 9.32679 11.1579 9.75635C11.0897 10.0962 11.1327 10.449 11.2806 10.7624C11.4285 11.0759 11.6735 11.3334 11.9791 11.4968C12.2848 11.6602 12.635 11.7208 12.9778 11.6697C13.3206 11.6185 13.6379 11.4583 13.8825 11.2128C14.346 11.5077 14.8292 11.8328 15.3277 12.1889L15.7972 11.5327C15.2761 11.1604 14.7695 10.82 14.2851 10.5122C14.3277 10.3707 14.3503 10.224 14.3524 10.0762C14.354 9.74629 14.2539 9.4239 14.0658 9.15285C13.8777 8.88181 13.6107 8.67527 13.3011 8.56132C12.9915 8.44736 12.6543 8.43151 12.3354 8.51593C12.0164 8.60035 11.7312 8.78094 11.5185 9.03315C10.0366 8.43136 8.99317 8.41038 8.42041 8.98435C6.99942 10.4053 9.45016 14.7147 13.1424 19.1515V21.9673C12.3474 22.9212 11.6254 23.8533 10.9861 24.7463C10.6347 24.5848 10.2367 24.5555 9.86538 24.6637C9.49404 24.772 9.17423 25.0106 8.9647 25.3358C8.75517 25.6609 8.66998 26.0507 8.72478 26.4336C8.77958 26.8165 8.97069 27.1668 9.26301 27.4201C7.93922 29.7841 7.65204 31.3729 8.42041 32.1421C8.57511 32.2843 8.75689 32.3939 8.95489 32.4642C9.15289 32.5345 9.36304 32.5642 9.57278 32.5515C11.2991 32.5515 14.1895 30.8853 17.2791 28.4745C18.1823 28.576 19.0904 28.628 19.9993 28.6302C20.9049 28.628 21.8098 28.5765 22.7098 28.4757C23.7613 29.2965 24.7761 30.0193 25.7135 30.6134C25.6708 30.7552 25.6481 30.9022 25.6462 31.0503C25.6448 31.3801 25.745 31.7024 25.9332 31.9733C26.1214 32.2443 26.3884 32.4507 26.698 32.5646C27.0076 32.6785 27.3448 32.6943 27.6637 32.6099C27.9825 32.5255 28.2677 32.345 28.4805 32.0929C29.0884 32.368 29.7425 32.5271 30.4089 32.562C30.6221 32.5746 30.8357 32.5439 31.0367 32.4718C31.2377 32.3996 31.4221 32.2875 31.5786 32.1421C33.2182 30.5025 29.6094 25.4554 27.9819 23.3616L27.3447 23.857ZM12.7391 9.26951C12.8986 9.26951 13.0546 9.31682 13.1872 9.40546C13.3199 9.4941 13.4233 9.62009 13.4843 9.7675C13.5454 9.9149 13.5614 10.0771 13.5302 10.2336C13.4991 10.3901 13.4223 10.5338 13.3095 10.6466C13.1967 10.7594 13.0529 10.8363 12.8964 10.8674C12.7399 10.8985 12.5777 10.8826 12.4303 10.8215C12.2829 10.7604 12.1569 10.657 12.0683 10.5244C11.9797 10.3917 11.9324 10.2358 11.9324 10.0762C11.9324 9.86226 12.0173 9.65707 12.1686 9.50579C12.3199 9.3545 12.5251 9.26951 12.7391 9.26951ZM26.0495 22.58C26.0495 22.8377 24.9036 23.3677 22.7421 23.6323L22.9054 23.471C24.0259 22.3505 25.0774 21.2207 26.0495 20.1042V22.58ZM13.9491 23.6049C15.3491 24.3664 18.2488 24.5967 19.9993 24.5967C20.1828 24.5967 20.3805 24.5939 20.5866 24.5882C19.3435 25.7466 18.1564 26.7631 17.0472 27.6383C15.022 27.3665 13.9491 26.8627 13.9491 26.6134V23.6049ZM19.9993 23.79C19.4749 23.79 18.9861 23.7739 18.5271 23.7464C18.2395 23.4685 17.9511 23.1882 17.6627 22.8994C16.6463 21.883 15.7186 20.8988 14.8796 19.9469C16.552 20.3747 18.2732 20.5819 19.9993 20.5632C21.7243 20.5819 23.4443 20.3751 25.1158 19.9481C24.2478 20.9287 23.3176 21.9177 22.3359 22.8998C22.0455 23.1902 21.7583 23.4706 21.4731 23.7468C21.0137 23.7739 20.5236 23.79 19.9993 23.79ZM13.9491 15.5375C15.1862 16.2168 17.6655 16.5298 19.9993 16.5298C22.321 16.5298 24.8096 16.2172 26.0495 15.5379V18.5465C26.0495 18.8978 23.9295 19.7565 19.9993 19.7565C16.0691 19.7565 13.9491 18.8978 13.9491 18.5465V15.5375ZM29.6796 15.3197C29.5201 15.3197 29.3641 15.2724 29.2315 15.1838C29.0988 15.0951 28.9954 14.9691 28.9343 14.8217C28.8733 14.6743 28.8573 14.5121 28.8884 14.3556C28.9196 14.1992 28.9964 14.0554 29.1092 13.9426C29.222 13.8298 29.3658 13.753 29.5222 13.7218C29.6787 13.6907 29.8409 13.7067 29.9883 13.7677C30.1357 13.8288 30.2617 13.9322 30.3504 14.0648C30.439 14.1975 30.4863 14.3535 30.4863 14.513C30.4863 14.727 30.4013 14.9322 30.25 15.0834C30.0988 15.2347 29.8936 15.3197 29.6796 15.3197ZM31.0079 9.55468C31.345 9.89188 31.2902 10.9708 30.206 12.9952C30.0372 12.934 29.8592 12.9016 29.6796 12.8996C29.3606 12.8999 29.0489 12.9946 28.7838 13.172C28.5186 13.3493 28.312 13.6013 28.19 13.896C28.068 14.1908 28.0362 14.515 28.0984 14.8279C28.1607 15.1407 28.3143 15.4281 28.5398 15.6537C28.0299 16.3797 27.4657 17.1251 26.8562 17.8842V14.513C26.8562 13.6257 25.4667 13.1013 23.8254 12.8109C27.9049 9.73134 30.3956 8.94159 31.0079 9.55468ZM19.9993 13.303C23.9295 13.303 26.0495 14.1617 26.0495 14.513V14.5388L26.0418 14.5352C25.7914 15.0333 23.5524 15.7231 19.9993 15.7231C16.4394 15.7231 14.1649 15.0168 13.9539 14.5284H13.9491V14.513C13.9491 14.1617 16.0691 13.303 19.9993 13.303ZM17.0924 23.4701C17.1476 23.5254 17.2029 23.5774 17.2582 23.6315C15.0958 23.3681 13.9491 22.8377 13.9491 22.58V20.0986C14.9421 21.2425 16.0062 22.3819 17.0924 23.4701ZM10.319 25.4034C10.4785 25.4034 10.6345 25.4507 10.7671 25.5393C10.8998 25.628 11.0032 25.754 11.0643 25.9014C11.1253 26.0488 11.1413 26.211 11.1102 26.3675C11.079 26.5239 11.0022 26.6677 10.8894 26.7805C10.7766 26.8933 10.6328 26.9702 10.4763 27.0013C10.3199 27.0324 10.1577 27.0164 10.0103 26.9554C9.86286 26.8943 9.73687 26.7909 9.64823 26.6583C9.55959 26.5256 9.51227 26.3696 9.51227 26.2101C9.51227 25.9961 9.59726 25.791 9.74855 25.6397C9.89983 25.4884 10.105 25.4034 10.319 25.4034ZM8.99075 31.5718C8.63499 31.216 8.71889 30.0338 9.98217 27.7868C10.0928 27.8109 10.2057 27.8232 10.319 27.8235C10.7469 27.8235 11.1572 27.6535 11.4598 27.3509C11.7624 27.0484 11.9324 26.638 11.9324 26.2101C11.9314 25.8658 11.8192 25.5311 11.6125 25.2558C12.0782 24.6032 12.5882 23.9309 13.1424 23.239V26.6134C13.1424 27.5008 14.5291 28.0251 16.1675 28.3148C12.376 31.1596 9.64699 32.2276 8.99075 31.5718ZM19.9993 27.8235C19.3394 27.8235 18.7352 27.7977 18.179 27.7557C19.3975 26.7611 20.6321 25.666 21.8257 24.5253C23.3644 24.4095 25.0718 24.1365 26.0495 23.6049V26.6134C26.0495 26.8627 24.9766 27.3665 22.9518 27.6383C22.4194 27.217 21.8804 26.7733 21.3348 26.3073L20.8104 26.92C21.146 27.2076 21.48 27.4847 21.8123 27.7561C21.2573 27.7977 20.6559 27.8235 19.9993 27.8235ZM27.2595 31.8569C27.1 31.8569 26.944 31.8096 26.8114 31.721C26.6787 31.6324 26.5753 31.5064 26.5143 31.359C26.4532 31.2116 26.4372 31.0494 26.4684 30.8929C26.4995 30.7364 26.5763 30.5926 26.6891 30.4798C26.8019 30.367 26.9457 30.2902 27.1022 30.2591C27.2587 30.2279 27.4208 30.2439 27.5683 30.305C27.7157 30.366 27.8416 30.4694 27.9303 30.6021C28.0189 30.7347 28.0662 30.8907 28.0662 31.0503C28.0662 31.2642 27.9812 31.4694 27.83 31.6207C27.6787 31.772 27.4735 31.8569 27.2595 31.8569Z" fill="#0077CA"/>
</svg>
