<svg width="86" height="73" viewBox="0 0 86 73" fill="none" xmlns="http://www.w3.org/2000/svg">
<path fill-rule="evenodd" clip-rule="evenodd" d="M47.9343 0.462463H84.5907C85.3699 0.462463 86 1.09251 86 1.8718V23.0199C86 23.7991 85.3699 24.4292 84.5907 24.4292H71.0999C72.5464 26.9566 73.312 29.8019 73.312 32.7481V37.9377C76.997 39.2833 79.5277 42.8005 79.5277 46.776C79.5277 50.8161 77.018 54.2858 73.312 55.6241V61.9681C73.312 67.7006 68.6483 72.3643 62.9158 72.3643H17.4452C11.7119 72.3643 7.04909 67.7006 7.04909 61.9673V55.8742C2.93806 54.7964 0 51.0807 0 46.776C0 42.4908 2.94451 38.7516 7.04909 37.6739V32.7481C7.04909 23.4974 14.5758 15.9708 23.8272 15.9708H38.0657V7.51155C38.0657 6.73226 38.6966 6.10141 39.4759 6.10141C40.2551 6.10141 40.8852 6.73226 40.8852 7.51155V15.9708H46.5249V1.8718C46.5249 1.09251 47.155 0.462463 47.9343 0.462463ZM7.04909 40.6087C4.54746 41.5808 2.81947 44.0227 2.81947 46.776C2.81947 49.5431 4.54262 51.9826 7.04909 52.9514V40.6087ZM73.312 52.532C75.3481 51.3792 76.7082 49.1954 76.7082 46.776C76.7082 44.3502 75.3602 42.1705 73.312 41.0177V52.532ZM70.4917 32.7481C70.4917 29.8665 69.6204 27.0978 67.9715 24.7446C67.9176 24.6681 67.8885 24.5849 67.8593 24.5012C67.8509 24.4772 67.8426 24.4531 67.8336 24.4292H63.9178L57.443 31.6509C57.1704 31.955 56.7856 32.1188 56.3935 32.1188C56.2241 32.1188 56.0531 32.0882 55.8893 32.0252C55.344 31.8171 54.9834 31.2927 54.9834 30.7087V24.4292H47.9343C47.155 24.4292 46.5249 23.7991 46.5249 23.0199V18.7902H23.8272C16.1303 18.7902 9.86856 25.052 9.86856 32.7481V61.9681C9.86856 66.1445 13.2681 69.544 17.4452 69.544H62.9158C67.0922 69.544 70.4917 66.1453 70.4917 61.9681V54.9432C70.4909 54.9394 70.4892 54.9359 70.4875 54.9323C70.4856 54.9284 70.4837 54.9244 70.4828 54.9198C70.4352 54.7085 70.4473 54.502 70.4917 54.3035V32.7481ZM63.2885 21.6097H83.1805V3.28194H49.3444V21.6097H56.3935C57.1728 21.6097 57.8036 22.2406 57.8036 23.0199V27.0244L62.239 22.0776C62.506 21.7799 62.8876 21.6097 63.2885 21.6097ZM15.0577 46.9672C15.0577 42.79 18.4556 39.3921 22.6328 39.3921C26.81 39.3921 30.2079 42.79 30.2079 46.9672C30.2079 51.1427 26.81 54.5414 22.6328 54.5414C18.4556 54.5414 15.0577 51.1435 15.0577 46.9672ZM17.8772 46.968C17.8772 49.589 20.0102 51.722 22.6328 51.722C25.2554 51.722 27.3884 49.589 27.3884 46.968C27.3884 44.3453 25.2554 42.2124 22.6328 42.2124C20.0102 42.2124 17.8772 44.3453 17.8772 46.968ZM48.7011 46.9672C48.7011 42.79 52.099 39.3921 56.2762 39.3921C60.4533 39.3921 63.8512 42.79 63.8512 46.9672C63.8512 51.1427 60.4533 54.5414 56.2762 54.5414C52.099 54.5414 48.7011 51.1435 48.7011 46.9672ZM51.5206 46.968C51.5206 49.589 53.6535 51.722 56.2762 51.722C58.8988 51.722 61.0318 49.589 61.0318 46.968C61.0318 44.3453 58.8988 42.2124 56.2762 42.2124C53.6535 42.2124 51.5206 44.3453 51.5206 46.968ZM46.647 57.4803C42.3496 59.6931 38.0595 59.689 33.5282 57.4682C32.8295 57.1213 31.9841 57.4157 31.6421 58.1127C31.2992 58.8121 31.5872 59.6576 32.2866 59.9988C34.9383 61.3001 37.5787 61.9495 40.1892 61.9495C42.8078 61.9495 45.3966 61.296 47.9377 59.9867C48.6307 59.631 48.9017 58.7807 48.5452 58.0877C48.191 57.3955 47.3416 57.1213 46.647 57.4803ZM54.3302 10.2527H62.4773C63.2566 10.2527 63.8866 9.62181 63.8866 8.84252C63.8866 8.06323 63.2566 7.43238 62.4773 7.43238H54.3302C53.551 7.43238 52.9209 8.06323 52.9209 8.84252C52.9209 9.62181 53.5518 10.2527 54.3302 10.2527ZM78.9504 17.3018H54.3302C53.5518 17.3018 52.9209 16.671 52.9209 15.8917C52.9209 15.1124 53.551 14.4816 54.3302 14.4816H78.9504C79.7297 14.4816 80.3606 15.1124 80.3606 15.8917C80.3606 16.671 79.7297 17.3018 78.9504 17.3018Z" fill="#0077CA"/>
</svg>
