<svg width="40" height="41" viewBox="0 0 40 41" fill="none" xmlns="http://www.w3.org/2000/svg">
<circle cx="20" cy="20.4625" r="20" fill="#D4ECFF"/>
<path d="M29.7342 9.46246H10.2658C9.01639 9.46246 8 10.4789 8 11.7283V24.6547C8 25.9044 9.01639 26.921 10.2658 26.921H16.6873C16.6295 28.1709 16.4058 29.3824 16.0204 30.5337H14.4516C14.1666 30.5337 13.9355 30.7648 13.9355 31.0498C13.9355 31.3349 14.1666 31.566 14.4516 31.566H25.5484C25.8334 31.566 26.0645 31.3349 26.0645 31.0498C26.0645 30.7648 25.8334 30.5337 25.5484 30.5337H23.9796C23.5942 29.3823 23.3705 28.1708 23.3127 26.921H29.7342C30.9836 26.921 32 25.9044 32 24.6547V11.7283C32 10.4789 30.9837 9.46246 29.7342 9.46246ZM9.03224 11.7283C9.03224 11.0481 9.58564 10.4947 10.2658 10.4947H29.7342C30.4144 10.4947 30.9678 11.0481 30.9678 11.7283V23.5156H9.03224V11.7283ZM17.1052 30.5338C17.4611 29.3758 17.6675 28.1653 17.7211 26.9211H22.279C22.3326 28.1652 22.539 29.3757 22.8949 30.5338H17.1052ZM30.9679 24.6548H30.9678C30.9678 25.3353 30.4144 25.8889 29.7342 25.8889H10.2658C9.58564 25.8889 9.03228 25.3353 9.03228 24.6548V24.5479H30.9679V24.6548Z" fill="#0077CA"/>
<path d="M26.8822 21.4513H15.7688C15.4838 21.4513 15.2527 21.6824 15.2527 21.9674C15.2527 22.2525 15.4838 22.4836 15.7688 22.4836H26.8822C27.1672 22.4836 27.3983 22.2525 27.3983 21.9674C27.3983 21.6823 27.1672 21.4513 26.8822 21.4513Z" fill="#0077CA"/>
<path d="M13.2011 21.4513H13.1179C12.8329 21.4513 12.6018 21.6824 12.6018 21.9674C12.6018 22.2525 12.8329 22.4836 13.1179 22.4836H13.201C13.486 22.4836 13.7172 22.2525 13.7172 21.9674C13.7172 21.6823 13.4861 21.4513 13.2011 21.4513Z" fill="#0077CA"/>
<path d="M23.0453 13.7323L26.0879 16.3335L23.0453 18.9348C22.8287 19.12 22.8032 19.4458 22.9884 19.6625C23.0905 19.7818 23.2352 19.8432 23.3809 19.8432C23.4996 19.8432 23.6188 19.8025 23.716 19.7194L27.2175 16.7259C27.3323 16.6278 27.3983 16.4845 27.3983 16.3336C27.3983 16.1827 27.3323 16.0393 27.2176 15.9413L23.716 12.9477C23.4995 12.7624 23.1736 12.7879 22.9884 13.0046C22.8031 13.2213 22.8286 13.547 23.0453 13.7323Z" fill="#0077CA"/>
<path d="M12.7826 16.7259L16.284 19.7194C16.3813 19.8026 16.5005 19.8432 16.6191 19.8432C16.7648 19.8432 16.9096 19.7819 17.0117 19.6625C17.1969 19.4458 17.1715 19.12 16.9548 18.9348L13.9122 16.3335L16.9548 13.7323C17.1714 13.547 17.1969 13.2213 17.0117 13.0046C16.8265 12.788 16.5006 12.7625 16.284 12.9477L12.7826 15.9412C12.6678 16.0393 12.6018 16.1826 12.6018 16.3335C12.6018 16.4844 12.6679 16.6278 12.7826 16.7259Z" fill="#0077CA"/>
<path d="M18.5242 20.8675C18.5773 20.8848 18.6311 20.893 18.6841 20.893C18.9015 20.893 19.1038 20.7545 19.1748 20.5365L21.807 12.4501C21.8953 12.1791 21.7471 11.8878 21.4761 11.7996C21.2049 11.7113 20.9137 11.8596 20.8255 12.1306L18.1932 20.2171C18.1049 20.488 18.2532 20.7793 18.5242 20.8675Z" fill="#0077CA"/>
</svg>
