<svg width="40" height="40" viewBox="0 0 40 40" fill="none" xmlns="http://www.w3.org/2000/svg">
<circle cx="20" cy="20" r="20" fill="#D4ECFF"/>
<path d="M16.4954 24.5889H13.7477C13.6263 24.5889 13.5098 24.6371 13.4239 24.723C13.338 24.8089 13.2898 24.9254 13.2898 25.0468V27.7944C13.2898 27.9159 13.338 28.0324 13.4239 28.1183C13.5098 28.2041 13.6263 28.2524 13.7477 28.2524H16.4954C16.6168 28.2524 16.7333 28.2041 16.8192 28.1183C16.905 28.0324 16.9533 27.9159 16.9533 27.7944V25.0468C16.9533 24.9254 16.905 24.8089 16.8192 24.723C16.7333 24.6371 16.6168 24.5889 16.4954 24.5889ZM16.0374 27.3365H14.2057V25.5048H16.0374V27.3365Z" fill="#0077CA"/>
<path d="M16.4954 19.5516H13.7477C13.6263 19.5516 13.5098 19.5998 13.4239 19.6857C13.338 19.7716 13.2898 19.8881 13.2898 20.0095V22.7571C13.2898 22.8786 13.338 22.9951 13.4239 23.0809C13.5098 23.1668 13.6263 23.2151 13.7477 23.2151H16.4954C16.6168 23.2151 16.7333 23.1668 16.8192 23.0809C16.905 22.9951 16.9533 22.8786 16.9533 22.7571V20.0095C16.9533 19.8881 16.905 19.7716 16.8192 19.6857C16.7333 19.5998 16.6168 19.5516 16.4954 19.5516ZM16.0374 22.2992H14.2057V20.4674H16.0374V22.2992Z" fill="#0077CA"/>
<path d="M18.7848 17.7198H24.738C24.8595 17.7198 24.9759 17.6716 25.0618 17.5857C25.1477 17.4998 25.196 17.3833 25.196 17.2619C25.196 17.1404 25.1477 17.024 25.0618 16.9381C24.9759 16.8522 24.8595 16.804 24.738 16.804H18.7848C18.6634 16.804 18.5469 16.8522 18.461 16.9381C18.3752 17.024 18.3269 17.1404 18.3269 17.2619C18.3269 17.3833 18.3752 17.4998 18.461 17.5857C18.5469 17.6716 18.6634 17.7198 18.7848 17.7198Z" fill="#0077CA"/>
<path d="M18.7848 15.8881H24.738C24.8595 15.8881 24.9759 15.8398 25.0618 15.754C25.1477 15.6681 25.196 15.5516 25.196 15.4301C25.196 15.3087 25.1477 15.1922 25.0618 15.1063C24.9759 15.0205 24.8595 14.9722 24.738 14.9722H18.7848C18.6634 14.9722 18.5469 15.0205 18.461 15.1063C18.3752 15.1922 18.3269 15.3087 18.3269 15.4301C18.3269 15.5516 18.3752 15.6681 18.461 15.754C18.5469 15.8398 18.6634 15.8881 18.7848 15.8881Z" fill="#0077CA"/>
<path d="M22.4483 21.8413H18.7848C18.6634 21.8413 18.5469 21.8895 18.461 21.9754C18.3752 22.0613 18.3269 22.1777 18.3269 22.2992C18.3269 22.4207 18.3752 22.5371 18.461 22.623C18.5469 22.7089 18.6634 22.7571 18.7848 22.7571H22.4483C22.5698 22.7571 22.6863 22.7089 22.7721 22.623C22.858 22.5371 22.9063 22.4207 22.9063 22.2992C22.9063 22.1777 22.858 22.0613 22.7721 21.9754C22.6863 21.8895 22.5698 21.8413 22.4483 21.8413Z" fill="#0077CA"/>
<path d="M18.7848 20.9254H22.4483C22.5698 20.9254 22.6863 20.8771 22.7721 20.7913C22.858 20.7054 22.9063 20.5889 22.9063 20.4675C22.9063 20.346 22.858 20.2295 22.7721 20.1436C22.6863 20.0578 22.5698 20.0095 22.4483 20.0095H18.7848C18.6634 20.0095 18.5469 20.0578 18.461 20.1436C18.3752 20.2295 18.3269 20.346 18.3269 20.4675C18.3269 20.5889 18.3752 20.7054 18.461 20.7913C18.5469 20.8771 18.6634 20.9254 18.7848 20.9254Z" fill="#0077CA"/>
<path d="M21.0745 26.8786H18.7848C18.6634 26.8786 18.5469 26.9268 18.461 27.0127C18.3752 27.0986 18.3269 27.2151 18.3269 27.3365C18.3269 27.458 18.3752 27.5744 18.461 27.6603C18.5469 27.7462 18.6634 27.7944 18.7848 27.7944H21.0745C21.196 27.7944 21.3125 27.7462 21.3983 27.6603C21.4842 27.5744 21.5325 27.458 21.5325 27.3365C21.5325 27.2151 21.4842 27.0986 21.3983 27.0127C21.3125 26.9268 21.196 26.8786 21.0745 26.8786Z" fill="#0077CA"/>
<path d="M21.0745 25.0468H18.7848C18.6634 25.0468 18.5469 25.0951 18.461 25.1809C18.3752 25.2668 18.3269 25.3833 18.3269 25.5048C18.3269 25.6262 18.3752 25.7427 18.461 25.8286C18.5469 25.9144 18.6634 25.9627 18.7848 25.9627H21.0745C21.196 25.9627 21.3125 25.9144 21.3983 25.8286C21.4842 25.7427 21.5325 25.6262 21.5325 25.5048C21.5325 25.3833 21.4842 25.2668 21.3983 25.1809C21.3125 25.0951 21.196 25.0468 21.0745 25.0468Z" fill="#0077CA"/>
<path d="M16.1701 15.105L14.6635 16.6162L14.0728 16.0209C14.0301 15.9782 13.9794 15.9443 13.9236 15.9212C13.8678 15.8981 13.808 15.8862 13.7477 15.8862C13.6873 15.8862 13.6275 15.8981 13.5717 15.9212C13.5159 15.9443 13.4652 15.9782 13.4225 16.0209C13.3798 16.0636 13.346 16.1143 13.3228 16.1701C13.2997 16.2258 13.2878 16.2856 13.2878 16.346C13.2878 16.468 13.3363 16.5849 13.4225 16.6712C14.9291 18.1732 14.3384 18.2281 16.8204 15.7553C16.9066 15.6691 16.9551 15.5521 16.9551 15.4301C16.9551 15.3082 16.9066 15.1912 16.8204 15.105C16.7342 15.0188 16.6172 14.9703 16.4953 14.9703C16.3733 14.9703 16.2564 15.0188 16.1701 15.105Z" fill="#0077CA"/>
<path d="M30.3478 15.0363C29.9795 14.8251 29.5426 14.7682 29.1325 14.878C28.7224 14.9879 28.3724 15.2555 28.1589 15.6225L27.4857 16.804C27.4857 12.3574 27.5223 12.5726 27.3758 12.3986C24.358 8.86333 24.6145 9.13809 24.4862 9.07398C24.2527 8.95034 24.2802 9.01903 11.4579 9.01903C11.3365 9.01903 11.22 9.06727 11.1341 9.15315C11.0482 9.23903 11 9.35551 11 9.47696V30.5421C11 30.6635 11.0482 30.78 11.1341 30.8659C11.22 30.9518 11.3365 31 11.4579 31H27.0278C27.1492 31 27.2657 30.9518 27.3516 30.8659C27.4375 30.78 27.4857 30.6635 27.4857 30.5421V23.2151C28.7954 20.9483 29.6609 19.4508 30.934 17.2619C31.045 17.0782 31.1179 16.874 31.1485 16.6615C31.179 16.4491 31.1666 16.2326 31.1119 16.025C31.0573 15.8175 30.9615 15.623 30.8302 15.4531C30.6989 15.2833 30.5349 15.1416 30.3478 15.0363ZM24.7381 10.7134L26.0341 12.2246H24.7381V10.7134ZM26.5698 30.0841H11.9159V9.9349H23.8222V12.6825C23.8222 12.804 23.8705 12.9205 23.9563 13.0063C24.0422 13.0922 24.1587 13.1405 24.2802 13.1405H26.5698V18.3747L23.0071 24.5477C22.9292 24.6805 22.9613 24.5477 22.7919 27.2953C22.7881 27.3577 22.7972 27.4202 22.8185 27.479C22.8398 27.5378 22.873 27.5915 22.9159 27.637C22.9588 27.6825 23.0105 27.7187 23.068 27.7434C23.1254 27.7681 23.1873 27.7808 23.2498 27.7807C23.4467 27.7807 23.3597 27.7807 25.6402 26.297C25.7593 26.2146 25.6952 26.297 26.5561 24.7766L26.5698 30.0841ZM23.8222 25.1567C24.2166 25.2142 24.5739 25.4207 24.8205 25.7337L23.7444 26.4435L23.8222 25.1567ZM25.3792 24.9827C25.0548 24.6464 24.6421 24.4083 24.1886 24.2958L27.9024 17.8847L29.0931 18.5716L25.3792 24.9827ZM30.1417 16.7673L29.5693 17.761L28.4016 17.0741L28.974 16.0804C29.0784 15.956 29.2236 15.8726 29.3837 15.8451C29.5437 15.8176 29.7084 15.8476 29.8484 15.93C29.9884 16.0123 30.0947 16.1416 30.1484 16.2949C30.2021 16.4482 30.1997 16.6156 30.1417 16.7673Z" fill="#0077CA"/>
</svg>
