<svg width="40" height="41" viewBox="0 0 40 41" fill="none" xmlns="http://www.w3.org/2000/svg">
<circle cx="20" cy="20.4625" r="20" fill="#D4ECFF"/>
<path fill-rule="evenodd" clip-rule="evenodd" d="M19.8098 11.6028C18.9998 11.3937 18.3998 10.6569 18.3998 9.78227C18.3998 8.74545 19.243 7.90227 20.2798 7.90227C21.3166 7.90227 22.1598 8.74545 22.1598 9.78227C22.1598 10.6569 21.5599 11.3937 20.7498 11.6028V14.9523C20.7498 15.2117 20.5392 15.4223 20.2798 15.4223C20.0204 15.4223 19.8098 15.2117 19.8098 14.9523V11.6028ZM19.3398 9.78227C19.3398 9.26433 19.7619 8.84227 20.2798 8.84227C20.7977 8.84227 21.2198 9.26433 21.2198 9.78227C21.2198 10.3002 20.7977 10.7223 20.2798 10.7223C19.7619 10.7223 19.3398 10.3002 19.3398 9.78227ZM11.8198 16.0963L19.8098 19.0399V29.3186L15.451 27.7175C15.2076 27.6282 14.9369 27.7532 14.8476 27.9966C14.7583 28.241 14.8833 28.5108 15.1267 28.6001L20.097 30.4253C20.1289 30.4388 20.1626 30.4489 20.1976 30.4551C20.2223 30.4595 20.2473 30.4618 20.2726 30.4622L20.2798 30.4623C20.2892 30.4623 20.2986 30.462 20.3079 30.4614C20.3336 30.46 20.3591 30.4564 20.3842 30.4506C20.4085 30.4451 20.432 30.4377 20.4547 30.4286L25.4338 28.6001C25.6773 28.5099 25.8023 28.2401 25.713 27.9966C25.6228 27.7532 25.353 27.6272 25.1095 27.7175L20.7498 29.3186V19.0399L28.7398 16.0963V24.1267C28.7398 24.3861 28.9504 24.5967 29.2098 24.5967C29.4692 24.5967 29.6798 24.3861 29.6798 24.1267V15.4242L29.6798 15.4223C29.6798 15.2259 29.5567 15.0491 29.3715 14.9805L23.2615 12.7339C23.018 12.6456 22.7473 12.7696 22.658 13.0131C22.5687 13.2566 22.6937 13.5273 22.9372 13.6166L27.8487 15.4223L20.2798 18.2113L12.7109 15.4223L17.6224 13.6175C17.8659 13.5273 17.9909 13.2575 17.9016 13.014C17.8123 12.7706 17.5407 12.6465 17.2981 12.7349L11.2096 14.9736C11.0186 15.0332 10.8798 15.2117 10.8798 15.4223V15.4223V24.1267C10.8798 24.3861 11.0904 24.5967 11.3498 24.5967C11.6092 24.5967 11.8198 24.3861 11.8198 24.1267V16.0963ZM28.7398 28.5823C28.7398 28.3278 28.8417 28.0965 29.0067 27.927L29.0153 27.9187L29.0239 27.9098C29.1935 27.7444 29.425 27.6423 29.6798 27.6423C30.1977 27.6423 30.6198 28.0643 30.6198 28.5823C30.6198 29.1002 30.1977 29.5223 29.6798 29.5223C29.1619 29.5223 28.7398 29.1002 28.7398 28.5823ZM26.0571 25.6251L28.0602 27.6282C27.8948 27.9081 27.7998 28.2343 27.7998 28.5823C27.7998 29.6191 28.643 30.4623 29.6798 30.4623C30.7166 30.4623 31.5598 29.6191 31.5598 28.5823C31.5598 27.5455 30.7166 26.7023 29.6798 26.7023C29.3313 26.7023 29.0047 26.7975 28.7246 26.9634L26.7217 24.9605C26.5384 24.7772 26.2404 24.7772 26.0571 24.9605C25.8738 25.1438 25.8738 25.4418 26.0571 25.6251ZM12.4991 27.6277C12.6647 27.9076 12.7598 28.234 12.7598 28.5823C12.7598 29.6191 11.9166 30.4623 10.8798 30.4623C9.84299 30.4623 8.99981 29.6191 8.99981 28.5823C8.99981 27.5455 9.84299 26.7023 10.8798 26.7023C11.2281 26.7023 11.5545 26.7974 11.8345 26.9631L13.8371 24.9605C14.0204 24.7772 14.3183 24.7772 14.5016 24.9605C14.6849 25.1438 14.6849 25.4418 14.5016 25.6251L12.4991 27.6277ZM11.5435 27.9187C11.5487 27.9239 11.554 27.9289 11.5594 27.9338C11.7206 28.1026 11.8198 28.3312 11.8198 28.5823C11.8198 29.1002 11.3978 29.5223 10.8798 29.5223C10.3619 29.5223 9.93981 29.1002 9.93981 28.5823C9.93981 28.0643 10.3619 27.6423 10.8798 27.6423C11.1304 27.6423 11.3585 27.7411 11.5273 27.9017C11.5325 27.9075 11.5379 27.9131 11.5435 27.9187Z" fill="#0077CA"/>
</svg>
