<svg width="81" height="76" viewBox="0 0 81 76" fill="none" xmlns="http://www.w3.org/2000/svg">
<path d="M3.89014 32.7041H76.7102V74.0865H3.89014V32.7041Z" fill="#FCFDFF" stroke="#0077CA" stroke-width="0.159177"/>
<path d="M45.9064 6.06161C45.9064 8.68364 43.7499 10.8255 41.0917 10.8255C38.4484 10.8255 36.2915 8.68379 36.2915 6.06161C36.2915 3.42463 38.4485 1.28326 41.0917 1.28326C43.7496 1.28326 45.9064 3.42478 45.9064 6.06161Z" fill="#FCFDFF" stroke="#0077CA" stroke-width="0.159177"/>
<path d="M59.8521 41.8124H20.7489C20.0961 41.8124 19.5691 41.2878 19.5691 40.642C19.5691 39.9961 20.0961 39.4716 20.7489 39.4716H59.8521C60.5048 39.4716 61.0319 39.9961 61.0319 40.642C61.0319 41.2878 60.5048 41.8124 59.8521 41.8124Z" fill="#1A86D1" stroke="#0077CA" stroke-width="0.159177"/>
<path d="M20.7489 65.0709H59.8521C60.5046 65.0709 61.0319 65.5955 61.0319 66.2414C61.0319 66.8872 60.5048 67.4118 59.8521 67.4118H20.7489C20.0961 67.4118 19.5691 66.8872 19.5691 66.2414C19.5691 65.5955 20.0961 65.0709 20.7489 65.0709Z" fill="#1A86D1" stroke="#0077CA" stroke-width="0.159177"/>
<path d="M77.9694 72.9624V73.042H78.049H79.3403C79.9929 73.042 80.52 73.5666 80.52 74.2124C80.52 74.8583 79.9929 75.3829 79.3402 75.3829H1.25939C0.606642 75.3829 0.0795887 74.8583 0.0795887 74.2124C0.0795887 73.5666 0.606642 73.042 1.25939 73.042H2.55069H2.63028V72.9624V33.9208V33.8413H2.55069H1.25939C0.606642 33.8413 0.0795887 33.3167 0.0795887 32.6708C0.0795887 32.025 0.606642 31.5004 1.25939 31.5004H1.26078H1.26241H1.26426H1.26632H1.2686H1.27108H1.27378H1.27668H1.2798H1.28312H1.28665H1.29038H1.29432H1.29847H1.30282H1.30737H1.31212H1.31708H1.32223H1.32759H1.33314H1.33889H1.34484H1.35098H1.35732H1.36385H1.37057H1.37749H1.3846H1.3919H1.39939H1.40707H1.41494H1.42299H1.43123H1.43966H1.44827H1.45706H1.46604H1.4752H1.48454H1.49407H1.50377H1.51365H1.5237H1.53394H1.54435H1.55494H1.5657H1.57663H1.58774H1.59902H1.61047H1.62209H1.63387H1.64583H1.65796H1.67025H1.6827H1.69533H1.70811H1.72106H1.73417H1.74745H1.76088H1.77447H1.78822H1.80213H1.8162H1.83043H1.84481H1.85934H1.87403H1.88887H1.90386H1.919H1.9343H1.94974H1.96533H1.98107H1.99696H2.01299H2.02917H2.04549H2.06196H2.07856H2.09531H2.1122H2.12923H2.1464H2.16371H2.18116H2.19874H2.21645H2.23431H2.25229H2.27041H2.28866H2.30705H2.32556H2.3442H2.36297H2.38187H2.4009H2.42005H2.43933H2.45873H2.47826H2.49791H2.51768H2.53757H2.55758H2.57771H2.59796H2.61833H2.63882H2.65942H2.68013H2.70096H2.7219H2.74296H2.76412H2.7854H2.80679H2.82829H2.84989H2.8716H2.89342H2.91534H2.93737H2.9595H2.98174H3.00408H3.02651H3.04905H3.07169H3.09443H3.11726H3.1402H3.16322H3.18635H3.20956H3.23287H3.25628H3.27977H3.30336H3.32704H3.3508H3.37466H3.3986H3.42263H3.44674H3.47094H3.49522H3.51959H3.54404H3.56857H3.59318H3.61787H3.64264H3.66748H3.69241H3.71741H3.74248H3.76763H3.79286H3.81816H3.84353H3.86897H3.89448H3.92006H3.9457H3.97142H3.9972H4.02305H4.04897H4.07495H4.10099H4.12709H4.15326H4.17949H4.20577H4.23212H4.25852H4.28498H4.3115H4.33808H4.3647H4.39139H4.41812H4.44491H4.47175H4.49864H4.52558H4.55257H4.5796H4.60669H4.63382H4.66099H4.68821H4.71547H4.74278H4.77012H4.79751H4.82494H4.85241H4.87991H4.90746H4.93504H4.96266H4.99031H5.01799H5.04571H5.07346H5.10125H5.12906H5.1569H5.18478H5.21268H5.2406H5.26856H5.29654H5.32454H5.35257H5.38062H5.40869H5.43679H5.4649H5.49304H5.52119H5.54936H5.57755H5.60575H5.63397H5.66221H5.69045H5.71871H5.74699H5.77527H5.80356H5.83186H5.86017H5.88849H5.91681H5.94514H5.97348H6.00182H6.03016H6.0585H6.08685H6.1152H6.14354H6.17189H6.20023H6.22857H6.25691H6.28524H6.31356H6.34188H6.3702H6.3985H6.4268H6.45508H6.48336H6.51162H6.53988H6.56812H6.59634H6.62455H6.65274H6.68092H6.70908H6.73722H6.76535H6.79345H6.82153H6.84959H6.87763H6.90564H6.93363H6.96159H6.98953H7.01744H7.04533H7.07318H7.10101H7.1288H7.15657H7.1843H7.212H7.23966H7.26729H7.29488H7.32244H7.34996H7.37745H7.40489H7.43229H7.45966H7.48698H7.51426H7.54149H7.56868H7.59583H7.62293H7.64999H7.67699H7.70395H7.73086H7.75772H7.78453H7.81128H7.83799H7.86463H7.89123H7.91777H7.94425H7.97068H7.99705H8.02336H8.04961H8.0758H8.10192H8.12799H8.15399H8.17993H8.20581H8.23162H8.25736H8.28303H8.30864H8.33418H8.35964H8.38504H8.41037H8.43562H8.4608H8.4859H8.51093H8.53588H8.56076H8.58556H8.61028H8.63492H8.65948H8.68396H8.70836H8.73268H8.75691H8.78105H8.80511H8.82909H8.85298H8.87678H8.90049H8.92411H8.94764H8.97108H8.99443H9.01768H9.04084H9.0639H9.08687H9.10974H9.13252H9.1552H9.17777H9.20025H9.22263H9.2449H9.26707H9.28914H9.3111H9.33296H9.35472H9.37636H9.3979H9.41933H9.44065H9.46186H9.48295H9.50394H9.52481H9.54557H9.56622H9.58675H9.60716H9.62745H9.64763H9.66769H9.68763H9.70744H9.72714H9.74671H9.76616H9.78549H9.80469H9.82377H9.84271H9.86154H9.88023H9.89879H9.91722H9.93552H9.9537H9.97173H9.98964H10.0074H10.025H10.0425H10.0599H10.0771H10.0942H10.1111H10.128H10.1446H10.1611H10.1775H10.1937H10.2098H10.2258H10.2416H10.2572H10.2727H10.2881H10.3033H10.3183H10.3332H10.348H10.3626H10.377H10.3913H10.4054H10.4194H10.4332H10.4468H10.4603H10.4737H10.4869H10.4999H10.5127H10.5254H10.5379H10.5503H10.5625H10.5745H10.5863H10.598H10.6095H10.6209H10.6321H10.6431H10.6539H10.6645H10.675H10.6853H10.6954H10.7054H10.7152H10.7247H10.7342H10.7434H10.7524H10.7613H10.77H10.7785H10.7868H10.7949H10.8029H10.8106H10.8182H10.8255H10.8327H10.8397H10.8465H10.8531H10.8595H10.8658H10.8718H10.8776H10.8832H10.8887H10.8939H10.8989H10.9038H10.9084H10.9128H10.917H10.9211H10.9249H10.9285H10.9319H10.9351H10.9381H10.9408H10.9434H10.9458H10.9479H10.9498H10.9515H10.982L11.0047 31.4801L35.8602 9.21548L35.9087 9.17201L35.8757 9.11586C35.3526 8.22624 35.0319 7.20728 35.0319 6.10779C35.0319 2.78426 37.7496 0.0795887 41.0918 0.0795887C44.4415 0.0795887 47.1651 2.78442 47.1651 6.10779C47.1651 7.26684 46.8168 8.34128 46.2396 9.26179L46.2049 9.31704L46.2523 9.36187L69.6151 31.4786L69.6479 31.4439L69.648 31.5004H69.6481H69.6482H69.6485H69.6488H69.6491H69.6495H69.65H69.6505H69.651H69.6517H69.6523H69.6531H69.6539H69.6548H69.6556H69.6567H69.6576H69.6589H69.6598H69.6612H69.6622H69.6638H69.6648H69.6667H69.6676H69.6698H69.6707H69.6739H69.6774H69.6811H69.685H69.6891H69.6935H69.698H69.7028H69.7077H69.7129H69.7183H69.7238H69.7296H69.7356H69.7418H69.7482H69.7548H69.7615H69.7685H69.7757H69.7831H69.7907H69.7985H69.8064H69.8146H69.8229H69.8315H69.8402H69.8491H69.8583H69.8676H69.8697H69.8771H69.8867H69.8966H69.9066H69.9169H69.9273H69.9379H69.9487H69.9596H69.9707H69.9821H69.9935H70.0052H70.0171H70.0291H70.0413H70.0536H70.0662H70.0789H70.0917H70.1048H70.118H70.1314H70.1449H70.1586H70.1725H70.1865H70.2008H70.2151H70.2296H70.2443H70.2592H70.2742H70.2893H70.3046H70.3201H70.3358H70.3515H70.3675H70.3836H70.3998H70.4162H70.4327H70.4494H70.4662H70.4832H70.5003H70.5176H70.535H70.5526H70.5703H70.5881H70.6061H70.6242H70.6425H70.6609H70.6794H70.6981H70.7169H70.7358H70.7549H70.7741H70.7934H70.8129H70.8325H70.8522H70.872H70.892H70.9121H70.9323H70.9527H70.9731H70.9937H71.0145H71.0353H71.0562H71.0773H71.0985H71.1198H71.1412H71.1628H71.1844H71.2062H71.2281H71.2501H71.2722H71.2944H71.3167H71.3391H71.3616H71.3843H71.407H71.4299H71.4528H71.4759H71.499H71.5223H71.5456H71.5691H71.5927H71.6163H71.64H71.6639H71.6878H71.7118H71.736H71.7602H71.7845H71.8089H71.8333H71.8579H71.8826H71.9073H71.9321H71.957H71.982H72.0071H72.0323H72.0575H72.0828H72.1082H72.1337H72.1592H72.1849H72.2106H72.2364H72.2622H72.2881H72.3141H72.3402H72.3663H72.3925H72.4188H72.4451H72.4715H72.498H72.5245H72.5511H72.5778H72.6045H72.6313H72.6581H72.6851H72.712H72.739H72.7661H72.7932H72.8204H72.8476H72.8749H72.9023H72.9297H72.9571H72.9846H73.0121H73.0397H73.0674H73.095H73.1228H73.1505H73.1783H73.2062H73.2341H73.262H73.29H73.318H73.346H73.3741H73.4022H73.4304H73.4586H73.4868H73.515H73.5433H73.5716H73.6H73.6283H73.6567H73.6852H73.7136H73.7421H73.7706H73.7991H73.8276H73.8562H73.8848H73.9134H73.942H73.9706H73.9993H74.028H74.0567H74.0854H74.1141H74.1428H74.1715H74.2003H74.229H74.2578H74.2866H74.3153H74.3441H74.3729H74.4017H74.4305H74.4593H74.4881H74.5169H74.5457H74.5745H74.6033H74.6321H74.6608H74.6896H74.7184H74.7472H74.7759H74.8047H74.8334H74.8622H74.8909H74.9196H74.9483H74.9769H75.0056H75.0343H75.0629H75.0915H75.1201H75.1487H75.1772H75.2058H75.2343H75.2628H75.2912H75.3197H75.3481H75.3765H75.4048H75.4332H75.4614H75.4897H75.518H75.5462H75.5743H75.6025H75.6306H75.6586H75.6867H75.7147H75.7426H75.7705H75.7984H75.8262H75.854H75.8818H75.9095H75.9372H75.9648H75.9923H76.0199H76.0473H76.0748H76.1021H76.1294H76.1567H76.1839H76.2111H76.2382H76.2653H76.2922H76.3192H76.3461H76.3729H76.3996H76.4263H76.453H76.4795H76.5061H76.5325H76.5589H76.5852H76.6114H76.6376H76.6637H76.6898H76.7157H76.7416H76.7674H76.7932H76.8189H76.8445H76.87H76.8954H76.9208H76.9461H76.9713H76.9964H77.0214H77.0464H77.0713H77.0961H77.1208H77.1454H77.1699H77.1944H77.2187H77.243H77.2672H77.2912H77.3152H77.3391H77.3629H77.3866H77.4102H77.4338H77.4572H77.4805H77.5037H77.5268H77.5498H77.5727H77.5956H77.6183H77.6409H77.6633H77.6857H77.708H77.7302H77.7522H77.7742H77.796H77.8177H77.8393H77.8608H77.8822H77.9035H77.9246H77.9456H77.9665H77.9873H78.008H78.0285H78.049H78.0693H78.0894H78.1095H78.1294H78.1492H78.1689H78.1884H78.2078H78.2271H78.2463H78.2653H78.2842H78.3029H78.3215H78.34H78.3583H78.3765H78.3946H78.4125H78.4303H78.448H78.4655H78.4828H78.5H78.5171H78.534H78.5508H78.5674H78.5839H78.6002H78.6164H78.6324H78.6483H78.664H78.6796H78.695H78.7102H78.7253H78.7403H78.7551H78.7697H78.7841H78.7985H78.8126H78.8266H78.8404H78.854H78.8675H78.8808H78.894H78.9069H78.9197H78.9324H78.9449H78.9571H78.9693H78.9812H78.993H79.0046H79.016H79.0272H79.0383H79.0492H79.0599H79.0704H79.0808H79.0909H79.1009H79.1107H79.1203H79.1297H79.1389H79.148H79.1568H79.1655H79.174H79.1822H79.1903H79.1982H79.2059H79.2134H79.2207H79.2278H79.2347H79.2414H79.2479H79.2542H79.2604H79.2663H79.2719H79.2775H79.2827H79.2878H79.2927H79.2974H79.3018H79.3061H79.3101H79.3139H79.3175H79.3209H79.3241H79.3271H79.3298H79.3324H79.3347H79.3368H79.3387H79.3403C79.9931 31.5004 80.5201 32.025 80.5201 32.6708C80.5201 33.3167 79.9931 33.8413 79.3403 33.8413H78.049H77.9694V33.9208V72.9624ZM37.5351 10.9532L37.4831 10.9155L37.4353 10.9583L14.6609 31.3585L14.5059 31.4974H14.714H66.0174H66.2172L66.0721 31.36L44.6318 11.063L44.5852 11.0188L44.5322 11.0551C43.5527 11.7252 42.3695 12.122 41.0919 12.122C39.7596 12.122 38.5372 11.68 37.5351 10.9532ZM4.98989 72.9624V73.042H5.06948H75.5301H75.6097V72.9624V33.9208V33.8413H75.5301H5.06948H4.98989V33.9208V72.9624ZM44.8057 6.10779C44.8057 4.07421 43.1387 2.42045 41.0919 2.42045C39.0521 2.42045 37.3916 4.07449 37.3916 6.10779C37.3916 8.13408 39.0526 9.78113 41.0919 9.78113C43.1384 9.78113 44.8057 8.13435 44.8057 6.10779Z" fill="#1A86D1" stroke="#0077CA" stroke-width="0.159177"/>
<path d="M14.441 57.0976L11.5768 50.2068C11.4602 49.8957 11.5182 49.5319 11.741 49.3019C12.1257 48.9106 12.8602 48.9928 13.123 49.6046L15.496 55.4777L15.5698 55.6603L15.6436 55.4777L18.0137 49.6114C18.1682 49.2525 18.4776 49.0644 18.7923 49.0644C19.1183 49.0644 19.3551 49.2099 19.4899 49.419C19.6253 49.6292 19.6613 49.9094 19.5711 50.1838L16.6979 57.0998C16.5587 57.4041 16.3832 57.5822 16.2083 57.685C16.0324 57.7883 15.8514 57.8189 15.6971 57.8189H15.441C15.3147 57.8189 15.1364 57.796 14.9556 57.6974C14.7761 57.5994 14.589 57.424 14.4474 57.1101L14.4476 57.11L14.4451 57.1054L14.441 57.0976Z" fill="#1A86D1" stroke="#0077CA" stroke-width="0.159177"/>
<path d="M21.6958 55.6989H21.6429L21.6224 55.7477L20.967 57.3086C20.6876 57.9142 19.9494 57.9509 19.5928 57.5763L19.5921 57.5755C19.3741 57.3522 19.289 57.0132 19.4435 56.6534L19.4436 56.6532L22.4022 49.7211C22.4022 49.7209 22.4023 49.7208 22.4023 49.7207C22.5707 49.3365 22.9045 49.0642 23.3535 49.0642H23.4705C23.9157 49.0642 24.2442 49.3295 24.4189 49.7131L27.3815 56.6507C27.5345 57.0352 27.45 57.3499 27.233 57.5751L27.2328 57.5753C26.8518 57.9737 26.1287 57.8853 25.861 57.3208L25.2013 55.7477L25.1808 55.6989H25.1279H21.6958ZM23.4837 51.6619L23.4102 51.4865L23.3369 51.662L22.3472 54.0319L22.3012 54.1421H22.4207H24.4032H24.5228L24.4766 54.0318L23.4837 51.6619Z" fill="#1A86D1" stroke="#0077CA" stroke-width="0.159177"/>
<path d="M35.2647 50.9726L35.2652 50.9721C35.6137 50.613 35.5287 50.0078 35.0691 49.7607L35.0679 49.76L35.0679 49.76C34.0867 49.2095 33.2684 49.0077 32.2737 49.0077C31.0118 49.0077 29.922 49.4419 29.148 50.21C28.3741 50.9779 27.9104 52.0849 27.9104 53.4405C27.9104 54.8157 28.3838 55.9231 29.1625 56.6866C29.9415 57.4505 31.0314 57.8755 32.2737 57.8755C33.2276 57.8755 34.0674 57.6859 35.0604 57.1269L35.0618 57.1261L35.0618 57.1261C35.5549 56.8614 35.5976 56.2358 35.2618 55.9009L35.2615 55.9006C35.0427 55.6801 34.6684 55.6139 34.3581 55.7663C33.6081 56.1545 33.0708 56.2713 32.3802 56.2713C31.4832 56.2713 30.7794 55.9915 30.3001 55.4918C29.8212 54.9926 29.5753 54.2832 29.5753 53.4406L35.2647 50.9726ZM35.2647 50.9726C35.0505 51.1979 34.6756 51.2657 34.3709 51.1234M35.2647 50.9726L34.3709 51.1234M34.3709 51.1234C33.6073 50.7253 33.0686 50.6098 32.38 50.6098C31.4862 50.6098 30.7824 50.8914 30.3024 51.3919C29.8229 51.8918 29.5752 52.6011 29.5753 53.4406L34.3709 51.1234Z" fill="#1A86D1" stroke="#0077CA" stroke-width="0.159177"/>
<path d="M40.6229 49.2637L40.6229 49.2638L40.6247 49.2651C40.7686 49.3743 40.8848 49.5214 40.9713 49.713L43.9342 56.6514C43.9343 56.6514 43.9343 56.6515 43.9343 56.6515C44.0896 57.0177 44.0025 57.3504 43.7868 57.5752L43.7867 57.5753C43.4084 57.9709 42.6817 57.8882 42.4151 57.3209L41.7554 55.7476L41.7349 55.6988H41.682H38.2499H38.197L38.1765 55.7476L37.5212 57.3087C37.2534 57.8953 36.5177 57.9612 36.1465 57.5766L36.1458 57.5759C35.9332 57.361 35.8417 57.0343 35.9951 56.6578L38.9549 49.7211C38.9549 49.721 38.9549 49.7209 38.955 49.7208C39.0352 49.5372 39.1531 49.3836 39.3042 49.2633C39.4685 49.1336 39.6767 49.0643 39.9076 49.0643H40.0244C40.2552 49.0643 40.4617 49.1342 40.6229 49.2637ZM38.8997 54.0318L38.8536 54.1421H38.9732H40.9557H41.0752L41.0291 54.0318L40.0378 51.662L39.9644 51.4864L39.891 51.662L38.8997 54.0318Z" fill="#1A86D1" stroke="#0077CA" stroke-width="0.159177"/>
<path d="M50.9753 54.9397L51.1202 55.1473V54.8942V49.8951C51.1202 49.4649 51.4323 49.1108 51.8688 49.0731L51.8689 49.0731C52.3537 49.031 52.7847 49.3932 52.7847 49.8952V56.7691C52.7847 57.3494 52.3036 57.8151 51.7207 57.8192C51.6984 57.8152 51.6733 57.814 51.6503 57.8134C51.6371 57.8131 51.6227 57.8129 51.608 57.8126L51.605 57.8126C51.589 57.8124 51.5722 57.8121 51.5546 57.8117C51.4841 57.8098 51.4002 57.8045 51.3085 57.7842C51.1276 57.7442 50.9114 57.6447 50.7156 57.386L46.9191 51.9423L46.7742 51.7345V51.9878V56.9995C46.7742 57.4846 46.3673 57.8308 45.9042 57.8144C45.4506 57.7982 45.1111 57.44 45.1111 56.9995V50.1254C45.1111 49.553 45.5685 49.0664 46.1672 49.0643C46.1883 49.0662 46.2135 49.066 46.2375 49.0658C46.2411 49.0658 46.2447 49.0657 46.2484 49.0657C46.2733 49.0654 46.3005 49.0651 46.3309 49.0657C46.4002 49.0671 46.4838 49.0735 46.5762 49.0961C46.7588 49.1408 46.9827 49.2506 47.1971 49.5255L50.9753 54.9397Z" fill="#1A86D1" stroke="#0077CA" stroke-width="0.159177"/>
<path d="M61.2947 50.9721L61.2943 50.9725C61.0785 51.1981 60.7034 51.2656 60.4004 51.1235C59.0478 50.4154 57.6772 50.5025 56.863 50.9781C55.9649 51.4966 55.6029 52.4366 55.6029 53.4406C55.6029 54.27 55.8452 54.9792 56.322 55.4816C56.7993 55.9847 57.5032 56.2713 58.4079 56.2713C59.093 56.2713 59.6377 56.156 60.3875 55.7662C60.6963 55.614 61.0719 55.6801 61.2908 55.9006L61.2911 55.9009C61.6273 56.2363 61.5836 56.8623 61.0896 57.1261L61.0896 57.1261L61.088 57.1269C60.1039 57.6812 59.2687 57.8755 58.3015 57.8755C57.0525 57.8755 55.963 57.4468 55.1861 56.6811C54.4095 55.9157 53.9398 54.8083 53.9398 53.4405C53.9398 51.5831 54.8039 50.2361 56.0739 49.5444C57.4014 48.8284 59.3078 48.7511 61.0955 49.7607L61.0955 49.7607L61.0972 49.7616C61.5624 50.0092 61.6394 50.6168 61.2947 50.9721Z" fill="#1A86D1" stroke="#0077CA" stroke-width="0.159177"/>
<path d="M67.5522 49.4603L67.5522 49.4603L67.5533 49.4587C67.8513 49.0047 68.5125 48.9483 68.8606 49.3159L68.8606 49.3159L68.8614 49.3167C69.1379 49.601 69.1467 50.0391 68.9438 50.3626L66.2199 54.138L66.2049 54.1589V54.1846V56.9996C66.2049 57.4616 65.8399 57.8192 65.3785 57.8192C64.9132 57.8192 64.5432 57.4534 64.5432 56.9996V54.1846V54.1589L64.5283 54.1381L61.8282 50.3826C61.5859 49.9998 61.6515 49.5779 61.9064 49.3134L61.9064 49.3134L61.9077 49.312C62.22 48.9719 62.8645 48.9418 63.2096 49.4655L63.2096 49.4655L63.2106 49.467L65.3129 52.5042L65.3784 52.5987L65.4438 52.5042L67.5522 49.4603Z" fill="#1A86D1" stroke="#0077CA" stroke-width="0.159177"/>
</svg>
