<svg width="25" height="25" viewBox="0 0 25 25" fill="none" xmlns="http://www.w3.org/2000/svg">
<path fill-rule="evenodd" clip-rule="evenodd" d="M15.2627 4.06189C15.1746 3.55916 14.9338 3.09168 14.568 2.72588C14.0992 2.25704 13.4633 1.99365 12.8003 1.99365C12.1372 1.99365 11.5014 2.25704 11.0325 2.72588C10.6631 3.09533 10.4212 3.5685 10.3353 4.07695C9.2689 4.44806 8.2899 5.05868 7.47926 5.87475C6.08354 7.27984 5.30024 9.17995 5.30028 11.1604V15.5354C4.52795 16.0732 3.89721 16.7899 3.46188 17.6242C3.02655 18.4586 2.79956 19.3859 2.80029 20.327C2.80029 20.5481 2.88809 20.76 3.04437 20.9163C3.20065 21.0726 3.41261 21.1604 3.63362 21.1604H9.57263C9.72026 21.732 10.0185 22.2594 10.4431 22.684C11.0682 23.3091 11.916 23.6603 12.8001 23.6603C13.6841 23.6603 14.532 23.3091 15.1571 22.684C15.5817 22.2594 15.8799 21.732 16.0276 21.1604H21.9669C22.1879 21.1604 22.3998 21.0726 22.5561 20.9163C22.7124 20.76 22.8002 20.5481 22.8002 20.327C22.8056 19.3896 22.585 18.4647 22.1571 17.6306C21.7292 16.7965 21.1065 16.0778 20.3419 15.5354V11.1604C20.3419 9.17132 19.5517 7.26367 18.1452 5.85716C17.3265 5.03851 16.3381 4.42867 15.2627 4.06189ZM11.3585 21.1604H14.2417C14.0952 21.4129 13.8849 21.6225 13.6319 21.7683C13.3789 21.914 13.0921 21.9907 12.8001 21.9907C12.5081 21.9907 12.2213 21.914 11.9682 21.7683C11.7153 21.6225 11.505 21.4129 11.3585 21.1604ZM15.3106 19.4937H21.0502C20.9322 18.916 20.6929 18.3699 20.3481 17.8915C20.0033 17.4132 19.561 17.0134 19.0502 16.7187C18.923 16.6453 18.8175 16.5396 18.7444 16.4123C18.6712 16.285 18.633 16.1406 18.6336 15.9937V11.1604C18.6336 9.61334 18.019 8.12962 16.925 7.03566C15.8311 5.9417 14.3473 5.32713 12.8002 5.32713C11.2532 5.32713 9.76943 5.9417 8.67548 7.03566C7.58152 8.12962 6.96694 9.61334 6.96694 11.1604V15.9937C6.96752 16.1406 6.9293 16.285 6.85613 16.4123C6.78296 16.5396 6.67745 16.6453 6.55028 16.7187C6.03953 17.0134 5.59716 17.4132 5.25239 17.8915C4.90762 18.3699 4.66831 18.916 4.55029 19.4937H10.2895C10.2931 19.4937 10.2966 19.4937 10.3001 19.4937H15.3001C15.3036 19.4937 15.3071 19.4937 15.3106 19.4937Z" fill="#212529"/>
</svg>
