<svg width="25" height="25" viewBox="0 0 25 25" fill="none" xmlns="http://www.w3.org/2000/svg">
<path d="M2.45032 2.82666H5.78365L8.28365 14.4933" stroke="#212529" stroke-width="1.78646" stroke-linecap="round" stroke-linejoin="round"/>
<path d="M6.61707 5.32666H22.4504L19.9504 14.4933H8.28373" stroke="#212529" stroke-width="1.78646" stroke-linecap="round" stroke-linejoin="round"/>
<path d="M8.28369 16.9937V18.6603H19.9504" stroke="#212529" stroke-width="1.78646" stroke-linecap="round" stroke-linejoin="round"/>
<path d="M8.28365 22.8263C8.74389 22.8263 9.11698 22.4532 9.11698 21.993C9.11698 21.5328 8.74389 21.1597 8.28365 21.1597C7.82341 21.1597 7.45032 21.5328 7.45032 21.993C7.45032 22.4532 7.82341 22.8263 8.28365 22.8263Z" stroke="#212529" stroke-width="1.78646" stroke-linecap="round" stroke-linejoin="round"/>
<path d="M19.1169 22.8263C19.5771 22.8263 19.9502 22.4532 19.9502 21.993C19.9502 21.5328 19.5771 21.1597 19.1169 21.1597C18.6567 21.1597 18.2836 21.5328 18.2836 21.993C18.2836 22.4532 18.6567 22.8263 19.1169 22.8263Z" stroke="#212529" stroke-width="1.78646" stroke-linecap="round" stroke-linejoin="round"/>
</svg>
