<svg width="25" height="25" viewBox="0 0 25 25" fill="none" xmlns="http://www.w3.org/2000/svg">
<path d="M20.4348 5.22212C19.89 4.66426 19.243 4.22171 18.5308 3.91976C17.8187 3.61782 17.0553 3.4624 16.2843 3.4624C15.5134 3.4624 14.75 3.61782 14.0378 3.91976C13.3257 4.22171 12.6786 4.66426 12.1338 5.22212C11.0313 4.11134 9.54422 3.49114 7.9966 3.49664C6.44898 3.50213 4.96619 4.13287 3.8712 5.25146C2.77622 6.37005 2.15777 7.88586 2.15058 9.4687C2.14338 11.0515 2.74802 12.5732 3.83278 13.7021L12.1338 22.1921L20.4348 13.7021C21.5334 12.5771 22.1505 11.0521 22.1505 9.46212C22.1505 7.87212 21.5334 6.34713 20.4348 5.22212V5.22212Z" stroke="#212529" stroke-width="2" stroke-linecap="round" stroke-linejoin="round"/>
</svg>
